<?xml version="1.0" encoding="UTF-8" standalone="no"?>
<svg width="295px" height="100px" viewBox="0 0 295 100" version="1.1" xmlns="http://www.w3.org/2000/svg" xmlns:xlink="http://www.w3.org/1999/xlink">
    <!-- Generator: Sketch 40 (33762) - http://www.bohemiancoding.com/sketch -->
    <title>apple-store</title>
    <desc>Created with Sketch.</desc>
    <defs></defs>
    <g id="Page-1" stroke="none" stroke-width="1" fill="none" fill-rule="evenodd">
        <g id="apple-store">
            <g id="Apple">
                <g id="Symbols">
                    <g id="Benötigst-du-hilfe">
                        <g id="Group-10">
                            <g id="Button/Apple">
                                <g id="Group">
                                    <rect id="background" fill="#000000" x="0" y="0" width="295.4" height="100" rx="6"></rect>
                                    <path d="M64.6681533,47.710846 C64.6037911,40.5577716 70.5251074,37.0777776 70.7958723,36.9157626 C67.4423832,32.0264598 62.244586,31.3584252 60.4180331,31.30516 C56.0525049,30.8457476 51.8179204,33.9173749 49.5940977,33.9173749 C47.3258873,33.9173749 43.9013779,31.3495477 40.2105424,31.4250068 C35.4610609,31.4982464 31.0178542,34.2480631 28.5809707,38.5181578 C23.5518467,47.2248009 27.3026056,60.0195492 32.1208881,67.0572156 C34.531139,70.5061382 37.3475372,74.3523306 41.0339339,74.2169482 C44.6404328,74.0704688 45.9875988,71.9176664 50.3398107,71.9176664 C54.6520736,71.9176664 55.9171225,74.2169482 59.6767588,74.1281728 C63.5473644,74.0704688 65.9842479,70.6681533 68.3101623,67.1881593 C71.0954891,63.2420947 72.2140586,59.3470759 72.2584463,59.1473313 C72.1696709,59.1184793 64.7436123,56.2843261 64.6681533,47.710846" id="Fill-2" fill="#FFFFFF"></path>
                                    <path d="M57.5661247,26.6755252 C59.5058663,24.2497385 60.8330579,20.9495147 60.4646401,17.6004643 C57.6571195,17.7247498 54.1460541,19.5424252 52.1241953,21.9149467 C50.3353719,24.0056063 48.7374155,27.4323351 49.1502209,30.6548805 C52.3039654,30.8901352 55.5420466,29.0635823 57.5661247,26.6755252" id="Fill-3" fill="#FFFFFF"></path>
                                    <path d="M116.905793,73.7220255 L111.865572,73.7220255 L109.104658,65.0464538 L99.5080421,65.0464538 L96.8780721,73.7220255 L91.9710143,73.7220255 L101.481074,44.1864643 L107.353564,44.1864643 L116.905793,73.7220255 L116.905793,73.7220255 L116.905793,73.7220255 Z M108.272389,61.4066642 L105.775582,53.6965244 C105.511476,52.9064237 105.014334,51.0510188 104.286376,48.1303095 L104.1976,48.1303095 C103.904642,49.3864808 103.436352,51.2418858 102.79495,53.6965244 L100.340311,61.4066642 L108.272389,61.4066642 L108.272389,61.4066642 L108.272389,61.4066642 Z" id="Fill-4" fill="#FFFFFF"></path>
                                    <path d="M141.314577,62.8115342 C141.314577,66.4335687 140.33139,69.296574 138.362796,71.3983306 C136.600606,73.2692712 134.410074,74.2036319 131.797859,74.2036319 C128.977022,74.2036319 126.948505,73.1982509 125.716747,71.180831 L125.716747,82.355429 L120.98502,82.355429 L120.98502,59.4247543 C120.98502,57.1498858 120.925097,54.8173133 120.809689,52.4248174 L124.971034,52.4248174 L125.23514,55.8027198 L125.323916,55.8027198 C126.901898,53.2570864 129.296613,51.9853794 132.510281,51.9853794 C135.022624,51.9853794 137.119941,52.977444 138.797796,54.9637926 C140.473431,56.95458 141.314577,59.5690143 141.314577,62.8115342 L141.314577,62.8115342 L141.314577,62.8115342 Z M136.494075,62.9846461 C136.494075,60.9117415 136.028005,59.2028159 135.091424,57.8578693 C134.068289,56.457438 132.69449,55.7538933 130.972248,55.7538933 C129.804852,55.7538933 128.743986,56.1445049 127.79631,56.9168505 C126.846413,57.6914155 126.224986,58.7056739 125.934246,59.9640646 C125.787767,60.5477626 125.714527,61.0249301 125.714527,61.4022254 L125.714527,64.9576784 C125.714527,66.5023696 126.189476,67.8095868 127.139372,68.8793298 C128.089268,69.9446341 129.323246,70.4795056 130.841304,70.4795056 C132.62347,70.4795056 134.010585,69.7892772 135.002649,68.4199174 C135.996933,67.0461187 136.494075,65.2351014 136.494075,62.9846461 L136.494075,62.9846461 L136.494075,62.9846461 Z" id="Fill-5" fill="#FFFFFF"></path>
                                    <path d="M165.809917,62.8115342 C165.809917,66.4335687 164.82673,69.296574 162.858137,71.3983306 C161.093727,73.2692712 158.905414,74.2036319 156.29098,74.2036319 C153.472362,74.2036319 151.443845,73.1982509 150.209868,71.180831 L150.209868,82.355429 L145.478141,82.355429 L145.478141,59.4247543 C145.478141,57.1498858 145.418218,54.8173133 145.30281,52.4248174 L149.464155,52.4248174 L149.728261,55.8027198 L149.817037,55.8027198 C151.392799,53.2570864 153.787515,51.9853794 157.003402,51.9853794 C159.513525,51.9853794 161.613062,52.977444 163.293136,54.9637926 C164.966551,56.95458 165.809917,59.5690143 165.809917,62.8115342 L165.809917,62.8115342 L165.809917,62.8115342 Z M160.987196,62.9846461 C160.987196,60.9117415 160.518906,59.2028159 159.582326,57.8578693 C158.561409,56.457438 157.18983,55.7538933 155.467588,55.7538933 C154.300192,55.7538933 153.239327,56.1445049 152.287211,56.9168505 C151.339534,57.6914155 150.718107,58.7056739 150.427367,59.9640646 C150.283107,60.5477626 150.205429,61.0249301 150.205429,61.4022254 L150.205429,64.9576784 C150.205429,66.5023696 150.682597,67.8095868 151.628054,68.8793298 C152.57795,69.9424147 153.811928,70.4795056 155.334425,70.4795056 C157.11881,70.4795056 158.505925,69.7892772 159.49577,68.4199174 C160.490054,67.0461187 160.987196,65.2351014 160.987196,62.9846461 L160.987196,62.9846461 L160.987196,62.9846461 Z" id="Fill-6" fill="#FFFFFF"></path>
                                    <path d="M193.197115,65.4392847 C193.197115,67.9516273 192.320458,69.9956799 190.571584,71.5736619 C188.649597,73.2959038 185.966362,74.1592442 182.526317,74.1592442 C179.348159,74.1592442 176.800307,73.5466942 174.87832,72.3193749 L175.972476,68.3755297 C178.0476,69.602849 180.326908,70.2176183 182.808179,70.2176183 C184.592563,70.2176183 185.979678,69.8136905 186.969524,69.0124929 C187.963808,68.2068565 188.463169,67.1348941 188.463169,65.7943862 C188.463169,64.5936995 188.050364,63.5860992 187.23363,62.7671465 C186.414678,61.9526326 185.060853,61.1891645 183.161061,60.492278 C177.989896,58.5636334 175.402095,55.740577 175.402095,52.0319865 C175.402095,49.6084192 176.316481,47.62429 178.138595,46.0729406 C179.962929,44.5238107 182.382057,43.7492457 185.391542,43.7492457 C188.079216,43.7492457 190.318574,44.2175357 192.096301,45.1518963 L190.90893,49.0091856 C189.235515,48.1036769 187.346819,47.6509226 185.233965,47.6509226 C183.564989,47.6509226 182.253333,48.0615086 181.318972,48.8782419 C180.531091,49.6084192 180.129382,50.4983922 180.129382,51.5548189 C180.129382,52.7199955 180.584356,53.6876469 181.492084,54.4444568 C182.277746,55.1457821 183.711468,55.9070308 185.784373,56.7237641 C188.327787,57.7491195 190.194289,58.943148 191.392756,60.3147273 C192.597881,61.6863065 193.197115,63.3974515 193.197115,65.4392847" id="Fill-7" fill="#FFFFFF"></path>
                                    <path d="M208.881501,55.9758317 L203.665949,55.9758317 L203.665949,66.3159414 C203.665949,68.9459113 204.584774,70.2575672 206.426863,70.2575672 C207.272448,70.2575672 207.973773,70.186547 208.528619,70.0378482 L208.659563,73.6310308 C207.727421,73.9794741 206.500102,74.1548054 204.982044,74.1548054 C203.111103,74.1548054 201.652968,73.5822044 200.596541,72.4436604 C199.544553,71.3028971 199.018559,69.3920075 199.018559,66.7021142 L199.018559,55.9669542 L195.913641,55.9669542 L195.913641,52.4159399 L199.018559,52.4159399 L199.018559,48.5164823 L203.665949,47.1138317 L203.665949,52.4159399 L208.881501,52.4159399 L208.881501,55.9758317" id="Fill-8" fill="#FFFFFF"></path>
                                    <path d="M232.367022,62.8980902 C232.367022,66.1716814 231.432661,68.8593554 229.561721,70.9611119 C227.606443,73.1227919 225.005325,74.2036319 221.762805,74.2036319 C218.633474,74.2036319 216.145545,73.1671796 214.29014,71.094275 C212.434735,69.0213704 211.507032,66.4069361 211.507032,63.2531916 C211.507032,59.9529677 212.468026,57.2497581 214.376696,55.1480015 C216.289805,53.0462449 218.868729,51.9920376 222.111249,51.9920376 C225.238361,51.9920376 227.746264,53.0329286 229.648276,55.1036138 C231.463733,57.116595 232.367022,59.7110548 232.367022,62.8980902 L232.367022,62.8980902 L232.367022,62.8980902 Z M227.462183,63.00684 C227.462183,61.0560015 227.0405,59.382586 226.194915,57.9821548 C225.20285,56.2909842 223.780225,55.4476183 221.942576,55.4476183 C220.049441,55.4476183 218.591306,56.2909842 217.60368,57.9821548 C216.753656,59.382586 216.334192,61.0848535 216.334192,63.0956153 C216.334192,65.0486732 216.753656,66.7265274 217.60368,68.1203005 C218.626816,69.8136905 220.05388,70.6592757 221.904846,70.6592757 C223.711424,70.6592757 225.129611,69.793716 226.157186,68.0803516 C227.024965,66.6466296 227.462183,64.9621172 227.462183,63.00684 L227.462183,63.00684 L227.462183,63.00684 Z" id="Fill-9" fill="#FFFFFF"></path>
                                    <path d="M247.754011,56.5861623 C247.285721,56.4996063 246.78414,56.457438 246.262585,56.457438 C244.598047,56.457438 243.310804,57.0810849 242.405295,58.341695 C241.617414,59.4513869 241.224583,60.8540376 241.224583,62.5474275 L241.224583,73.7220255 L236.492856,73.7220255 L236.492856,59.1317956 C236.492856,56.6793764 236.446249,54.440018 236.355255,52.4270368 L240.476651,52.4270368 L240.649763,56.5018257 L240.780706,56.5018257 C241.282287,55.1013944 242.067949,53.971728 243.146569,53.1283621 C244.202996,52.3648941 245.339321,51.9853794 246.56664,51.9853794 C247.003859,51.9853794 247.398909,52.0186702 247.749572,52.0719354 L247.754011,56.5861623" id="Fill-10" fill="#FFFFFF"></path>
                                    <path d="M268.915836,62.0658212 C268.915836,62.9136258 268.860352,63.6282675 268.742724,64.2119654 L254.549764,64.2119654 C254.60081,66.3159414 255.291038,67.9272141 256.607133,69.0369061 C257.803381,70.0267513 259.352511,70.5238933 261.250084,70.5238933 C263.351841,70.5238933 265.269388,70.1909857 266.99385,69.516293 L267.735124,72.8009812 C265.719923,73.6776379 263.338524,74.1170759 260.595366,74.1170759 C257.292923,74.1170759 254.700682,73.1449857 252.814206,71.2052442 C250.934388,69.2632832 249.98893,66.6510684 249.98893,63.3841352 C249.98893,60.1749061 250.863367,57.5005485 252.621119,55.3677205 C254.458769,53.0906326 256.94226,51.9520887 260.067153,51.9520887 C263.13656,51.9520887 265.460255,53.0906326 267.036018,55.3677205 C268.287751,57.1720796 268.915836,59.4092186 268.915836,62.0658212 L268.915836,62.0658212 L268.915836,62.0658212 Z M264.403829,60.8385019 C264.437119,59.4336319 264.126406,58.226287 263.485004,57.2009316 C262.666051,55.8826176 261.405441,55.2256799 259.71649,55.2256799 C258.16736,55.2256799 256.908969,55.8670819 255.950195,57.1543246 C255.162314,58.1774606 254.694024,59.4092186 254.549764,60.8340631 L264.403829,60.8385019 L264.403829,60.8385019 L264.403829,60.8385019 Z" id="Fill-11" fill="#FFFFFF"></path>
                                    <path d="M105.990863,33.6155387 L103.511811,33.6155387 L102.155767,29.3521022 L97.4395763,29.3521022 L96.1456754,33.6155387 L93.7332051,33.6155387 L98.4072276,19.0985485 L101.292427,19.0985485 L105.990863,33.6155387 L105.990863,33.6155387 L105.990863,33.6155387 Z M101.7474,27.5632787 L100.520081,23.772571 C100.391357,23.3841788 100.153883,22.4808896 99.7876844,21.03829 L99.7432968,21.03829 C99.5923787,21.6619369 99.3770984,22.5674455 99.0530684,23.772571 L97.8479429,27.5632787 L101.7474,27.5632787 L101.7474,27.5632787 L101.7474,27.5632787 Z" id="Fill-12" fill="#FFFFFF"></path>
                                    <path d="M117.678138,23.1489241 L113.714319,33.6155387 L111.452766,33.6155387 L107.617671,23.1489241 L110.116697,23.1489241 L111.905521,28.6840676 C112.207357,29.6095507 112.464805,30.4928655 112.657892,31.3317926 L112.722254,31.3317926 C112.895366,30.5794215 113.152814,29.6961067 113.474625,28.6840676 L115.241255,23.1489241 L117.678138,23.1489241" id="Fill-13" fill="#FFFFFF"></path>
                                    <path d="M126.116236,33.6155387 L125.943124,32.4104132 L125.878762,32.4104132 C125.168559,33.380284 124.134326,33.8530128 122.820451,33.8530128 C120.947291,33.8530128 119.611222,32.5391375 119.611222,30.7725079 C119.611222,28.189145 121.85058,26.8530759 125.727844,26.8530759 L125.727844,26.6599895 C125.727844,25.2817521 124.995447,24.5915237 123.552847,24.5915237 C122.518615,24.5915237 121.613106,24.8511916 120.818566,25.368308 L120.345838,23.8391525 C121.315708,23.2354801 122.520834,22.9336439 123.943459,22.9336439 C126.67774,22.9336439 128.058197,24.3762434 128.058197,27.2636619 L128.058197,31.1187318 C128.058197,32.1751585 128.102585,32.9941112 128.209115,33.6177581 L126.116236,33.6155387 L126.116236,33.6155387 L126.116236,33.6155387 Z M125.792206,28.4022059 C123.206624,28.4022059 121.914942,29.0280721 121.914942,30.51284 C121.914942,31.611435 122.582977,32.1485259 123.50846,32.1485259 C124.693611,32.1485259 125.792206,31.2452367 125.792206,30.0179174 L125.792206,28.4022059 L125.792206,28.4022059 L125.792206,28.4022059 Z" id="Fill-14" fill="#FFFFFF"></path>
                                    <path d="M133.238239,21.4244628 C132.463674,21.4244628 131.860002,20.8207904 131.860002,20.0240316 C131.860002,19.2272727 132.483648,18.6457941 133.282627,18.6457941 C134.079385,18.6457941 134.725226,19.2272727 134.703032,20.0240316 C134.703032,20.8651781 134.101579,21.4244628 133.238239,21.4244628 L133.238239,21.4244628 L133.238239,21.4244628 Z M132.119669,23.1489241 L134.445584,23.1489241 L134.445584,33.6155387 L132.119669,33.6155387 L132.119669,23.1489241 L132.119669,23.1489241 Z" id="Fill-15" fill="#FFFFFF"></path>
                                    <polygon id="Fill-16" fill="#FFFFFF" points="138.578077 18.3461773 140.903991 18.3461773 140.903991 33.6155387 138.578077 33.6155387"></polygon>
                                    <path d="M150.789127,33.6155387 L150.613796,32.4104132 L150.551653,32.4104132 C149.84145,33.380284 148.807217,33.8530128 147.493342,33.8530128 C145.620182,33.8530128 144.284113,32.5391375 144.284113,30.7725079 C144.284113,28.189145 146.523471,26.8530759 150.400735,26.8530759 L150.400735,26.6599895 C150.400735,25.2817521 149.668338,24.5915237 148.225739,24.5915237 C147.191506,24.5915237 146.285997,24.8511916 145.491458,25.368308 L145.016509,23.8369331 C145.98638,23.2332607 147.191506,22.9314245 148.614131,22.9314245 C151.348412,22.9314245 152.731088,24.374024 152.731088,27.2614425 L152.731088,31.1165124 C152.731088,32.1729391 152.775476,32.9918918 152.877567,33.6155387 L150.789127,33.6155387 L150.789127,33.6155387 L150.789127,33.6155387 Z M150.465097,28.4022059 C147.879515,28.4022059 146.587833,29.0280721 146.587833,30.51284 C146.587833,31.611435 147.255868,32.1485259 148.181351,32.1485259 C149.366502,32.1485259 150.465097,31.2452367 150.465097,30.0179174 L150.465097,28.4022059 L150.465097,28.4022059 L150.465097,28.4022059 Z" id="Fill-17" fill="#FFFFFF"></path>
                                    <path d="M162.152373,33.8530128 C160.667605,33.8530128 159.571229,33.2271465 158.858807,31.9998272 L158.814419,31.9998272 L158.681256,33.6155387 L156.701566,33.6155387 C156.763708,32.7766116 156.785902,31.8267153 156.785902,30.7947017 L156.785902,18.3461773 L159.116255,18.3461773 L159.116255,24.680299 L159.158424,24.680299 C159.848652,23.5173418 160.967222,22.9358633 162.496377,22.9358633 C165.017597,22.9358633 166.784227,25.090885 166.784227,28.2335327 C166.784227,31.4827107 164.822292,33.8530128 162.152373,33.8530128 L162.152373,33.8530128 L162.152373,33.8530128 Z M161.679644,24.7624162 C160.341355,24.7624162 159.116255,25.9253734 159.116255,27.5410849 L159.116255,29.3720766 C159.116255,30.8146762 160.21707,31.9998272 161.637476,31.9998272 C163.379692,31.9998272 164.418364,30.5794215 164.418364,28.3178693 C164.416144,26.2072352 163.337524,24.7624162 161.679644,24.7624162 L161.679644,24.7624162 L161.679644,24.7624162 Z" id="Fill-18" fill="#FFFFFF"></path>
                                    <polygon id="Fill-19" fill="#FFFFFF" points="170.226491 18.3461773 172.550186 18.3461773 172.550186 33.6155387 170.226491 33.6155387"></polygon>
                                    <path d="M185.209552,28.9415162 L178.22737,28.9415162 C178.273977,30.923426 179.583414,32.0419955 181.520936,32.0419955 C182.557388,32.0419955 183.505065,31.8688835 184.343992,31.5470729 L184.705752,33.1627844 C183.715907,33.5933449 182.55295,33.8086251 181.196906,33.8086251 C177.921095,33.8086251 175.983573,31.7401593 175.983573,28.5331495 C175.983573,25.3239204 177.967702,22.91145 180.937238,22.91145 C183.604938,22.91145 185.28945,24.8933599 185.28945,27.8873088 C185.296108,28.2956754 185.276134,28.6618738 185.209552,28.9415162 L185.209552,28.9415162 L185.209552,28.9415162 Z M183.078944,27.2836364 C183.078944,25.6679249 182.257772,24.5271615 180.770784,24.5271615 C179.434715,24.5271615 178.382727,25.6901187 178.22737,27.2836364 L183.078944,27.2836364 L183.078944,27.2836364 L183.078944,27.2836364 Z" id="Fill-20" fill="#FFFFFF"></path>
                                    <path d="M199.307079,33.8530128 C196.248768,33.8530128 194.266858,31.5692667 194.266858,28.4687874 C194.266858,25.2373644 196.290936,22.9336439 199.48241,22.9336439 C202.494114,22.9336439 204.522631,25.1086401 204.522631,28.2978948 C204.522631,31.5692667 202.431971,33.8530128 199.307079,33.8530128 L199.307079,33.8530128 L199.307079,33.8530128 Z M199.395854,24.633692 C197.715781,24.633692 196.639379,26.2050158 196.639379,28.4022059 C196.639379,30.5572276 197.737974,32.1285515 199.37366,32.1285515 C201.009346,32.1285515 202.107941,30.4484778 202.107941,28.3578182 C202.107941,26.2272096 201.03154,24.633692 199.395854,24.633692 L199.395854,24.633692 L199.395854,24.633692 Z" id="Fill-21" fill="#FFFFFF"></path>
                                    <path d="M217.02664,33.6155387 L214.705165,33.6155387 L214.705165,27.605447 C214.705165,25.7544808 213.992742,24.8267784 212.592311,24.8267784 C211.214074,24.8267784 210.264177,26.0119294 210.264177,27.3901668 L210.264177,33.6155387 L207.942702,33.6155387 L207.942702,26.1406536 C207.942702,25.2151705 207.916069,24.2231059 207.853926,23.1467047 L209.900198,23.1467047 L210.008948,24.7624162 L210.07553,24.7624162 C210.694738,23.6438467 211.968664,22.9314245 213.391289,22.9314245 C215.584041,22.9314245 217.02664,24.6114981 217.02664,27.3457791 L217.02664,33.6155387" id="Fill-22" fill="#FFFFFF"></path>
                                    <path d="M232.244956,24.8933599 L229.686006,24.8933599 L229.686006,29.9757491 C229.686006,31.2696499 230.136541,31.9154906 231.03983,31.9154906 C231.448197,31.9154906 231.79664,31.8711029 232.074063,31.8067408 L232.138425,33.5733704 C231.685671,33.7464823 231.079779,33.8330383 230.331847,33.8330383 C228.496416,33.8330383 227.404479,32.8209992 227.404479,30.1710548 L227.404479,24.8933599 L225.879763,24.8933599 L225.879763,23.1489241 L227.404479,23.1489241 L227.404479,21.2313764 L229.686006,20.541148 L229.686006,23.1467047 L232.244956,23.1467047 L232.244956,24.8933599" id="Fill-23" fill="#FFFFFF"></path>
                                    <path d="M244.562536,33.6155387 L242.234403,33.6155387 L242.234403,27.6498347 C242.234403,25.7766747 241.52198,24.8289977 240.123769,24.8289977 C238.918643,24.8289977 237.800074,25.6479504 237.800074,27.3058302 L237.800074,33.6155387 L235.47194,33.6155387 L235.47194,18.3461773 L237.800074,18.3461773 L237.800074,24.633692 L237.844461,24.633692 C238.574639,23.4929286 239.633285,22.9314245 240.989328,22.9314245 C243.206493,22.9314245 244.562536,24.6536664 244.562536,27.3901668 L244.562536,33.6155387" id="Fill-24" fill="#FFFFFF"></path>
                                    <path d="M256.447337,28.9415162 L249.467375,28.9415162 C249.511763,30.923426 250.821199,32.0419955 252.760941,32.0419955 C253.799612,32.0419955 254.74507,31.8688835 255.579558,31.5470729 L255.943537,33.1627844 C254.955911,33.5933449 253.790735,33.8086251 252.432472,33.8086251 C249.158881,33.8086251 247.221358,31.7401593 247.221358,28.5331495 C247.221358,25.3239204 249.203268,22.91145 252.172804,22.91145 C254.842723,22.91145 256.525016,24.8933599 256.525016,27.8873088 C256.533893,28.2956754 256.511699,28.6618738 256.447337,28.9415162 L256.447337,28.9415162 L256.447337,28.9415162 Z M254.314509,27.2836364 C254.314509,25.6679249 253.497776,24.5271615 252.010789,24.5271615 C250.67472,24.5271615 249.620512,25.6901187 249.467375,27.2836364 L254.314509,27.2836364 L254.314509,27.2836364 L254.314509,27.2836364 Z" id="Fill-25" fill="#FFFFFF"></path>
                                </g>
                            </g>
                        </g>
                    </g>
                </g>
            </g>
        </g>
    </g>
</svg>