<?xml version="1.0" encoding="UTF-8" standalone="no"?>
<svg width="60px" height="60px" viewBox="0 0 60 60" version="1.1" xmlns="http://www.w3.org/2000/svg" xmlns:xlink="http://www.w3.org/1999/xlink">
    <!-- Generator: Sketch 39.1 (31720) - http://www.bohemiancoding.com/sketch -->
    <title>Icon</title>
    <desc>Created with Sketch.</desc>
    <defs></defs>
    <g id="Page-1" stroke="none" stroke-width="1" fill="none" fill-rule="evenodd">
        <g id="Landing-page" transform="translate(-235.000000, -2257.000000)" fill="#F5AA02">
            <g id="Icons-Yellow" transform="translate(110.000000, 2116.000000)">
                <g id="Icon/Male" transform="translate(125.000000, 141.000000)">
                    <path d="M30,60 C13.4582143,60 0,46.5417857 0,30 C0,13.4571429 13.4582143,0 30,0 C30.5914286,0 31.0714286,0.478928571 31.0714286,1.07142857 C31.0714286,1.66392857 30.5914286,2.14285714 30,2.14285714 C14.64,2.14285714 2.14285714,14.6389286 2.14285714,30 C2.14285714,45.3610714 14.64,57.8571429 30,57.8571429 C45.36,57.8571429 57.8571429,45.3610714 57.8571429,30 C57.8571429,29.4075 58.3371429,28.9285714 58.9285714,28.9285714 C59.52,28.9285714 60,29.4075 60,30 C60,46.5417857 46.5428571,60 30,60" id="Fill-592"></path>
                    <path d="M30.0632143,36.4285714 C24.2142857,36.4285714 19.2578571,32.0592857 18.4542857,26.3485714 C17.0507143,25.8053571 16.0714286,24.435 16.0714286,22.8717857 L16.0714286,22.1282143 C16.0714286,20.6110714 16.9992857,19.2696429 18.3407143,18.6975 L18.3407143,16.6703571 C18.3407143,12.2046429 21.9696429,8.57142857 26.4310714,8.57142857 L40.7142857,8.57142857 C41.3057143,8.57142857 41.7857143,9.05035714 41.7857143,9.64285714 L41.7857143,18.7542857 C43.0671429,19.3553571 43.9285714,20.6603571 43.9285714,22.1282143 L43.9285714,22.8717857 C43.9285714,24.39 43.02,25.7228571 41.6796429,26.2971429 C40.8996429,32.0346429 35.9346429,36.4285714 30.0632143,36.4285714 L30.0632143,36.4285714 L30.0632143,36.4285714 Z M26.4310714,10.7142857 C23.1514286,10.7142857 20.4835714,13.3853571 20.4835714,16.6703571 L20.4835714,19.5010714 C20.4835714,20.0346429 20.0903571,20.4867857 19.5621429,20.5617857 C18.7810714,20.6732143 18.2142857,21.3310714 18.2142857,22.1282143 L18.2142857,22.8717857 C18.2142857,23.6625 18.8014286,24.3364286 19.5814286,24.4392857 C20.085,24.5057143 20.4717857,24.9171429 20.5092857,25.4239286 C20.8746429,30.3921429 25.0714286,34.2857143 30.0632143,34.2857143 C35.0646429,34.2857143 39.2625,30.3846429 39.6182143,25.4067857 C39.6535714,24.9182143 40.0146429,24.5153571 40.4967857,24.4285714 C41.2435714,24.2935714 41.7857143,23.6389286 41.7857143,22.8717857 L41.7857143,22.1282143 C41.7857143,21.3717857 41.2489286,20.7192857 40.5096429,20.5746429 C40.0060714,20.4771429 39.6428571,20.0357143 39.6428571,19.5235714 L39.6428571,10.7142857 L26.4310714,10.7142857 L26.4310714,10.7142857 L26.4310714,10.7142857 Z" id="Fill-593"></path>
                    <path d="M10.7142857,52.6210714 C10.1228571,52.6210714 9.64285714,52.1421429 9.64285714,51.5496429 L9.64285714,46.0714286 C9.64285714,42.4542857 12.7821429,39.3985714 16.4989286,39.3985714 L21.795,39.3985714 L24.0064286,34.8857143 C24.2667857,34.3553571 24.9085714,34.1335714 25.44,34.395 C25.9714286,34.6553571 26.1910714,35.2971429 25.9307143,35.8285714 L23.4257143,40.9425 C23.2457143,41.31 22.8728571,41.5414286 22.4635714,41.5414286 L16.4989286,41.5414286 C13.9885714,41.5414286 11.7857143,43.6585714 11.7857143,46.0714286 L11.7857143,51.5496429 C11.7857143,52.1421429 11.3057143,52.6210714 10.7142857,52.6210714 L10.7142857,52.6210714 L10.7142857,52.6210714 Z M49.2857143,52.5 C48.6942857,52.5 48.2142857,52.0210714 48.2142857,51.4285714 L48.2142857,45.9503571 C48.2142857,43.5192857 46.2139286,41.5414286 43.755,41.5414286 L37.0532143,41.5414286 C36.645,41.5414286 36.2721429,41.31 36.0910714,40.9425 L33.5860714,35.8285714 C33.3257143,35.2971429 33.5453571,34.6553571 34.0767857,34.395 C34.6103571,34.1325 35.25,34.3542857 35.5103571,34.8857143 L37.7217857,39.3985714 L43.755,39.3985714 C47.3957143,39.3985714 50.3571429,42.3385714 50.3571429,45.9503571 L50.3571429,51.4285714 C50.3571429,52.0210714 49.8771429,52.5 49.2857143,52.5 L49.2857143,52.5 L49.2857143,52.5 Z" id="Fill-594"></path>
                    <path d="M53.0357143,16.0714286 C52.8428571,16.0714286 52.6532143,16.0189286 52.4839286,15.9182143 L47.1267857,12.7039286 C46.62,12.3996429 46.455,11.7417857 46.7603571,11.2339286 C47.0635714,10.7271429 47.7214286,10.5610714 48.2303571,10.8675 L52.5942857,13.4860714 L56.8992857,4.87821429 C57.1639286,4.35 57.8067857,4.13464286 58.3360714,4.39821429 C58.8653571,4.66285714 59.0807143,5.30678571 58.8160714,5.83607143 L53.9946429,15.4789286 C53.8607143,15.7457143 53.6217857,15.945 53.3357143,16.0285714 C53.2371429,16.0575 53.1364286,16.0714286 53.0357143,16.0714286" id="Fill-595"></path>
                </g>
            </g>
        </g>
    </g>
</svg>