<?xml version="1.0" encoding="UTF-8" standalone="no"?>
<svg width="60px" height="60px" viewBox="0 0 60 60" version="1.1" xmlns="http://www.w3.org/2000/svg" xmlns:xlink="http://www.w3.org/1999/xlink">
    <!-- Generator: Sketch 39.1 (31720) - http://www.bohemiancoding.com/sketch -->
    <title>Icon</title>
    <desc>Created with Sketch.</desc>
    <defs></defs>
    <g id="Page-1" stroke="none" stroke-width="1" fill="none" fill-rule="evenodd">
        <g id="Landing-page" transform="translate(-568.000000, -2255.000000)" fill="#F5AA02">
            <g id="Icons-Yellow" transform="translate(110.000000, 2116.000000)">
                <g id="Icon/Expertennetzwerk" transform="translate(458.000000, 139.000000)">
                    <path d="M29.4736842,35.7894737 C25.9905263,35.7894737 23.1578947,32.9568421 23.1578947,29.4736842 C23.1578947,25.9905263 25.9905263,23.1578947 29.4736842,23.1578947 C32.9568421,23.1578947 35.7894737,25.9905263 35.7894737,29.4736842 C35.7894737,32.9568421 32.9568421,35.7894737 29.4736842,35.7894737 L29.4736842,35.7894737 L29.4736842,35.7894737 Z M29.4736842,25.2631579 C27.1515789,25.2631579 25.2631579,27.1515789 25.2631579,29.4736842 C25.2631579,31.7957895 27.1515789,33.6842105 29.4736842,33.6842105 C31.7957895,33.6842105 33.6842105,31.7957895 33.6842105,29.4736842 C33.6842105,27.1515789 31.7957895,25.2631579 29.4736842,25.2631579 L29.4736842,25.2631579 L29.4736842,25.2631579 Z" id="Fill-13"></path>
                    <polygon id="Fill-14" points="28.4210526 6.31578947 30.5263158 6.31578947 30.5263158 24.7368421 28.4210526 24.7368421"></polygon>
                    <polygon id="Fill-15" points="28.4210526 34.2105263 30.5263158 34.2105263 30.5263158 52.6315789 28.4210526 52.6315789"></polygon>
                    <path d="M29.4736842,8.42105263 C27.1515789,8.42105263 25.2631579,6.53263158 25.2631579,4.21052632 C25.2631579,1.88842105 27.1515789,0 29.4736842,0 C31.7957895,0 33.6842105,1.88842105 33.6842105,4.21052632 C33.6842105,6.53263158 31.7957895,8.42105263 29.4736842,8.42105263 L29.4736842,8.42105263 L29.4736842,8.42105263 Z M29.4736842,2.10526316 C28.3126316,2.10526316 27.3684211,3.04947368 27.3684211,4.21052632 C27.3684211,5.37157895 28.3126316,6.31578947 29.4736842,6.31578947 C30.6347368,6.31578947 31.5789474,5.37157895 31.5789474,4.21052632 C31.5789474,3.04947368 30.6347368,2.10526316 29.4736842,2.10526316 L29.4736842,2.10526316 L29.4736842,2.10526316 Z" id="Fill-16"></path>
                    <path d="M29.4736842,60 C27.1515789,60 25.2631579,58.1115789 25.2631579,55.7894737 C25.2631579,53.4673684 27.1515789,51.5789474 29.4736842,51.5789474 C31.7957895,51.5789474 33.6842105,53.4673684 33.6842105,55.7894737 C33.6842105,58.1115789 31.7957895,60 29.4736842,60 L29.4736842,60 L29.4736842,60 Z M29.4736842,53.6842105 C28.3126316,53.6842105 27.3684211,54.6284211 27.3684211,55.7894737 C27.3684211,56.9505263 28.3126316,57.8947368 29.4736842,57.8947368 C30.6347368,57.8947368 31.5789474,56.9505263 31.5789474,55.7894737 C31.5789474,54.6284211 30.6347368,53.6842105 29.4736842,53.6842105 L29.4736842,53.6842105 L29.4736842,53.6842105 Z" id="Fill-17"></path>
                    <path d="M47.3684211,15.7894737 C45.6273684,15.7894737 44.2105263,14.3726316 44.2105263,12.6315789 C44.2105263,10.8905263 45.6273684,9.47368421 47.3684211,9.47368421 C49.1094737,9.47368421 50.5263158,10.8905263 50.5263158,12.6315789 C50.5263158,14.3726316 49.1094737,15.7894737 47.3684211,15.7894737 L47.3684211,15.7894737 L47.3684211,15.7894737 Z M47.3684211,11.5789474 C46.7884211,11.5789474 46.3157895,12.0515789 46.3157895,12.6315789 C46.3157895,13.2115789 46.7884211,13.6842105 47.3684211,13.6842105 C47.9484211,13.6842105 48.4210526,13.2115789 48.4210526,12.6315789 C48.4210526,12.0515789 47.9484211,11.5789474 47.3684211,11.5789474 L47.3684211,11.5789474 L47.3684211,11.5789474 Z" id="Fill-18"></path>
                    <path d="M12.6315789,50.5263158 C10.8905263,50.5263158 9.47368421,49.1094737 9.47368421,47.3684211 C9.47368421,45.6273684 10.8905263,44.2105263 12.6315789,44.2105263 C14.3726316,44.2105263 15.7894737,45.6273684 15.7894737,47.3684211 C15.7894737,49.1094737 14.3726316,50.5263158 12.6315789,50.5263158 L12.6315789,50.5263158 L12.6315789,50.5263158 Z M12.6315789,46.3157895 C12.0515789,46.3157895 11.5789474,46.7884211 11.5789474,47.3684211 C11.5789474,47.9484211 12.0515789,48.4210526 12.6315789,48.4210526 C13.2115789,48.4210526 13.6842105,47.9484211 13.6842105,47.3684211 C13.6842105,46.7884211 13.2115789,46.3157895 12.6315789,46.3157895 L12.6315789,46.3157895 L12.6315789,46.3157895 Z" id="Fill-19"></path>
                    <polyline id="Fill-20" points="34.2105263 27.2778947 32.7221053 25.7894737 45.2757895 13.2357895 46.7642105 14.7242105 34.2105263 27.2778947"></polyline>
                    <polyline id="Fill-21" points="14.2105263 47.2778947 12.7221053 45.7894737 25.2757895 33.2357895 26.7642105 34.7242105 14.2105263 47.2778947"></polyline>
                    <path d="M12.6315789,15.7894737 C10.8905263,15.7894737 9.47368421,14.3726316 9.47368421,12.6315789 C9.47368421,10.8905263 10.8905263,9.47368421 12.6315789,9.47368421 C14.3726316,9.47368421 15.7894737,10.8905263 15.7894737,12.6315789 C15.7894737,14.3726316 14.3726316,15.7894737 12.6315789,15.7894737 L12.6315789,15.7894737 L12.6315789,15.7894737 Z M12.6315789,11.5789474 C12.0515789,11.5789474 11.5789474,12.0515789 11.5789474,12.6315789 C11.5789474,13.2115789 12.0515789,13.6842105 12.6315789,13.6842105 C13.2115789,13.6842105 13.6842105,13.2115789 13.6842105,12.6315789 C13.6842105,12.0515789 13.2115789,11.5789474 12.6315789,11.5789474 L12.6315789,11.5789474 L12.6315789,11.5789474 Z" id="Fill-22"></path>
                    <path d="M47.3684211,50.5263158 C45.6273684,50.5263158 44.2105263,49.1094737 44.2105263,47.3684211 C44.2105263,45.6273684 45.6273684,44.2105263 47.3684211,44.2105263 C49.1094737,44.2105263 50.5263158,45.6273684 50.5263158,47.3684211 C50.5263158,49.1094737 49.1094737,50.5263158 47.3684211,50.5263158 L47.3684211,50.5263158 L47.3684211,50.5263158 Z M47.3684211,46.3157895 C46.7884211,46.3157895 46.3157895,46.7884211 46.3157895,47.3684211 C46.3157895,47.9484211 46.7884211,48.4210526 47.3684211,48.4210526 C47.9484211,48.4210526 48.4210526,47.9484211 48.4210526,47.3684211 C48.4210526,46.7884211 47.9484211,46.3157895 47.3684211,46.3157895 L47.3684211,46.3157895 L47.3684211,46.3157895 Z" id="Fill-23"></path>
                    <polyline id="Fill-24" points="25.7894737 27.2778947 13.2357895 14.7242105 14.7242105 13.2357895 27.2778947 25.7894737 25.7894737 27.2778947"></polyline>
                    <polyline id="Fill-25" points="45.7894737 47.2778947 32.1957895 33.6842105 33.6842105 32.1957895 47.2778947 45.7894737 45.7894737 47.2778947"></polyline>
                    <polygon id="Fill-26" points="6.31578947 28.4210526 24.7368421 28.4210526 24.7368421 30.5263158 6.31578947 30.5263158"></polygon>
                    <polygon id="Fill-27" points="34.2105263 28.4210526 52.6315789 28.4210526 52.6315789 30.5263158 34.2105263 30.5263158"></polygon>
                    <path d="M4.21052632,33.6842105 C1.88842105,33.6842105 0,31.7957895 0,29.4736842 C0,27.1515789 1.88842105,25.2631579 4.21052632,25.2631579 C6.53263158,25.2631579 8.42105263,27.1515789 8.42105263,29.4736842 C8.42105263,31.7957895 6.53263158,33.6842105 4.21052632,33.6842105 L4.21052632,33.6842105 L4.21052632,33.6842105 Z M4.21052632,27.3684211 C3.04947368,27.3684211 2.10526316,28.3126316 2.10526316,29.4736842 C2.10526316,30.6347368 3.04947368,31.5789474 4.21052632,31.5789474 C5.37157895,31.5789474 6.31578947,30.6347368 6.31578947,29.4736842 C6.31578947,28.3126316 5.37157895,27.3684211 4.21052632,27.3684211 L4.21052632,27.3684211 L4.21052632,27.3684211 Z" id="Fill-28"></path>
                    <path d="M55.7894737,33.6842105 C53.4673684,33.6842105 51.5789474,31.7957895 51.5789474,29.4736842 C51.5789474,27.1515789 53.4673684,25.2631579 55.7894737,25.2631579 C58.1115789,25.2631579 60,27.1515789 60,29.4736842 C60,31.7957895 58.1115789,33.6842105 55.7894737,33.6842105 L55.7894737,33.6842105 L55.7894737,33.6842105 Z M55.7894737,27.3684211 C54.6284211,27.3684211 53.6842105,28.3126316 53.6842105,29.4736842 C53.6842105,30.6347368 54.6284211,31.5789474 55.7894737,31.5789474 C56.9505263,31.5789474 57.8947368,30.6347368 57.8947368,29.4736842 C57.8947368,28.3126316 56.9505263,27.3684211 55.7894737,27.3684211 L55.7894737,27.3684211 L55.7894737,27.3684211 Z" id="Fill-29"></path>
                </g>
            </g>
        </g>
    </g>
</svg>