<?xml version="1.0" encoding="UTF-8" standalone="no"?>
<svg width="45px" height="60px" viewBox="0 0 45 60" version="1.1" xmlns="http://www.w3.org/2000/svg" xmlns:xlink="http://www.w3.org/1999/xlink">
    <!-- Generator: Sketch 39.1 (31720) - http://www.bohemiancoding.com/sketch -->
    <title>Page 1</title>
    <desc>Created with Sketch.</desc>
    <defs></defs>
    <g id="Page-1" stroke="none" stroke-width="1" fill="none" fill-rule="evenodd">
        <g id="Landing-page" transform="translate(-457.000000, -3568.000000)" fill="#9E0043">
            <g id="Icons-Red" transform="translate(107.000000, 3057.000000)">
                <path d="M385.625,556 L359.375,556 C358.338125,556 357.5,556.838125 357.5,557.875 C357.5,558.91 358.338125,559.75 359.375,559.75 L385.625,559.75 C386.661875,559.75 387.5,558.91 387.5,557.875 C387.5,556.838125 386.661875,556 385.625,556 L385.625,556 Z M385.625,548.5 L359.375,548.5 C358.338125,548.5 357.5,549.338125 357.5,550.375 C357.5,551.41 358.338125,552.25 359.375,552.25 L385.625,552.25 C386.661875,552.25 387.5,551.41 387.5,550.375 C387.5,549.338125 386.661875,548.5 385.625,548.5 L385.625,548.5 Z M385.625,541 L359.375,541 C358.338125,541 357.5,541.838125 357.5,542.875 C357.5,543.911875 358.338125,544.75 359.375,544.75 L385.625,544.75 C386.661875,544.75 387.5,543.911875 387.5,542.875 C387.5,541.838125 386.661875,541 385.625,541 L385.625,541 Z M385.625,533.5 L359.375,533.5 C358.338125,533.5 357.5,534.338125 357.5,535.375 C357.5,536.411875 358.338125,537.25 359.375,537.25 L385.625,537.25 C386.661875,537.25 387.5,536.411875 387.5,535.375 C387.5,534.338125 386.661875,533.5 385.625,533.5 L385.625,533.5 Z M359.375,529.75 L374.375,529.75 C375.411875,529.75 376.25,528.911875 376.25,527.875 C376.25,526.838125 375.411875,526 374.375,526 L359.375,526 C358.338125,526 357.5,526.838125 357.5,527.875 C357.5,528.911875 358.338125,529.75 359.375,529.75 L359.375,529.75 Z M391.25,529.75 L391.25,565.609375 C391.25,566.513125 390.618125,567.25 389.84375,567.25 L355.15625,567.25 C354.381875,567.25 353.75,566.513125 353.75,565.609375 L353.75,516.390625 C353.75,515.486875 354.381875,514.75 355.15625,514.75 L376.25,514.75 L378.59375,514.75 C379.368125,514.75 380,515.486875 380,516.390625 L380,518.5 L380,520.609375 C380,523.583125 382.311875,526 385.15625,526 L387.5,526 L389.84375,526 C390.618125,526 391.25,526.736875 391.25,527.640625 L391.25,529.75 Z M389.84375,522.25 L387.5,522.25 L385.15625,522.25 C384.381875,522.25 383.75,521.513125 383.75,520.609375 L383.75,518.5 L383.75,516.390625 C383.75,513.416875 381.438125,511 378.59375,511 L376.25,511 L355.15625,511 C352.311875,511 350,513.416875 350,516.390625 L350,565.609375 C350,568.58125 352.311875,571 355.15625,571 L389.84375,571 C392.688125,571 395,568.58125 395,565.609375 L395,529.75 L395,527.640625 C395,524.666875 392.688125,522.25 389.84375,522.25 L389.84375,522.25 Z" id="Page-1"></path>
            </g>
        </g>
    </g>
</svg>