<?xml version="1.0" encoding="UTF-8" standalone="no"?>
<svg width="40px" height="40px" viewBox="0 0 40 40" version="1.1" xmlns="http://www.w3.org/2000/svg" xmlns:xlink="http://www.w3.org/1999/xlink">
    <!-- Generator: Sketch 39.1 (31720) - http://www.bohemiancoding.com/sketch -->
    <title>Group 11</title>
    <desc>Created with Sketch.</desc>
    <defs>
        <circle id="path-1" cx="20" cy="20" r="20"></circle>
        <mask id="mask-2" maskContentUnits="userSpaceOnUse" maskUnits="objectBoundingBox" x="0" y="0" width="40" height="40" fill="white">
            <use xlink:href="#path-1"></use>
        </mask>
    </defs>
    <g id="Symbols" stroke="none" stroke-width="1" fill="none" fill-rule="evenodd">
        <g id="Footer" transform="translate(-587.000000, -540.000000)">
            <g id="Copyright-…" transform="translate(0.000000, 520.000000)">
                <g id="Group-5" transform="translate(60.000000, 20.000000)">
                    <g id="Group" transform="translate(467.000000, 0.000000)">
                        <g id="Group-11" transform="translate(60.000000, 0.000000)">
                            <path d="M21.3378898,10.0036141 C21.3378898,10.0036141 17.6398884,9.75583221 16.6918229,13.3635563 C16.6918229,13.3635563 16.3485151,14.3100257 16.3956455,16.6413847 L13,16.6514691 L13,19.7012954 L16.3956455,19.6912104 L16.3956455,30 L20.7240285,30 L20.7240285,19.7012946 L24.15693,19.7012954 L24.15693,16.6413849 L20.7240285,16.641385 L20.7240285,14.9794213 C20.7240285,13.9018581 21.3076271,12.8713538 23.0147403,12.8713538 L24.6266006,12.8713538 L24.6266006,10.0036141 L21.3378898,10.0036141 L21.3378898,10.0036141 Z" id="Shape" fill="#939DA7"></path>
                            <use id="Oval-Copy" stroke="#939DA7" mask="url(#mask-2)" stroke-width="2" xlink:href="#path-1"></use>
                        </g>
                    </g>
                </g>
            </g>
        </g>
    </g>
</svg>