<?xml version="1.0" encoding="UTF-8" standalone="no"?>
<svg width="295px" height="100px" viewBox="0 0 295 100" version="1.1" xmlns="http://www.w3.org/2000/svg" xmlns:xlink="http://www.w3.org/1999/xlink">
    <defs></defs>
    <g id="Page-1" stroke="none" stroke-width="1" fill="none" fill-rule="evenodd">
        <g id="facebook-messenger">
            <g id="Facebook-Messenger">
                <path d="M8.3220492,0 L286.677951,0 C291.273386,0 295,3.73166667 295,8.33333333 L295,91.6666667 C295,96.2683333 291.273386,100 286.677951,100 L8.3220492,100 C3.72661363,100 0,96.2683333 0,91.6666667 L0,8.33333333 C0,3.73166667 3.72661363,0 8.3220492,0 L8.3220492,0 Z" id="background" fill="#0084FF"></path>
                <path d="M86.9661458,22.5390625 L90.6770833,22.5390625 L96.171875,38.7109375 L101.627604,22.5390625 L105.299479,22.5390625 L105.299479,41.6666667 L102.838542,41.6666667 L102.838542,30.3776042 C102.838542,29.9869772 102.847222,29.3402823 102.864583,28.4375 C102.881945,27.5347177 102.890625,26.5668454 102.890625,25.5338542 L97.4348958,41.6666667 L94.8697917,41.6666667 L89.375,25.5338542 L89.375,26.1197917 C89.375,26.588544 89.3858506,27.3025126 89.4075521,28.2617188 C89.4292536,29.2209249 89.4401042,29.926213 89.4401042,30.3776042 L89.4401042,41.6666667 L86.9661458,41.6666667 L86.9661458,22.5390625 Z M117.617188,28.1054688 C118.546012,28.5698808 119.25347,29.1710033 119.739583,29.9088542 C120.208336,30.6119827 120.520833,31.432287 120.677083,32.3697917 C120.815973,33.012156 120.885417,34.0364513 120.885417,35.4427083 L110.664063,35.4427083 C110.707465,36.857646 111.041664,37.9926173 111.666667,38.8476562 C112.29167,39.7026952 113.259542,40.1302083 114.570313,40.1302083 C115.794277,40.1302083 116.77083,39.7265665 117.5,38.9192708 C117.916669,38.4505185 118.211805,37.9079892 118.385417,37.2916667 L120.690104,37.2916667 C120.62934,37.803822 120.427519,38.3745628 120.084635,39.0039062 C119.741752,39.6332497 119.357641,40.1475674 118.932292,40.546875 C118.220483,41.2413229 117.339415,41.7100682 116.289063,41.953125 C115.724824,42.0920146 115.086809,42.1614583 114.375,42.1614583 C112.63888,42.1614583 111.167541,41.5299542 109.960938,40.2669271 C108.754334,39.0038999 108.151042,37.2352544 108.151042,34.9609375 C108.151042,32.721343 108.758674,30.9027848 109.973958,29.5052083 C111.189242,28.1076319 112.777768,27.4088542 114.739583,27.4088542 C115.729172,27.4088542 116.688363,27.6410567 117.617188,28.1054688 L117.617188,28.1054688 Z M118.476563,33.5807292 C118.381076,32.5650991 118.159724,31.7534753 117.8125,31.1458333 C117.170136,30.0173555 116.098098,29.453125 114.596354,29.453125 C113.51996,29.453125 112.617191,29.841576 111.888021,30.6184896 C111.158851,31.3954032 110.77257,32.3828065 110.729167,33.5807292 L118.476563,33.5807292 Z M125.15625,37.2916667 C125.225695,38.0729206 125.421005,38.6718729 125.742188,39.0885417 C126.332468,39.8437538 127.356764,40.2213542 128.815104,40.2213542 C129.683164,40.2213542 130.447045,40.032554 131.106771,39.6549479 C131.766496,39.2773419 132.096354,38.6935803 132.096354,37.9036458 C132.096354,37.3046845 131.8316,36.8489599 131.302083,36.5364583 C130.96354,36.3454852 130.295144,36.1241332 129.296875,35.8723958 L127.434896,35.4036458 C126.245654,35.1085055 125.368926,34.7786477 124.804688,34.4140625 C123.797738,33.7803788 123.294271,32.9036514 123.294271,31.7838542 C123.294271,30.4644031 123.769526,29.3967055 124.720052,28.5807292 C125.670578,27.7647529 126.948777,27.3567708 128.554688,27.3567708 C130.655392,27.3567708 132.170134,27.9730841 133.098958,29.2057292 C133.680558,29.9869831 133.962674,30.8289885 133.945312,31.7317708 L131.731771,31.7317708 C131.688368,31.2022543 131.501738,30.7204883 131.171875,30.2864583 C130.633678,29.6701358 129.700527,29.3619792 128.372396,29.3619792 C127.486975,29.3619792 126.816409,29.5312483 126.360677,29.8697917 C125.904946,30.208335 125.677083,30.6553792 125.677083,31.2109375 C125.677083,31.8185794 125.97656,32.3046857 126.575521,32.6692708 C126.922745,32.8862858 127.434892,33.0772561 128.111979,33.2421875 L129.661458,33.6197917 C131.345495,34.0277798 132.473955,34.4227411 133.046875,34.8046875 C133.958338,35.4036488 134.414062,36.3454797 134.414062,37.6302083 C134.414062,38.871534 133.943147,39.9435719 133.001302,40.8463542 C132.059457,41.7491365 130.62501,42.2005208 128.697917,42.2005208 C126.623254,42.2005208 125.154084,41.7296054 124.290365,40.7877604 C123.426645,39.8459154 122.96441,38.6805625 122.903646,37.2916667 L125.15625,37.2916667 Z M138.489583,37.2916667 C138.559028,38.0729206 138.754339,38.6718729 139.075521,39.0885417 C139.665802,39.8437538 140.690097,40.2213542 142.148438,40.2213542 C143.016497,40.2213542 143.780379,40.032554 144.440104,39.6549479 C145.09983,39.2773419 145.429688,38.6935803 145.429688,37.9036458 C145.429688,37.3046845 145.164933,36.8489599 144.635417,36.5364583 C144.296873,36.3454852 143.628477,36.1241332 142.630208,35.8723958 L140.768229,35.4036458 C139.578987,35.1085055 138.70226,34.7786477 138.138021,34.4140625 C137.131071,33.7803788 136.627604,32.9036514 136.627604,31.7838542 C136.627604,30.4644031 137.10286,29.3967055 138.053385,28.5807292 C139.003911,27.7647529 140.28211,27.3567708 141.888021,27.3567708 C143.988726,27.3567708 145.503468,27.9730841 146.432292,29.2057292 C147.013892,29.9869831 147.296007,30.8289885 147.278646,31.7317708 L145.065104,31.7317708 C145.021701,31.2022543 144.835071,30.7204883 144.505208,30.2864583 C143.967011,29.6701358 143.033861,29.3619792 141.705729,29.3619792 C140.820308,29.3619792 140.149742,29.5312483 139.69401,29.8697917 C139.238279,30.208335 139.010417,30.6553792 139.010417,31.2109375 C139.010417,31.8185794 139.309893,32.3046857 139.908854,32.6692708 C140.256078,32.8862858 140.768226,33.0772561 141.445312,33.2421875 L142.994792,33.6197917 C144.678828,34.0277798 145.807289,34.4227411 146.380208,34.8046875 C147.291671,35.4036488 147.747396,36.3454797 147.747396,37.6302083 C147.747396,38.871534 147.27648,39.9435719 146.334635,40.8463542 C145.39279,41.7491365 143.958343,42.2005208 142.03125,42.2005208 C139.956587,42.2005208 138.487418,41.7296054 137.623698,40.7877604 C136.759978,39.8459154 136.297743,38.6805625 136.236979,37.2916667 L138.489583,37.2916667 Z M152.96875,39.5572917 C153.463544,39.9479186 154.049476,40.1432292 154.726563,40.1432292 C155.551219,40.1432292 156.349823,39.9522589 157.122396,39.5703125 C158.424486,38.9366288 159.075521,37.8993128 159.075521,36.4583333 L159.075521,34.5703125 C158.789061,34.7526051 158.420141,34.9045133 157.96875,35.0260417 C157.517359,35.1475701 157.074655,35.2343747 156.640625,35.2864583 L155.221354,35.46875 C154.370655,35.5815978 153.732641,35.7595474 153.307292,36.0026042 C152.586802,36.4105923 152.226563,37.0616275 152.226563,37.9557292 C152.226563,38.6328159 152.473956,39.1666647 152.96875,39.5572917 L152.96875,39.5572917 Z M157.903646,33.2161458 C158.441843,33.146701 158.802082,32.9210089 158.984375,32.5390625 C159.088542,32.3307281 159.140625,32.031252 159.140625,31.640625 C159.140625,30.8420099 158.85634,30.2625886 158.28776,29.9023438 C157.719181,29.5420989 156.905387,29.3619792 155.846354,29.3619792 C154.62239,29.3619792 153.754343,29.691837 153.242188,30.3515625 C152.955728,30.7161477 152.769098,31.258677 152.682292,31.9791667 L150.494792,31.9791667 C150.538195,30.2604081 151.095915,29.0646735 152.167969,28.3919271 C153.240023,27.7191807 154.4835,27.3828125 155.898438,27.3828125 C157.539071,27.3828125 158.871523,27.6953094 159.895833,28.3203125 C160.911463,28.9453156 161.419271,29.9175281 161.419271,31.2369792 L161.419271,39.2708333 C161.419271,39.5138901 161.469184,39.7092007 161.56901,39.8567708 C161.668837,40.004341 161.879339,40.078125 162.200521,40.078125 C162.304688,40.078125 162.421874,40.0716146 162.552083,40.0585938 C162.682292,40.0455729 162.82118,40.0260418 162.96875,40 L162.96875,41.7317708 C162.604165,41.835938 162.32639,41.9010415 162.135417,41.9270833 C161.944443,41.9531251 161.684029,41.9661458 161.354167,41.9661458 C160.546871,41.9661458 159.960939,41.6796904 159.596354,41.1067708 C159.405381,40.8029499 159.270834,40.3732667 159.192708,39.8177083 C158.715275,40.4427115 158.029518,40.9852408 157.135417,41.4453125 C156.241315,41.9053842 155.256082,42.1354167 154.179688,42.1354167 C152.886278,42.1354167 151.829431,41.7426255 151.009115,40.9570312 C150.188798,40.171437 149.778646,39.188374 149.778646,38.0078125 C149.778646,36.7144033 150.182288,35.7118091 150.989583,35 C151.796879,34.2881909 152.855896,33.8498272 154.166667,33.6848958 L157.903646,33.2161458 Z M173.046875,28.28125 C173.489586,28.585071 173.94097,29.0277749 174.401042,29.609375 L174.401042,27.8515625 L176.5625,27.8515625 L176.5625,40.5338542 C176.5625,42.3046964 176.302086,43.7022518 175.78125,44.7265625 C174.809023,46.6189331 172.973104,47.5651042 170.273438,47.5651042 C168.771694,47.5651042 167.508686,47.228736 166.484375,46.5559896 C165.460064,45.8832432 164.887153,44.8307363 164.765625,43.3984375 L167.148438,43.3984375 C167.261285,44.0234406 167.486977,44.5052066 167.825521,44.84375 C168.355037,45.3645859 169.188362,45.625 170.325521,45.625 C172.122405,45.625 173.298608,44.9913258 173.854167,43.7239583 C174.184029,42.9774268 174.335938,41.6449749 174.309896,39.7265625 C173.841143,40.4383716 173.276913,40.9678802 172.617188,41.3151042 C171.957462,41.6623281 171.085075,41.8359375 170,41.8359375 C168.489576,41.8359375 167.167974,41.2999186 166.035156,40.2278646 C164.902338,39.1558106 164.335938,37.3828249 164.335938,34.9088542 C164.335938,32.573773 164.906678,30.7508746 166.048177,29.4401042 C167.189676,28.1293337 168.5677,27.4739583 170.182292,27.4739583 C171.276047,27.4739583 172.230899,27.7430529 173.046875,28.28125 L173.046875,28.28125 Z M173.333333,30.7942708 C172.621524,29.9609333 171.714415,29.5442708 170.611979,29.5442708 C168.962665,29.5442708 167.834204,30.3168326 167.226562,31.8619792 C166.90538,32.6866361 166.744792,33.7673544 166.744792,35.1041667 C166.744792,36.6753551 167.063799,37.8710896 167.701823,38.6914062 C168.339847,39.5117229 169.197043,39.921875 170.273438,39.921875 C171.957474,39.921875 173.142358,39.162334 173.828125,37.6432292 C174.210071,36.7838499 174.401042,35.7812557 174.401042,34.6354167 C174.401042,32.9079775 174.045142,31.6276083 173.333333,30.7942708 L173.333333,30.7942708 Z M188.776042,28.1054688 C189.704866,28.5698808 190.412324,29.1710033 190.898438,29.9088542 C191.36719,30.6119827 191.679687,31.432287 191.835938,32.3697917 C191.974827,33.012156 192.044271,34.0364513 192.044271,35.4427083 L181.822917,35.4427083 C181.86632,36.857646 182.200518,37.9926173 182.825521,38.8476562 C183.450524,39.7026952 184.418396,40.1302083 185.729167,40.1302083 C186.953131,40.1302083 187.929684,39.7265665 188.658854,38.9192708 C189.075523,38.4505185 189.370659,37.9079892 189.544271,37.2916667 L191.848958,37.2916667 C191.788194,37.803822 191.586373,38.3745628 191.24349,39.0039062 C190.900606,39.6332497 190.516495,40.1475674 190.091146,40.546875 C189.379337,41.2413229 188.498269,41.7100682 187.447917,41.953125 C186.883678,42.0920146 186.245663,42.1614583 185.533854,42.1614583 C183.797734,42.1614583 182.326395,41.5299542 181.119792,40.2669271 C179.913188,39.0038999 179.309896,37.2352544 179.309896,34.9609375 C179.309896,32.721343 179.917529,30.9027848 181.132812,29.5052083 C182.348096,28.1076319 183.936622,27.4088542 185.898438,27.4088542 C186.888026,27.4088542 187.847218,27.6410567 188.776042,28.1054688 L188.776042,28.1054688 Z M189.635417,33.5807292 C189.53993,32.5650991 189.318578,31.7534753 188.971354,31.1458333 C188.32899,30.0173555 187.256952,29.453125 185.755208,29.453125 C184.678814,29.453125 183.776045,29.841576 183.046875,30.6184896 C182.317705,31.3954032 181.931424,32.3828065 181.888021,33.5807292 L189.635417,33.5807292 Z M204.674479,27.7213542 L204.674479,36.9791667 C204.674479,37.6909758 204.787325,38.2725672 205.013021,38.7239583 C205.42969,39.5572958 206.206592,39.9739583 207.34375,39.9739583 C208.975703,39.9739583 210.086803,39.244799 210.677083,37.7864583 C210.998265,37.0052044 211.158854,35.9331665 211.158854,34.5703125 L211.158854,27.7213542 L213.502604,27.7213542 L213.502604,41.6666667 L211.289062,41.6666667 L211.315104,39.609375 C211.011283,40.1388915 210.633683,40.5859357 210.182292,40.9505208 C209.28819,41.6796911 208.203131,42.0442708 206.927083,42.0442708 C204.939226,42.0442708 203.585073,41.380215 202.864583,40.0520833 C202.473956,39.3402742 202.278646,38.3897629 202.278646,37.2005208 L202.278646,27.7213542 L204.674479,27.7213542 Z M218.554688,37.2916667 C218.624132,38.0729206 218.819443,38.6718729 219.140625,39.0885417 C219.730906,39.8437538 220.755201,40.2213542 222.213542,40.2213542 C223.081602,40.2213542 223.845483,40.032554 224.505208,39.6549479 C225.164934,39.2773419 225.494792,38.6935803 225.494792,37.9036458 C225.494792,37.3046845 225.230037,36.8489599 224.700521,36.5364583 C224.361977,36.3454852 223.693581,36.1241332 222.695313,35.8723958 L220.833333,35.4036458 C219.644091,35.1085055 218.767364,34.7786477 218.203125,34.4140625 C217.196176,33.7803788 216.692708,32.9036514 216.692708,31.7838542 C216.692708,30.4644031 217.167964,29.3967055 218.11849,28.5807292 C219.069015,27.7647529 220.347214,27.3567708 221.953125,27.3567708 C224.05383,27.3567708 225.568572,27.9730841 226.497396,29.2057292 C227.078996,29.9869831 227.361111,30.8289885 227.34375,31.7317708 L225.130208,31.7317708 C225.086805,31.2022543 224.900175,30.7204883 224.570313,30.2864583 C224.032115,29.6701358 223.098965,29.3619792 221.770833,29.3619792 C220.885412,29.3619792 220.214846,29.5312483 219.759115,29.8697917 C219.303383,30.208335 219.075521,30.6553792 219.075521,31.2109375 C219.075521,31.8185794 219.374997,32.3046857 219.973958,32.6692708 C220.321182,32.8862858 220.83333,33.0772561 221.510417,33.2421875 L223.059896,33.6197917 C224.743932,34.0277798 225.872393,34.4227411 226.445313,34.8046875 C227.356775,35.4036488 227.8125,36.3454797 227.8125,37.6302083 C227.8125,38.871534 227.341585,39.9435719 226.39974,40.8463542 C225.457895,41.7491365 224.023447,42.2005208 222.096354,42.2005208 C220.021691,42.2005208 218.552522,41.7296054 217.688802,40.7877604 C216.825082,39.8459154 216.362848,38.6805625 216.302083,37.2916667 L218.554688,37.2916667 Z" id="Message-us" fill="#FFFFFF"></path>
                <path d="M95.4492188,75.0585938 C96.0264786,73.8823726 96.3151042,72.5737919 96.3151042,71.1328125 C96.3151042,69.8307227 96.1067729,68.7717055 95.6901042,67.9557292 C95.0303786,66.6710005 93.8932372,66.0286458 92.2786458,66.0286458 C90.846347,66.0286458 89.8046908,66.5755154 89.1536458,67.6692708 C88.5026009,68.7630263 88.1770833,70.0824576 88.1770833,71.6276042 C88.1770833,73.1119866 88.5026009,74.3489534 89.1536458,75.3385417 C89.8046908,76.3281299 90.8376665,76.8229167 92.2526042,76.8229167 C93.8064314,76.8229167 94.8719589,76.2348149 95.4492188,75.0585938 L95.4492188,75.0585938 Z M96.9010417,65.78125 C98.1423673,66.9791727 98.7630208,68.7413078 98.7630208,71.0677083 C98.7630208,73.3159835 98.2161513,75.1736038 97.1223958,76.640625 C96.0286404,78.1076462 94.3316087,78.8411458 92.03125,78.8411458 C90.1128376,78.8411458 88.5894154,78.1922808 87.4609375,76.8945312 C86.3324596,75.5967817 85.7682292,73.8541776 85.7682292,71.6666667 C85.7682292,69.3229049 86.3628413,67.4566042 87.5520833,66.0677083 C88.7413254,64.6788125 90.3385316,63.984375 92.34375,63.984375 C94.140634,63.984375 95.659716,64.5833273 96.9010417,65.78125 L96.9010417,65.78125 Z M101.549479,64.3880208 L103.776042,64.3880208 L103.776042,66.3671875 C104.435767,65.5512112 105.134545,64.9652796 105.872396,64.609375 C106.610247,64.2534704 107.430551,64.0755208 108.333333,64.0755208 C110.31251,64.0755208 111.649302,64.7656181 112.34375,66.1458333 C112.725696,66.9010454 112.916667,67.9817638 112.916667,69.3880208 L112.916667,78.3333333 L110.533854,78.3333333 L110.533854,69.5442708 C110.533854,68.6935721 110.407987,68.0078151 110.15625,67.4869792 C109.739581,66.6189193 108.98438,66.1848958 107.890625,66.1848958 C107.335067,66.1848958 106.879342,66.2413189 106.523438,66.3541667 C105.881073,66.5451398 105.316843,66.9270805 104.830729,67.5 C104.440102,67.9600717 104.186199,68.4353274 104.06901,68.9257812 C103.951822,69.4162351 103.893229,70.1171829 103.893229,71.0286458 L103.893229,78.3333333 L101.549479,78.3333333 L101.549479,64.3880208 Z M124.348958,59.2057292 L137.617188,59.2057292 L137.617188,61.5494792 L126.940104,61.5494792 L126.940104,67.3567708 L136.328125,67.3567708 L136.328125,69.6354167 L126.940104,69.6354167 L126.940104,78.3333333 L124.348958,78.3333333 L124.348958,59.2057292 Z M142.617188,76.2239583 C143.111982,76.6145853 143.697913,76.8098958 144.375,76.8098958 C145.199657,76.8098958 145.99826,76.6189255 146.770833,76.2369792 C148.072923,75.6032954 148.723958,74.5659794 148.723958,73.125 L148.723958,71.2369792 C148.437499,71.4192717 148.068579,71.5711799 147.617188,71.6927083 C147.165796,71.8142367 146.723092,71.9010414 146.289062,71.953125 L144.869792,72.1354167 C144.019093,72.2482645 143.381079,72.4262141 142.955729,72.6692708 C142.235239,73.077259 141.875,73.7282941 141.875,74.6223958 C141.875,75.2994826 142.122393,75.8333314 142.617188,76.2239583 L142.617188,76.2239583 Z M147.552083,69.8828125 C148.09028,69.8133677 148.45052,69.5876755 148.632812,69.2057292 C148.73698,68.9973948 148.789062,68.6979186 148.789062,68.3072917 C148.789062,67.5086766 148.504777,66.9292553 147.936198,66.5690104 C147.367619,66.2087656 146.553825,66.0286458 145.494792,66.0286458 C144.270827,66.0286458 143.40278,66.3585036 142.890625,67.0182292 C142.604165,67.3828143 142.417535,67.9253436 142.330729,68.6458333 L140.143229,68.6458333 C140.186632,66.9270747 140.744352,65.7313402 141.816406,65.0585938 C142.88846,64.3858473 144.131937,64.0494792 145.546875,64.0494792 C147.187508,64.0494792 148.51996,64.361976 149.544271,64.9869792 C150.559901,65.6119823 151.067708,66.5841948 151.067708,67.9036458 L151.067708,75.9375 C151.067708,76.1805568 151.117621,76.3758673 151.217448,76.5234375 C151.317275,76.6710077 151.527776,76.7447917 151.848958,76.7447917 C151.953126,76.7447917 152.070312,76.7382813 152.200521,76.7252604 C152.33073,76.7122395 152.469617,76.6927085 152.617188,76.6666667 L152.617188,78.3984375 C152.252602,78.5026047 151.974827,78.5677082 151.783854,78.59375 C151.592881,78.6197918 151.332467,78.6328125 151.002604,78.6328125 C150.195308,78.6328125 149.609377,78.346357 149.244792,77.7734375 C149.053818,77.4696165 148.919271,77.0399333 148.841146,76.484375 C148.363713,77.1093781 147.677956,77.6519074 146.783854,78.1119792 C145.889752,78.5720509 144.904519,78.8020833 143.828125,78.8020833 C142.534716,78.8020833 141.477869,78.4092921 140.657552,77.6236979 C139.837235,76.8381037 139.427083,75.8550406 139.427083,74.6744792 C139.427083,73.3810699 139.830725,72.3784758 140.638021,71.6666667 C141.445317,70.9548576 142.504334,70.5164939 143.815104,70.3515625 L147.552083,69.8828125 Z M164.121094,65.1302083 C165.106342,65.894101 165.698784,67.2091921 165.898438,69.0755208 L163.619792,69.0755208 C163.480902,68.2161415 163.164065,67.502173 162.669271,66.9335938 C162.174477,66.3650145 161.380214,66.0807292 160.286458,66.0807292 C158.793395,66.0807292 157.725698,66.8098885 157.083333,68.2682292 C156.666665,69.2144145 156.458333,70.3819375 156.458333,71.7708333 C156.458333,73.1684098 156.753469,74.3446133 157.34375,75.2994792 C157.934031,76.2543451 158.862841,76.7317708 160.130208,76.7317708 C161.102435,76.7317708 161.872827,76.4344648 162.441406,75.8398438 C163.009985,75.2452227 163.402777,74.4314288 163.619792,73.3984375 L165.898438,73.3984375 C165.63802,75.2474051 164.986984,76.5993881 163.945312,77.4544271 C162.903641,78.3094661 161.571189,78.7369792 159.947917,78.7369792 C158.124991,78.7369792 156.671012,78.0707532 155.585938,76.7382812 C154.500863,75.4058093 153.958333,73.7413294 153.958333,71.7447917 C153.958333,69.2968628 154.552945,67.3914999 155.742188,66.0286458 C156.93143,64.6657918 158.446171,63.984375 160.286458,63.984375 C161.857647,63.984375 163.135846,64.3663156 164.121094,65.1302083 L164.121094,65.1302083 Z M176.927083,64.7721354 C177.855907,65.2365475 178.563366,65.8376699 179.049479,66.5755208 C179.518232,67.2786493 179.830728,68.0989536 179.986979,69.0364583 C180.125869,69.6788227 180.195312,70.703118 180.195312,72.109375 L169.973958,72.109375 C170.017361,73.5243126 170.351559,74.6592839 170.976562,75.5143229 C171.601566,76.3693619 172.569438,76.796875 173.880208,76.796875 C175.104173,76.796875 176.080726,76.3932332 176.809896,75.5859375 C177.226565,75.1171852 177.521701,74.5746559 177.695312,73.9583333 L180,73.9583333 C179.939236,74.4704887 179.737415,75.0412295 179.394531,75.6705729 C179.051648,76.2999163 178.667537,76.8142341 178.242188,77.2135417 C177.530378,77.9079896 176.649311,78.3767349 175.598958,78.6197917 C175.034719,78.7586813 174.396705,78.828125 173.684896,78.828125 C171.948776,78.828125 170.477437,78.1966209 169.270833,76.9335938 C168.06423,75.6705666 167.460938,73.9019211 167.460938,71.6276042 C167.460938,69.3880096 168.06857,67.5694514 169.283854,66.171875 C170.499138,64.7742986 172.087664,64.0755208 174.049479,64.0755208 C175.039067,64.0755208 175.998259,64.3077234 176.927083,64.7721354 L176.927083,64.7721354 Z M177.786458,70.2473958 C177.690972,69.2317658 177.46962,68.4201419 177.122396,67.8125 C176.480032,66.6840221 175.407994,66.1197917 173.90625,66.1197917 C172.829856,66.1197917 171.927087,66.5082426 171.197917,67.2851562 C170.468746,68.0620699 170.082465,69.0494732 170.039062,70.2473958 L177.786458,70.2473958 Z M182.890625,59.140625 L185.169271,59.140625 L185.169271,66.0807292 C185.681426,65.412323 186.293399,64.9023455 187.005208,64.5507812 C187.717017,64.199217 188.489579,64.0234375 189.322917,64.0234375 C191.059036,64.0234375 192.467443,64.6202197 193.548177,65.8138021 C194.628912,67.0073844 195.169271,68.7673495 195.169271,71.09375 C195.169271,73.2986221 194.635422,75.130201 193.567708,76.5885417 C192.499995,78.0468823 191.019975,78.7760417 189.127604,78.7760417 C188.068571,78.7760417 187.174483,78.5199678 186.445312,78.0078125 C186.011283,77.7039915 185.546877,77.2178853 185.052083,76.5494792 L185.052083,78.3333333 L182.890625,78.3333333 L182.890625,59.140625 Z M191.829427,75.1953125 C192.458771,74.188363 192.773438,72.8602513 192.773438,71.2109375 C192.773438,69.7439163 192.458771,68.5286507 191.829427,67.5651042 C191.200084,66.6015577 190.273444,66.1197917 189.049479,66.1197917 C187.981765,66.1197917 187.046445,66.514753 186.24349,67.3046875 C185.440534,68.094622 185.039062,69.3966923 185.039062,71.2109375 C185.039062,72.5217079 185.203991,73.5850654 185.533854,74.4010417 C186.150177,75.9375077 187.300339,76.7057292 188.984375,76.7057292 C190.251742,76.7057292 191.200084,76.202262 191.829427,75.1953125 L191.829427,75.1953125 Z M206.634115,75.0585938 C207.211374,73.8823726 207.5,72.5737919 207.5,71.1328125 C207.5,69.8307227 207.291669,68.7717055 206.875,67.9557292 C206.215274,66.6710005 205.078133,66.0286458 203.463542,66.0286458 C202.031243,66.0286458 200.989587,66.5755154 200.338542,67.6692708 C199.687497,68.7630263 199.361979,70.0824576 199.361979,71.6276042 C199.361979,73.1119866 199.687497,74.3489534 200.338542,75.3385417 C200.989587,76.3281299 202.022562,76.8229167 203.4375,76.8229167 C204.991327,76.8229167 206.056855,76.2348149 206.634115,75.0585938 L206.634115,75.0585938 Z M208.085938,65.78125 C209.327263,66.9791727 209.947917,68.7413078 209.947917,71.0677083 C209.947917,73.3159835 209.401047,75.1736038 208.307292,76.640625 C207.213536,78.1076462 205.516505,78.8411458 203.216146,78.8411458 C201.297733,78.8411458 199.774311,78.1922808 198.645833,76.8945312 C197.517355,75.5967817 196.953125,73.8541776 196.953125,71.6666667 C196.953125,69.3229049 197.547737,67.4566042 198.736979,66.0677083 C199.926221,64.6788125 201.523427,63.984375 203.528646,63.984375 C205.32553,63.984375 206.844612,64.5833273 208.085938,65.78125 L208.085938,65.78125 Z M221.464844,75.0585938 C222.042104,73.8823726 222.330729,72.5737919 222.330729,71.1328125 C222.330729,69.8307227 222.122398,68.7717055 221.705729,67.9557292 C221.046004,66.6710005 219.908862,66.0286458 218.294271,66.0286458 C216.861972,66.0286458 215.820316,66.5755154 215.169271,67.6692708 C214.518226,68.7630263 214.192708,70.0824576 214.192708,71.6276042 C214.192708,73.1119866 214.518226,74.3489534 215.169271,75.3385417 C215.820316,76.3281299 216.853292,76.8229167 218.268229,76.8229167 C219.822056,76.8229167 220.887584,76.2348149 221.464844,75.0585938 L221.464844,75.0585938 Z M222.916667,65.78125 C224.157992,66.9791727 224.778646,68.7413078 224.778646,71.0677083 C224.778646,73.3159835 224.231776,75.1736038 223.138021,76.640625 C222.044265,78.1076462 220.347234,78.8411458 218.046875,78.8411458 C216.128463,78.8411458 214.60504,78.1922808 213.476562,76.8945312 C212.348085,75.5967817 211.783854,73.8541776 211.783854,71.6666667 C211.783854,69.3229049 212.378466,67.4566042 213.567708,66.0677083 C214.75695,64.6788125 216.354157,63.984375 218.359375,63.984375 C220.156259,63.984375 221.675341,64.5833273 222.916667,65.78125 L222.916667,65.78125 Z M227.513021,59.2057292 L229.765625,59.2057292 L229.765625,70.3125 L235.78125,64.3880208 L238.776042,64.3880208 L233.4375,69.609375 L239.075521,78.3333333 L236.080729,78.3333333 L231.731771,71.3020833 L229.765625,73.0989583 L229.765625,78.3333333 L227.513021,78.3333333 L227.513021,59.2057292 Z" id="on-Facebook" fill="#FFFFFF"></path>
                <path d="M44.6666667,26.6666667 C31.78,26.6666667 21.3333333,36.34 21.3333333,48.2716667 C21.3333333,55.07 24.7266667,61.135 30.0283333,65.095 L30.0283333,73.3333333 L37.9733333,68.9733333 C40.0933333,69.56 42.34,69.8766667 44.6666667,69.8766667 C57.5533333,69.8766667 68,60.2033333 68,48.2716667 C68,36.34 57.5533333,26.6666667 44.6666667,26.6666667 L44.6666667,26.6666667 L44.6666667,26.6666667 Z M47.0883333,56 L41.0716667,49.7583333 L29.3333333,56 L42.245,42.6666667 L48.4083333,48.9083333 L60,42.6666667 L47.0883333,56 L47.0883333,56 L47.0883333,56 Z" id="Shape" fill="#FFFFFF"></path>
            </g>
        </g>
    </g>
</svg>