<?xml version="1.0" encoding="UTF-8" standalone="no"?>
<svg width="295px" height="100px" viewBox="0 0 295 100" version="1.1" xmlns="http://www.w3.org/2000/svg" xmlns:xlink="http://www.w3.org/1999/xlink">
    <defs>
        <path d="M0,4.99322906 C0,2.2355448 2.24676836,4.01702251e-15 4.99649982,3.97821553e-15 L290.0035,-4.40895587e-17 C292.762991,-8.30342628e-17 295,2.22884957 295,4.99322906 L295,95.0067709 C295,97.7644552 292.753232,100 290.0035,100 L4.99649982,100 C2.23700917,100 0,97.7711504 0,95.0067709 L0,4.99322906 Z" id="path-1"></path>
        <filter x="-50%" y="-50%" width="200%" height="200%" filterUnits="objectBoundingBox" id="filter-2">
            <feOffset dx="0" dy="1" in="SourceAlpha" result="shadowOffsetOuter1"></feOffset>
            <feGaussianBlur stdDeviation="1.5" in="shadowOffsetOuter1" result="shadowBlurOuter1"></feGaussianBlur>
            <feComposite in="shadowBlurOuter1" in2="SourceAlpha" operator="out" result="shadowBlurOuter1"></feComposite>
            <feColorMatrix values="0 0 0 0 0   0 0 0 0 0   0 0 0 0 0  0 0 0 0.25 0" type="matrix" in="shadowBlurOuter1"></feColorMatrix>
        </filter>
        <mask id="mask-3" maskContentUnits="userSpaceOnUse" maskUnits="objectBoundingBox" x="0" y="0" width="295" height="100" fill="white">
            <use xlink:href="#path-1"></use>
        </mask>
        <linearGradient x1="35.6862704%" y1="20.3813758%" x2="75.9451684%" y2="76.614118%" id="linearGradient-4">
            <stop stop-color="#000000" offset="0%"></stop>
            <stop stop-color="#000000" stop-opacity="0" offset="100%"></stop>
        </linearGradient>
        <linearGradient x1="0%" y1="36.6965452%" x2="72.5044359%" y2="103.452091%" id="linearGradient-5">
            <stop stop-color="#000000" stop-opacity="0.2" offset="0%"></stop>
            <stop stop-color="#000000" stop-opacity="0" offset="100%"></stop>
        </linearGradient>
        <linearGradient x1="35.6862704%" y1="20.3813758%" x2="94.3687989%" y2="100%" id="linearGradient-6">
            <stop stop-color="#000000" offset="0%"></stop>
            <stop stop-color="#000000" stop-opacity="0" offset="100%"></stop>
        </linearGradient>
    </defs>
    <g id="Page-1" stroke="none" stroke-width="1" fill="none" fill-rule="evenodd">
        <g id="gaius-chat">
            <g id="Gaius">
                <g id="Button/Red-Copy">
                    <g id="Rectangle">
                        <use fill="black" fill-opacity="1" filter="url(#filter-2)" xlink:href="#path-1"></use>
                        <use stroke="#939DA7" mask="url(#mask-3)" stroke-width="2" fill="#FFFFFF" fill-rule="evenodd" xlink:href="#path-1"></use>
                    </g>
                    <path d="M116.966146,31.3411458 L123.971354,31.3411458 L123.971354,40.8984375 C122.825515,41.2717033 121.725266,41.5364576 120.670573,41.6927083 C119.61588,41.8489591 118.476569,41.9270833 117.252604,41.9270833 C114.370645,41.9270833 112.148445,41.0742273 110.585937,39.3684896 C109.02343,37.6627519 108.242187,35.2560919 108.242187,32.1484375 C108.242187,29.0841861 109.123255,26.6862066 110.885417,24.9544271 C112.647578,23.2226476 115.073769,22.3567708 118.164062,22.3567708 C120.15192,22.3567708 122.035581,22.7387115 123.815104,23.5026042 L122.721354,26.09375 C121.176208,25.3819409 119.631084,25.0260417 118.085937,25.0260417 C116.054677,25.0260417 114.448791,25.6640561 113.268229,26.9401042 C112.087668,28.2161522 111.497396,29.9609264 111.497396,32.1744792 C111.497396,34.5008797 112.029075,36.2695252 113.092448,37.4804688 C114.155821,38.6914123 115.685754,39.296875 117.682292,39.296875 C118.689241,39.296875 119.765619,39.1710082 120.911458,38.9192708 L120.911458,34.0104167 L116.966146,34.0104167 L116.966146,31.3411458 Z M137.226562,41.6666667 L136.614583,39.6614583 L136.510417,39.6614583 C135.815969,40.5381988 135.117191,41.1349811 134.414062,41.4518229 C133.710934,41.7686648 132.808165,41.9270833 131.705729,41.9270833 C130.290792,41.9270833 129.186202,41.5451427 128.391927,40.78125 C127.597652,40.0173573 127.200521,38.9366389 127.200521,37.5390625 C127.200521,36.0546801 127.751731,34.9348996 128.854167,34.1796875 C129.956603,33.4244754 131.636273,33.0121531 133.893229,32.9427083 L136.380208,32.8645833 L136.380208,32.0963542 C136.380208,31.1762107 136.165367,30.4882835 135.735677,30.0325521 C135.305987,29.5768206 134.639761,29.3489583 133.736979,29.3489583 C132.999128,29.3489583 132.29167,29.4574642 131.614583,29.6744792 C130.937497,29.8914941 130.286461,30.147568 129.661458,30.4427083 L128.671875,28.2552083 C129.453129,27.8472202 130.308155,27.5368934 131.236979,27.3242188 C132.165803,27.1115441 133.042531,27.0052083 133.867187,27.0052083 C135.698794,27.0052083 137.081159,27.4045099 138.014323,28.203125 C138.947487,29.0017401 139.414062,30.2560678 139.414062,31.9661458 L139.414062,41.6666667 L137.226562,41.6666667 Z M132.669271,39.5833333 C133.780387,39.5833333 134.672306,39.2730066 135.345052,38.6523438 C136.017799,38.0316809 136.354167,37.1614639 136.354167,36.0416667 L136.354167,34.7916667 L134.505208,34.8697917 C133.064229,34.9218753 132.016062,35.1627583 131.360677,35.5924479 C130.705292,36.0221376 130.377604,36.6796831 130.377604,37.5651042 C130.377604,38.2074685 130.568574,38.7044253 130.950521,39.0559896 C131.332467,39.4075538 131.905378,39.5833333 132.669271,39.5833333 L132.669271,39.5833333 Z M146.744792,41.6666667 L143.684896,41.6666667 L143.684896,27.265625 L146.744792,27.265625 L146.744792,41.6666667 Z M143.502604,23.4505208 C143.502604,22.9036431 143.652342,22.4826404 143.951823,22.1875 C144.251304,21.8923596 144.678817,21.7447917 145.234375,21.7447917 C145.772572,21.7447917 146.191405,21.8923596 146.490885,22.1875 C146.790366,22.4826404 146.940104,22.9036431 146.940104,23.4505208 C146.940104,23.9713568 146.790366,24.3815089 146.490885,24.6809896 C146.191405,24.9804702 145.772572,25.1302083 145.234375,25.1302083 C144.678817,25.1302083 144.251304,24.9804702 143.951823,24.6809896 C143.652342,24.3815089 143.502604,23.9713568 143.502604,23.4505208 L143.502604,23.4505208 Z M161.276042,41.6666667 L160.846354,39.7786458 L160.690104,39.7786458 C160.264755,40.447052 159.659292,40.9722203 158.873698,41.3541667 C158.088104,41.736113 157.191845,41.9270833 156.184896,41.9270833 C154.440095,41.9270833 153.138025,41.4930599 152.278646,40.625 C151.419267,39.7569401 150.989583,38.4418491 150.989583,36.6796875 L150.989583,27.265625 L154.075521,27.265625 L154.075521,36.1458333 C154.075521,37.2482694 154.301213,38.075084 154.752604,38.6263021 C155.203995,39.1775201 155.911454,39.453125 156.875,39.453125 C158.159729,39.453125 159.10373,39.0690143 159.707031,38.3007813 C160.310333,37.5325482 160.611979,36.2456688 160.611979,34.4401042 L160.611979,27.265625 L163.684896,27.265625 L163.684896,41.6666667 L161.276042,41.6666667 Z M177.721354,37.5651042 C177.721354,38.9713612 177.209207,40.0499094 176.184896,40.8007813 C175.160585,41.5516531 173.693586,41.9270833 171.783854,41.9270833 C169.865442,41.9270833 168.324659,41.6362876 167.161458,41.0546875 L167.161458,38.4114583 C168.854175,39.1927122 170.42968,39.5833333 171.888021,39.5833333 C173.771711,39.5833333 174.713542,39.0147626 174.713542,37.8776042 C174.713542,37.513019 174.609376,37.2092026 174.401042,36.9661458 C174.192707,36.7230891 173.849829,36.4713555 173.372396,36.2109375 C172.894963,35.9505195 172.230907,35.6553836 171.380208,35.3255208 C169.722214,34.6831565 168.600263,34.0408018 168.014323,33.3984375 C167.428382,32.7560732 167.135417,31.9227482 167.135417,30.8984375 C167.135417,29.6657924 167.632374,28.7087708 168.626302,28.0273438 C169.620231,27.3459167 170.972214,27.0052083 172.682292,27.0052083 C174.375008,27.0052083 175.976555,27.3480868 177.486979,28.0338542 L176.497396,30.3385417 C174.943569,29.6961773 173.637158,29.375 172.578125,29.375 C170.963534,29.375 170.15625,29.8350648 170.15625,30.7552083 C170.15625,31.2065995 170.366751,31.5885401 170.78776,31.9010417 C171.208769,32.2135432 172.126729,32.6432264 173.541667,33.1901042 C174.730909,33.6501759 175.594615,34.0711786 176.132812,34.453125 C176.67101,34.8350714 177.070311,35.2756051 177.330729,35.7747396 C177.591147,36.273874 177.721354,36.8706563 177.721354,37.5651042 L177.721354,37.5651042 Z M109.179687,78.3333333 L109.179687,59.296875 L112.291667,59.296875 L112.291667,75.6640625 L120.351562,75.6640625 L120.351562,78.3333333 L109.179687,78.3333333 Z M126.367187,78.3333333 L123.307292,78.3333333 L123.307292,63.9322917 L126.367187,63.9322917 L126.367187,78.3333333 Z M123.125,60.1171875 C123.125,59.5703098 123.274738,59.149307 123.574219,58.8541667 C123.873699,58.5590263 124.301212,58.4114583 124.856771,58.4114583 C125.394968,58.4114583 125.813801,58.5590263 126.113281,58.8541667 C126.412762,59.149307 126.5625,59.5703098 126.5625,60.1171875 C126.5625,60.6380234 126.412762,61.0481756 126.113281,61.3476563 C125.813801,61.6471369 125.394968,61.796875 124.856771,61.796875 C124.301212,61.796875 123.873699,61.6471369 123.574219,61.3476563 C123.274738,61.0481756 123.125,60.6380234 123.125,60.1171875 L123.125,60.1171875 Z M134.023438,78.3333333 L128.554688,63.9322917 L131.783854,63.9322917 L134.713542,72.3046875 C135.217016,73.7109445 135.520833,74.8480859 135.625,75.7161458 L135.729167,75.7161458 C135.807292,75.0911427 136.111108,73.9540013 136.640625,72.3046875 L139.570312,63.9322917 L142.825521,63.9322917 L137.330729,78.3333333 L134.023438,78.3333333 Z M151.302083,78.59375 C149.062489,78.59375 147.311204,77.9405447 146.048177,76.6341146 C144.78515,75.3276844 144.153646,73.5286573 144.153646,71.2369792 C144.153646,68.8845368 144.739577,67.035597 145.911458,65.6901042 C147.083339,64.3446113 148.693566,63.671875 150.742188,63.671875 C152.643239,63.671875 154.14496,64.2491262 155.247396,65.4036458 C156.349832,66.5581655 156.901042,68.1466913 156.901042,70.1692708 L156.901042,71.8229167 L147.304687,71.8229167 C147.34809,73.2204931 147.725691,74.2947011 148.4375,75.0455729 C149.149309,75.7964447 150.151903,76.171875 151.445312,76.171875 C152.296011,76.171875 153.088104,76.0915807 153.821615,75.9309896 C154.555125,75.7703985 155.342878,75.5034741 156.184896,75.1302083 L156.184896,77.6171875 C155.438364,77.9730921 154.683164,78.2248257 153.919271,78.3723958 C153.155378,78.519966 152.282991,78.59375 151.302083,78.59375 L151.302083,78.59375 Z M150.742188,65.9895833 C149.76996,65.9895833 148.990888,66.29774 148.404948,66.9140625 C147.819007,67.530385 147.469619,68.4288135 147.356771,69.609375 L153.893229,69.609375 C153.875868,68.4201329 153.589412,67.5195343 153.033854,66.9075521 C152.478296,66.2955699 151.714415,65.9895833 150.742188,65.9895833 L150.742188,65.9895833 Z M175.729167,61.6927083 C173.940963,61.6927083 172.534727,62.3263826 171.510417,63.59375 C170.486106,64.8611174 169.973958,66.6102319 169.973958,68.8411458 C169.973958,71.176227 170.466575,72.9427023 171.451823,74.140625 C172.437071,75.3385477 173.862838,75.9375 175.729167,75.9375 C176.536462,75.9375 177.317705,75.8572057 178.072917,75.6966146 C178.828129,75.5360235 179.613711,75.3298624 180.429687,75.078125 L180.429687,77.7473958 C178.936624,78.3116348 177.243933,78.59375 175.351562,78.59375 C172.56509,78.59375 170.425355,77.7495744 168.932292,76.0611979 C167.439229,74.3728214 166.692708,71.957481 166.692708,68.8151042 C166.692708,66.8359276 167.055118,65.1041741 167.779948,63.6197917 C168.504778,62.1354092 169.552945,60.9982678 170.924479,60.2083333 C172.296014,59.4183988 173.906241,59.0234375 175.755208,59.0234375 C177.699662,59.0234375 179.49652,59.4314195 181.145833,60.2473958 L180.026042,62.8385417 C179.383677,62.5347207 178.704431,62.2677963 177.988281,62.0377604 C177.272132,61.8077245 176.519101,61.6927083 175.729167,61.6927083 L175.729167,61.6927083 Z M196.875,78.3333333 L193.802083,78.3333333 L193.802083,69.4791667 C193.802083,68.36805 193.578561,67.5390652 193.13151,66.9921875 C192.68446,66.4453098 191.974831,66.171875 191.002604,66.171875 C189.717876,66.171875 188.773875,66.5559857 188.170573,67.3242188 C187.567271,68.0924518 187.265625,69.3793313 187.265625,71.1848958 L187.265625,78.3333333 L184.205729,78.3333333 L184.205729,58.0729167 L187.265625,58.0729167 L187.265625,63.2161458 C187.265625,64.0408027 187.213542,64.9218703 187.109375,65.859375 L187.304687,65.859375 C187.721356,65.1649271 188.300778,64.626738 189.042969,64.2447917 C189.78516,63.8628453 190.651037,63.671875 191.640625,63.671875 C195.130226,63.671875 196.875,65.4296699 196.875,68.9453125 L196.875,78.3333333 Z M210.143229,78.3333333 L209.53125,76.328125 L209.427083,76.328125 C208.732635,77.2048655 208.033858,77.8016477 207.330729,78.1184896 C206.627601,78.4353314 205.724832,78.59375 204.622396,78.59375 C203.207458,78.59375 202.102869,78.2118094 201.308594,77.4479167 C200.514319,76.684024 200.117187,75.6033056 200.117187,74.2057292 C200.117187,72.7213467 200.668397,71.6015663 201.770833,70.8463542 C202.873269,70.0911421 204.55294,69.6788198 206.809896,69.609375 L209.296875,69.53125 L209.296875,68.7630208 C209.296875,67.8428773 209.082033,67.1549502 208.652344,66.6992188 C208.222654,66.2434873 207.556428,66.015625 206.653646,66.015625 C205.915795,66.015625 205.208337,66.1241309 204.53125,66.3411458 C203.854163,66.5581608 203.203128,66.8142346 202.578125,67.109375 L201.588542,64.921875 C202.369796,64.5138868 203.224822,64.2035601 204.153646,63.9908854 C205.08247,63.7782107 205.959197,63.671875 206.783854,63.671875 C208.615461,63.671875 209.997825,64.0711766 210.93099,64.8697917 C211.864154,65.6684068 212.330729,66.9227345 212.330729,68.6328125 L212.330729,78.3333333 L210.143229,78.3333333 Z M205.585938,76.25 C206.697054,76.25 207.588972,75.9396732 208.261719,75.3190104 C208.934465,74.6983476 209.270833,73.8281306 209.270833,72.7083333 L209.270833,71.4583333 L207.421875,71.5364583 C205.980896,71.5885419 204.932729,71.8294249 204.277344,72.2591146 C203.621959,72.6888042 203.294271,73.3463497 203.294271,74.2317708 C203.294271,74.8741352 203.485241,75.371092 203.867188,75.7226563 C204.249134,76.0742205 204.822045,76.25 205.585938,76.25 L205.585938,76.25 Z M221.966146,76.1197917 C222.712677,76.1197917 223.459198,76.0026053 224.205729,75.7682292 L224.205729,78.0729167 C223.867186,78.2204868 223.430992,78.3441835 222.897135,78.4440104 C222.363279,78.5438373 221.809899,78.59375 221.236979,78.59375 C218.337659,78.59375 216.888021,77.0659875 216.888021,74.0104167 L216.888021,66.25 L214.921875,66.25 L214.921875,64.8958333 L217.03125,63.7760417 L218.072917,60.7291667 L219.960937,60.7291667 L219.960937,63.9322917 L224.0625,63.9322917 L224.0625,66.25 L219.960937,66.25 L219.960937,73.9583333 C219.960937,74.6961842 220.145397,75.2408837 220.514323,75.5924479 C220.883248,75.9440122 221.367185,76.1197917 221.966146,76.1197917 L221.966146,76.1197917 Z" id="Gaius-Live-Chat" fill="#9E0043"></path>
                </g>
                <g id="gaius.-ogo" transform="translate(13.000000, 12.000000)">
                    <g id="Group-2-Copy" transform="translate(24.500000, 24.500000) rotate(-340.000000) translate(-24.500000, -24.500000) translate(6.000000, 6.000000)">
                        <path d="M18.0988679,36.4671638 C28.0399934,36.4671638 36.0988679,28.4082893 36.0988679,18.4671638 C36.0988679,8.52603828 28.0399934,0.467163774 18.0988679,0.467163774 C17.9353327,9.26549173 18.0742406,27.1762589 18.0988679,36.4671638 Z" id="Oval" fill="#9E0043"></path>
                        <path d="M18.0988679,36.4671638 C18.0988679,18.4671638 18.0988679,9.94946427 18.0988679,0.467163774 C8.15774244,0.467163774 0.0988679366,8.52603828 0.0988679366,18.4671638 C0.0988679366,28.4082893 8.15774244,36.4671638 18.0988679,36.4671638 Z" id="Oval" fill="#FDAF03"></path>
                        <path d="M18.0988679,14.813861 C18.0988679,20.4729545 18.0988679,27.2183209 18.0988679,36.4671638 C16.652347,36.4671638 15.2456786,36.2965348 13.8978919,35.974306 L6.75675106,16.3541829 L16.2529464,12.8978504 L18.0988679,17.969478 L18.0988679,14.813861 Z" id="Combined-Shape" fill-opacity="0.2" fill="url(#linearGradient-4)"></path>
                        <path d="M18.4408881,29.058242 C18.4408881,23.8467646 18.4408881,19.5550675 18.4408881,15.7535537 L18.4408881,18.9091707 L16.5949666,13.837543 L7.09877121,17.2938755 L9.22364722,23.1319243 C11.6456212,26.1721004 15.0636671,28.5370825 18.4408881,29.058242 L18.4408881,29.058242 Z" id="Combined-Shape"></path>
                        <path d="M18.0988679,24.4671638 C18.0988679,12.4671638 18.0988679,7.87622208 18.0988679,0.467163774 C11.4714509,0.467163774 6.09886794,5.83974678 6.09886794,12.4671638 C6.09886794,19.0945808 11.4714509,24.4671638 18.0988679,24.4671638 Z" id="Oval-2" fill="#D02027"></path>
                        <polygon id="Triangle" fill="url(#linearGradient-5)" points="18.1168685 0.469899787 23.4174773 15.0758567 18.1142958 12.4721296"></polygon>
                        <path d="M32.593449,29.1418762 L29.5559695,20.7964701 L21.3301804,27.8989242 L18.6008744,36.4602985 C24.3400326,36.3031428 29.4082962,33.4595966 32.593449,29.1418762 Z" id="Combined-Shape" fill-opacity="0.3" fill="url(#linearGradient-6)"></path>
                        <path d="M30.0988679,36.4671638 C30.0988679,24.4671638 30.0988679,19.8762221 30.0988679,12.4671638 C23.4714509,12.4671638 18.0988679,17.8397468 18.0988679,24.4671638 C18.0988679,31.0945808 23.4714509,36.4671638 30.0988679,36.4671638 Z" id="Oval-2-Copy" fill="#FEE704" transform="translate(24.098868, 24.467164) rotate(-180.000000) translate(-24.098868, -24.467164) "></path>
                    </g>
                </g>
            </g>
        </g>
    </g>
</svg>