<?xml version="1.0" encoding="utf-8"?>
<!-- Generator: Adobe Illustrator 15.0.0, SVG Export Plug-In . SVG Version: 6.00 Build 0)  -->
<!DOCTYPE svg PUBLIC "-//W3C//DTD SVG 1.1//EN" "http://www.w3.org/Graphics/SVG/1.1/DTD/svg11.dtd">
<svg version="1.1" id="Layer_1" xmlns="http://www.w3.org/2000/svg" xmlns:xlink="http://www.w3.org/1999/xlink" x="0px" y="0px"
	 width="1297.18px" height="609.842px" viewBox="0 0 1297.18 609.842" enable-background="new 0 0 1297.18 609.842"
	 xml:space="preserve">
<rect x="896.76" y="139.674" fill="none" width="1757.479" height="491.65"/>
<g enable-background="new    ">
	<path d="M146.962,587.549H111.09v-53.76h34.716c13.497,0,25.259-5.977,35.294-17.92c10.025-11.953,15.043-23.713,15.043-35.28
		v-19.601c-17.746,9.704-33.757,14.561-48.023,14.561c-37.807,0-68.473-14.367-91.996-43.12
		c-21.986-27.247-32.979-61.6-32.979-103.04c0-42.56,9.059-76.344,27.194-101.36c21.986-30.607,56.503-45.92,103.567-45.92
		c17.358,0,37.988,5.6,61.909,16.8c19.673,9.336,36.062,19.232,49.181,29.68v252c0,29.12-11.192,54.224-33.559,75.319
		C209.062,576.996,180.901,587.549,146.962,587.549z M196.143,250.429c-13.507-9.704-29.318-14.56-47.444-14.56
		c-36.262,0-54.388,31.176-54.388,93.52c0,61.977,19.672,92.96,59.017,92.96c13.886,0,28.152-5.6,42.815-16.8V250.429z"/>
	<path d="M421.785,473.869c-33.558,0-60.752-7.928-81.581-23.801c-20.829-15.863-31.244-37.8-31.244-65.8
		c0-20.527,8.29-39.008,24.88-55.439c21.209-20.904,50.916-31.36,89.103-31.36h57.859v-20.72c0-28.367-17.557-42.56-52.651-42.56
		c-25.079,0-49.38,7.28-72.903,21.84l-33.558-41.44c13.886-10.448,31.243-18.848,52.073-25.2c18.515-5.6,35.674-8.4,51.494-8.4
		c82.929,0,124.397,32.856,124.397,98.56v100.24c0,21.656-5.984,39.952-17.937,54.88
		C511.269,460.805,474.627,473.869,421.785,473.869z M480.802,350.669h-50.338c-34.715,0-52.073,11.76-52.073,35.279
		c0,11.2,5.009,19.977,15.044,26.32c8.868,5.601,20.44,8.4,34.716,8.4c35.095,0,52.651-12.688,52.651-38.08V350.669z"/>
	<path d="M615.608,124.429v-53.76h68.274v53.76H615.608z M615.608,469.389v-286.72h68.274v286.72H615.608z"/>
	<path d="M969.127,441.389c-34.716,22.032-73.102,33.04-115.14,33.04c-25.847,0-48.412-8.584-67.695-25.76
		c-21.986-19.408-32.979-44.607-32.979-75.601v-189.28h68.853v183.12c0,16.801,4.628,29.961,13.886,39.48s21.408,14.28,36.451,14.28
		c20.052,0,37.03-4.848,50.916-14.561v-222.32h68.853v241.92C987.253,429.446,979.542,434.669,969.127,441.389z"/>
	<path d="M1158.322,473.869c-44.361,0-84.474-11.761-120.347-35.28l30.087-49.28c29.698,20.912,61.331,31.36,94.889,31.36
		c15.044,0,27.194-3.36,36.451-10.08c9.258-6.72,13.887-14.928,13.887-24.641c0-20.527-10.415-32.104-31.244-34.72l-50.338-6.72
		c-23.921-3.36-43.783-11.567-59.595-24.641c-17.357-14.56-26.036-32.663-26.036-54.319c0-26.127,10.993-47.04,32.979-62.72
		c20.44-14.56,46.667-21.84,78.688-21.84c37.409,0,75.407,10.64,113.982,31.92l-31.244,47.6
		c-32.021-17.544-59.595-26.32-82.738-26.32c-28.93,0-43.395,10.64-43.395,31.92c0,13.072,11.572,22.216,34.716,27.44
		c15.423,1.496,30.855,3.176,46.287,5.04c24.681,2.992,44.932,11.576,60.752,25.76c17.358,16.057,26.037,36.032,26.037,59.92
		c0,28-12.928,50.217-38.766,66.64C1219.843,466.221,1191.491,473.869,1158.322,473.869z"/>
</g>
</svg>
