<?xml version="1.0" encoding="UTF-8" standalone="no"?>
<svg width="40px" height="40px" viewBox="0 0 40 40" version="1.1" xmlns="http://www.w3.org/2000/svg" xmlns:xlink="http://www.w3.org/1999/xlink">
    <!-- Generator: Sketch 40 (33762) - http://www.bohemiancoding.com/sketch -->
    <title>gaius-icon</title>
    <desc>Created with Sketch.</desc>
    <defs>
        <linearGradient x1="35.6862704%" y1="20.3813758%" x2="75.9451684%" y2="76.614118%" id="linearGradient-1">
            <stop stop-color="#000000" offset="0%"></stop>
            <stop stop-color="#000000" stop-opacity="0" offset="100%"></stop>
        </linearGradient>
        <linearGradient x1="0%" y1="36.6965452%" x2="72.5044359%" y2="103.452091%" id="linearGradient-2">
            <stop stop-color="#000000" stop-opacity="0.2" offset="0%"></stop>
            <stop stop-color="#000000" stop-opacity="0" offset="100%"></stop>
        </linearGradient>
        <linearGradient x1="35.6862704%" y1="20.3813758%" x2="94.3687989%" y2="100%" id="linearGradient-3">
            <stop stop-color="#000000" offset="0%"></stop>
            <stop stop-color="#000000" stop-opacity="0" offset="100%"></stop>
        </linearGradient>
    </defs>
    <g id="Symbols" stroke="none" stroke-width="1" fill="none" fill-rule="evenodd">
        <g id="gaius-icon">
            <g id="gaius.-ogo" transform="translate(-4.000000, -4.000000)">
                <g id="Group-2-Copy" transform="translate(24.500000, 24.500000) rotate(-340.000000) translate(-24.500000, -24.500000) translate(6.000000, 6.000000)">
                    <path d="M18.0988679,36.4671638 C28.0399934,36.4671638 36.0988679,28.4082893 36.0988679,18.4671638 C36.0988679,8.52603828 28.0399934,0.467163774 18.0988679,0.467163774 C17.9353327,9.26549173 18.0742406,27.1762589 18.0988679,36.4671638 Z" id="Oval" fill="#9E0043"></path>
                    <path d="M18.0988679,36.4671638 C18.0988679,18.4671638 18.0988679,9.94946427 18.0988679,0.467163774 C8.15774244,0.467163774 0.0988679366,8.52603828 0.0988679366,18.4671638 C0.0988679366,28.4082893 8.15774244,36.4671638 18.0988679,36.4671638 Z" id="Oval" fill="#FDAF03"></path>
                    <path d="M18.0988679,14.813861 C18.0988679,20.4729545 18.0988679,27.2183209 18.0988679,36.4671638 C16.652347,36.4671638 15.2456786,36.2965348 13.8978919,35.974306 L6.75675106,16.3541829 L16.2529464,12.8978504 L18.0988679,17.969478 L18.0988679,14.813861 Z" id="Combined-Shape" fill-opacity="0.2" fill="url(#linearGradient-1)"></path>
                    <path d="M18.4408881,29.058242 C18.4408881,23.8467646 18.4408881,19.5550675 18.4408881,15.7535537 L18.4408881,18.9091707 L16.5949666,13.837543 L7.09877121,17.2938755 L9.22364722,23.1319243 C11.6456212,26.1721004 15.0636671,28.5370825 18.4408881,29.058242 L18.4408881,29.058242 Z" id="Combined-Shape"></path>
                    <path d="M18.0988679,24.4671638 C18.0988679,12.4671638 18.0988679,7.87622208 18.0988679,0.467163774 C11.4714509,0.467163774 6.09886794,5.83974678 6.09886794,12.4671638 C6.09886794,19.0945808 11.4714509,24.4671638 18.0988679,24.4671638 Z" id="Oval-2" fill="#D02027"></path>
                    <polygon id="Triangle" fill="url(#linearGradient-2)" points="18.1168685 0.469899787 23.4174773 15.0758567 18.1142958 12.4721296"></polygon>
                    <path d="M32.593449,29.1418762 L29.5559695,20.7964701 L21.3301804,27.8989242 L18.6008744,36.4602985 C24.3400326,36.3031428 29.4082962,33.4595966 32.593449,29.1418762 Z" id="Combined-Shape" fill-opacity="0.3" fill="url(#linearGradient-3)"></path>
                    <path d="M30.0988679,36.4671638 C30.0988679,24.4671638 30.0988679,19.8762221 30.0988679,12.4671638 C23.4714509,12.4671638 18.0988679,17.8397468 18.0988679,24.4671638 C18.0988679,31.0945808 23.4714509,36.4671638 30.0988679,36.4671638 Z" id="Oval-2-Copy" fill="#FEE704" transform="translate(24.098868, 24.467164) rotate(-180.000000) translate(-24.098868, -24.467164) "></path>
                </g>
            </g>
        </g>
    </g>
</svg>