<?xml version="1.0" encoding="UTF-8" standalone="no"?>
<svg width="62px" height="60px" viewBox="0 0 62 60" version="1.1" xmlns="http://www.w3.org/2000/svg" xmlns:xlink="http://www.w3.org/1999/xlink">
    <!-- Generator: Sketch 39.1 (31720) - http://www.bohemiancoding.com/sketch -->
    <title>Fill 1</title>
    <desc>Created with Sketch.</desc>
    <defs></defs>
    <g id="Page-1" stroke="none" stroke-width="1" fill="none" fill-rule="evenodd">
        <g id="Landing-page" transform="translate(-450.000000, -3400.000000)" fill="#9E0043">
            <g id="Icons-Red" transform="translate(107.000000, 3057.000000)">
                <path d="M394.23525,390.063571 C392.818938,388.938571 391.214688,387.931429 389.455438,387.074286 C390.540437,383.487143 391.206938,379.452143 391.377438,375.142857 L401.010688,375.142857 C400.508875,380.849286 398.034688,386.017857 394.23525,390.063571 L394.23525,390.063571 Z M384.931375,396.515714 C386.068688,394.957857 387.080063,393.147143 387.953875,391.145714 C389.064063,391.698571 390.114188,392.298571 391.059688,392.965 C389.203563,394.394286 387.144,395.587857 384.931375,396.515714 L384.931375,396.515714 Z M375.9375,398.407857 L375.9375,388.079286 C378.8825,388.246429 381.689937,388.773571 384.2455,389.611429 C382.143312,394.24 379.209938,397.473571 375.9375,398.407857 L375.9375,398.407857 Z M375.9375,375.142857 L387.502437,375.142857 C387.331937,378.895 386.711937,382.439286 385.749,385.593571 C382.7575,384.588571 379.454062,383.967143 375.9375,383.795714 L375.9375,375.142857 Z M375.9375,362.206429 C379.454062,362.035 382.759437,361.415714 385.750937,360.410714 C386.711937,363.565 387.331937,367.107143 387.502437,370.857143 L375.9375,370.857143 L375.9375,362.206429 Z M375.9375,347.594286 C379.208,348.526429 382.139437,351.755714 384.239688,356.377857 C381.686062,357.215714 378.884437,357.749286 375.9375,357.916429 L375.9375,347.594286 Z M391.053875,353.032857 C390.106438,353.699286 389.075688,354.318571 387.961625,354.871429 C387.085875,352.861429 386.072563,351.046429 384.931375,349.486429 C387.142063,350.412143 389.199688,351.605714 391.053875,353.032857 L391.053875,353.032857 Z M401.010687,370.857143 L391.377437,370.857143 C391.206937,366.541429 390.5385,362.502143 389.451562,358.912857 C391.210812,358.053571 392.805375,357.048571 394.221687,355.921429 C398.026937,359.967143 400.508875,365.144286 401.010687,370.857143 L401.010687,370.857143 Z M372.0625,357.920714 C369.115562,357.753571 366.310062,357.222143 363.756437,356.384286 C365.858625,351.76 368.788125,348.526429 372.0625,347.594286 L372.0625,357.920714 Z M372.0625,370.857143 L360.495625,370.857143 C360.668063,367.107143 361.286125,363.560714 362.247125,360.408571 C365.2425,361.413571 368.544,362.032857 372.0625,362.202143 L372.0625,370.857143 Z M372.0625,383.795714 C368.544,383.965 365.238625,384.584286 362.247125,385.591429 C361.286125,382.437143 360.668063,378.892857 360.495625,375.142857 L372.0625,375.142857 L372.0625,383.795714 Z M372.0625,398.407857 C368.790062,397.473571 365.860562,394.244286 363.758375,389.62 C366.313937,388.782143 369.113625,388.248571 372.0625,388.083571 L372.0625,398.407857 Z M356.940312,392.969286 C357.889687,392.298571 358.920437,391.681429 360.038375,391.128571 C360.914125,393.138571 361.9255,394.953571 363.066687,396.515714 C360.857937,395.587857 358.796437,394.394286 356.940312,392.969286 L356.940312,392.969286 Z M346.987375,375.142857 L356.622562,375.142857 C356.793062,379.456429 357.459562,383.493571 358.544562,387.078571 C356.785312,387.937857 355.188812,388.947143 353.770562,390.072143 C349.96725,386.026429 347.489187,380.853571 346.987375,375.142857 L346.987375,375.142857 Z M353.757,355.940714 C355.177187,357.067857 356.781437,358.068571 358.542625,358.927857 C357.459562,362.512857 356.793062,366.547857 356.622562,370.857143 L346.987375,370.857143 C347.489187,365.152857 349.963375,359.984286 353.757,355.940714 L353.757,355.940714 Z M363.066688,349.486429 C361.927438,351.044286 360.916063,352.857143 360.04225,354.865 C358.928188,354.31 357.878063,353.707857 356.932563,353.041429 C358.790625,351.61 360.854063,350.414286 363.066688,349.486429 L363.066688,349.486429 Z M374,343 C356.905438,343 343,356.457143 343,373 C343,389.542857 356.905438,403 374,403 C391.092625,403 405,389.542857 405,373 C405,356.457143 391.092625,343 374,343 L374,343 Z" id="Fill-1"></path>
            </g>
        </g>
    </g>
</svg>