<?xml version="1.0" encoding="UTF-8" standalone="no"?>
<svg width="295px" height="100px" viewBox="0 0 295 100" version="1.1" xmlns="http://www.w3.org/2000/svg" xmlns:xlink="http://www.w3.org/1999/xlink">
    <defs>
        <linearGradient x1="58.9170878%" y1="16.3500722%" x2="90.8103723%" y2="59.0362178%" id="linearGradient-1">
            <stop stop-color="#FF177B" offset="0%"></stop>
            <stop stop-color="#FFEC73" offset="100%"></stop>
        </linearGradient>
        <linearGradient x1="48.3406355%" y1="-44.0352456%" x2="43.5668715%" y2="101.060094%" id="linearGradient-2">
            <stop stop-color="#064AA2" offset="0%"></stop>
            <stop stop-color="#63FFD4" offset="100%"></stop>
        </linearGradient>
        <linearGradient x1="37.1029741%" y1="22.2769931%" x2="0%" y2="65.0532849%" id="linearGradient-3">
            <stop stop-color="#064AA2" offset="0%"></stop>
            <stop stop-color="#63FFD4" offset="100%"></stop>
        </linearGradient>
        <path d="M27.8,26.2 L1,0.8 C0.3747565,0.9452374 0,1.412926 0,2.2 L0,26.2 L0,50.8 C0,51.4677734 0.2691943,51.8650822 0.6,52 L27.8,26.2 L27.8,26.2 Z" id="path-4"></path>
        <path d="M1.5499284,25.776962 L17.0403439,17.2675395 C20.8548987,15.1538402 23.8822244,13.4763411 23.8822244,13.4763411 L35.147094,7.4088568 L27.6474602,0.1215155 L0.4477776,25.9247259 C0.7509432,26.022228 1.2852815,25.9689332 1.7021508,25.7631861" id="path-6"></path>
        <linearGradient x1="78.6453125%" y1="50%" x2="2.49516972%" y2="91.4501953%" id="linearGradient-8">
            <stop stop-color="#FF4521" offset="0%"></stop>
            <stop stop-color="#8A33DB" offset="100%"></stop>
        </linearGradient>
        <linearGradient x1="43.5668715%" y1="-24.1863374%" x2="51.8301527%" y2="100%" id="linearGradient-9">
            <stop stop-color="#00A3B5" offset="0%"></stop>
            <stop stop-color="#D6FFA1" offset="100%"></stop>
        </linearGradient>
        <linearGradient x1="22.3031597%" y1="-24.1863374%" x2="57.8794394%" y2="100%" id="linearGradient-10">
            <stop stop-color="#00A3B5" offset="0%"></stop>
            <stop stop-color="#D6FFA1" offset="100%"></stop>
        </linearGradient>
        <path d="M2.2431978,1.0925498 C1.7272751,0.8162344 1.2146663,0.7371904 0.8,0.8489065 L27.6222504,26.2858556 L35.0427872,19.263578 L23.857393,13.0676865 C23.857393,13.0676865 13.3147964,7.2265995 6.9491146,3.6996357 L2.2431978,1.0925498 L2.2431978,1.0925498 Z" id="path-11"></path>
    </defs>
    <g id="Page-1" stroke="none" stroke-width="1" fill="none" fill-rule="evenodd">
        <g id="google-store">
            <g id="Google">
                <g id="Symbols">
                    <g id="Benötigst-du-hilfe">
                        <g id="Group-10">
                            <g id="Button/Google">
                                <g id="Group-10">
                                    <rect id="background" fill="#000000" x="0" y="0" width="295" height="100" rx="5"></rect>
                                    <path d="M35.9701245,48.0676865 C35.9701245,48.0676865 15.5890456,36.7756245 14.3920332,36.1122059 C13.193029,35.4487873 12,35.8512214 12,37.2378261 L12,61.3440276 L12,85.9403222 C12,86.9782834 12.8524481,87.4285315 13.8941079,86.8527718 C14.9337759,86.2770121 35.9701245,74.6203687 35.9701245,74.6203687 L40.2567515,72.2466539 C42.5563406,70.9732591 47.1555187,68.4264695 47.1555187,68.4264695 C47.1555187,68.4264695 56.6459751,63.1669346 57.9087137,62.4696478 C59.1694606,61.7703687 59.0479668,60.8120974 57.9843983,60.2602447 C56.9188382,59.7103842 47.1555187,54.263578 47.1555187,54.263578 L35.9701245,48.0676865 L35.9701245,48.0676865 Z" id="orange" fill="url(#linearGradient-1)"></path>
                                    <g id="Clip-2" transform="translate(12.000000, 35.000000)" fill="url(#linearGradient-3)">
                                        <path d="M27.8,26.2 L1,0.8 C0.3747565,0.9452374 0,1.412926 0,2.2 L0,26.2 L0,50.8 C0,51.4677734 0.2691943,51.8650822 0.6,52 L27.8,26.2 L27.8,26.2 Z" id="path-3"></path>
                                    </g>
                                    <g id="Fill-1-Clipped" transform="translate(12.000000, 35.000000)">
                                        <mask id="mask-5" fill="white">
                                            <use xlink:href="#path-4"></use>
                                        </mask>
                                        <g id="path-3"></g>
                                        <path d="M35.2,19.2 L24,13 C23.9607763,13.0902184 3.5876459,1.7774164 2.4,1.2 C1.1925638,0.4481423 0,0.8513155 0,2.2 L0,26.4 C0,26.3909439 0,49.9905506 0,51 C0,52.0722818 0.8521157,52.5233568 1.8,52 C2.9326318,51.3697224 23.9607763,39.6916695 24,39.6 L35.2,33.4 C35.1418082,33.486394 44.6285634,28.217199 45.8,27.6 C47.1510648,26.8180681 47.0296184,25.8580367 46,25.4 C44.9013201,24.7543 35.1418082,19.2974898 35.2,19.2" id="Fill-1" mask="url(#mask-5)"></path>
                                    </g>
                                    <g id="Fill-7-Clipped" transform="translate(12.000000, 61.000000)">
                                        <mask id="mask-7" fill="white">
                                            <use xlink:href="#path-6"></use>
                                        </mask>
                                        <g id="path-5"></g>
                                        <path d="M24,-13 C23.9607763,-12.9097816 3.5876459,-24.2225836 2.4,-24.8 C1.1925638,-25.5518577 0,-25.1486845 0,-23.8 L0,0.4 C0,0.3909439 0,23.9905506 0,25 C0,26.0722818 0.8521157,26.5233568 1.8,26 C2.9326318,25.3697224 23.9607763,13.6916695 24,13.6 L35.2,7.4 C35.1418082,7.486394 44.6285634,2.217199 45.8,1.6 C47.1510648,0.8180681 47.0296184,-0.1419633 46,-0.6 C44.9013201,-1.2457 35.1418082,-6.7025102 35.2,-6.8 L24,-13 L24,-13 Z" id="Fill-7" fill="url(#linearGradient-8)" mask="url(#mask-7)"></path>
                                    </g>
                                    <g id="Clip-5" transform="translate(12.000000, 35.000000)" fill="url(#linearGradient-10)">
                                        <path d="M2.2431978,1.0925498 C1.7272751,0.8162344 1.2146663,0.7371904 0.8,0.8489065 L27.6222504,26.2858556 L35.0427872,19.263578 L23.857393,13.0676865 C23.857393,13.0676865 13.3147964,7.2265995 6.9491146,3.6996357 L2.2431978,1.0925498 L2.2431978,1.0925498 Z" id="path-9"></path>
                                    </g>
                                    <g id="Fill-4-Clipped" transform="translate(12.000000, 35.000000)">
                                        <mask id="mask-12" fill="white">
                                            <use xlink:href="#path-11"></use>
                                        </mask>
                                        <g id="path-9"></g>
                                        <path d="M35.2,19.2 L24,13 C23.9607763,13.0902184 3.5876459,1.7774164 2.4,1.2 C1.1925638,0.4481423 0,0.8513155 0,2.2 L0,26.4 C0,26.3909439 0,49.9905506 0,51 C0,52.0722818 0.8521157,52.5233568 1.8,52 C2.9326318,51.3697224 23.9607763,39.6916695 24,39.6 L35.2,33.4 C35.1418082,33.486394 44.6285634,28.217199 45.8,27.6 C47.1510648,26.8180681 47.0296184,25.8580367 46,25.4 C44.9013201,24.7543 35.1418082,19.2974898 35.2,19.2" id="Fill-4" mask="url(#mask-12)"></path>
                                    </g>
                                    <path d="M202.323054,69.7739602 L200.108315,71.8760737 C199.596482,72.159024 199.087394,72.4875223 198.579678,72.7207838 C197.041436,73.4233286 195.477121,73.6 194.087077,73.6 C192.60784,73.6 190.288813,73.5033828 187.923131,71.782217 C184.636699,69.4537433 183.2,65.4510321 183.2,61.9631524 C183.2,54.7417093 189.044223,51.2 193.811264,51.2 C195.477121,51.2 197.188262,51.6195946 198.579678,52.5043318 C200.893216,54.0433052 201.491498,56.0432805 201.823571,57.1143509 L190.937866,61.5380368 L187.372877,61.8168464 C188.526901,67.7380985 192.509041,71.1818103 196.909704,71.1818103 C199.107977,71.1818103 200.739529,70.4599421 202.236605,69.7159899 C202.236605,69.7159899 202.537118,69.5586419 202.323054,69.7739602 L202.323054,69.7739602 L202.323054,69.7739602 Z M195.671899,57.8955072 C196.545543,57.5703566 197,57.2896711 197,56.636591 C197,54.7635016 194.931202,52.6 192.462209,52.6 C190.633527,52.6 187.2,54.0590088 187.2,59.1252432 C187.2,59.915887 187.292248,60.7579435 187.338372,61.6 L195.671899,57.8955072 L195.671899,57.8955072 L195.671899,57.8955072 Z" id="Fill-1" fill="#FFFFFF"></path>
                                    <path d="M179.605224,69.520628 C179.605224,71.3257157 179.925269,71.6065989 181.442063,71.7484174 C182.232601,71.8420452 183.020404,71.8833515 183.8,71.9769793 L182.093094,73 L173.959305,73 C175.026121,71.6065989 175.209395,71.4675342 175.209395,70.5395181 L175.209395,69.5027286 L175.191614,41.877038 L171.6,41.877038 L175.057578,40.2 L181.658161,40.2 C180.227534,41.0343884 179.799439,41.5424566 179.616166,43.1685501 L179.605224,69.520628" id="Fill-2" fill="#FFFFFF"></path>
                                    <path d="M166.985823,53.479552 C168.044063,54.3564984 170.25203,56.2177724 170.25203,59.747585 C170.25203,63.1879132 168.328081,64.8096446 166.387746,66.3446449 C165.792401,66.9490083 165.09601,67.6043089 165.09601,68.6175469 C165.09601,69.6459283 165.792401,70.2034845 166.293529,70.6192424 L167.958038,71.9147002 C169.981667,73.6369293 171.826419,75.2159835 171.826419,78.4236525 C171.826419,82.793241 167.631691,87.2 159.705129,87.2 C153.027974,87.2 149.8,83.9937077 149.8,80.5561328 C149.8,78.8834643 150.62611,76.5141946 153.351591,74.8910866 C156.208157,73.1303103 160.077903,72.8948977 162.150689,72.7572295 C161.503455,71.9147002 160.764735,71.032247 160.764735,69.5922377 C160.764735,68.8047756 160.999596,68.3353271 161.226265,67.7819009 C160.722406,67.8300848 160.21445,67.8796453 159.752921,67.8796453 C154.865899,67.8796453 152.10355,64.2039045 152.10355,60.5818542 C152.10355,58.4452438 153.070304,56.0745975 155.055699,54.3564984 C157.682866,52.1758342 160.815258,51.8 163.304512,51.8 L172.8,51.8 L169.847851,53.479552 L166.985823,53.479552 L166.985823,53.479552 L166.985823,53.479552 Z M163.744021,74.0504549 C163.362724,74 163.13422,74 162.674461,74 C162.253244,74 159.743838,74.0925006 157.800184,74.7568232 C156.771919,75.1394394 153.8,76.2704696 153.8,79.6299238 C153.8,82.9823703 157.008681,85.4 161.972433,85.4 C166.432376,85.4 168.8,83.2234325 168.8,80.2928448 C168.8,77.8808212 167.267927,76.608237 163.744021,74.0504549 L163.744021,74.0504549 L163.744021,74.0504549 Z M165.047043,65.1030568 C166.107546,64.0339364 166.2,62.5572052 166.2,61.7186525 C166.2,58.3877729 164.232631,53.2 160.418899,53.2 C159.229232,53.2 157.940313,53.8024953 157.208838,54.7343731 C156.432495,55.699189 156.2,56.9508422 156.2,58.1544604 C156.2,61.2561447 157.991978,66.4 161.933515,66.4 C163.083753,66.4 164.321006,65.8359326 165.047043,65.1030568 L165.047043,65.1030568 L165.047043,65.1030568 Z" id="Fill-3" fill="#FFFFFF"></path>
                                    <path d="M138.267373,73.6 C130.927297,73.6 127,67.8097407 127,62.56704 C127,56.4413144 131.937173,51.2 138.959781,51.2 C145.748394,51.2 150,56.5840956 150,62.2371186 C150,67.7584504 145.797656,73.6 138.267373,73.6 L138.267373,73.6 L138.267373,73.6 Z M144.007689,69.8130789 C145.128129,68.3116959 145.4,66.4377474 145.4,64.6110646 C145.4,60.4794808 143.455708,52.6 137.709337,52.6 C136.181091,52.6 134.64186,53.2047237 133.532405,54.1917441 C131.722676,55.8335343 131.4,57.8965459 131.4,59.9206327 C131.4,64.5554578 133.662848,72.2 139.278776,72.2 C141.091251,72.2 142.9408,71.3116817 144.007689,69.8130789 L144.007689,69.8130789 L144.007689,69.8130789 Z" id="Fill-4" fill="#FFFFFF"></path>
                                    <path d="M113.666591,73.6 C106.322088,73.6 102.4,67.8097407 102.4,62.56704 C102.4,56.4413144 107.340599,51.2 114.363395,51.2 C121.150729,51.2 125.4,56.5840956 125.4,62.2371186 C125.4,67.7584504 121.201381,73.6 113.666591,73.6 L113.666591,73.6 L113.666591,73.6 Z M119.409754,69.8130789 C120.5225,68.3116959 120.8,66.4377474 120.8,64.6110646 C120.8,60.4794808 118.849259,52.6 113.105564,52.6 C111.571073,52.6 110.047571,53.2047237 108.934825,54.1917441 C107.12146,55.8335343 106.8,57.8965459 106.8,59.9206327 C106.8,64.5554578 109.073575,72.2 114.682642,72.2 C116.491885,72.2 118.339594,71.3116817 119.409754,69.8130789 L119.409754,69.8130789 L119.409754,69.8130789 Z" id="Fill-5" fill="#FFFFFF"></path>
                                    <path d="M99.354997,72.2160818 L93.1377925,73.6489756 C90.6187527,74.0486921 88.3567017,74.4 85.9613464,74.4 C73.9694529,74.4 69.4,65.5163352 69.4,58.563481 C69.4,50.0726172 75.8741933,42.2 86.9618161,42.2 C89.3076977,42.2 91.5642515,42.5471586 93.6201618,43.1114643 C96.8785596,44.0326103 98.4026268,45.1681371 99.354997,45.8334092 L95.7434113,49.2856321 L94.2207184,49.6286414 L95.306393,47.8873158 C93.8359224,46.4419741 91.1327303,43.7739702 86.0025746,43.7739702 C79.1435853,43.7739702 73.9694529,49.0214596 73.9694529,56.6824621 C73.9694529,64.9105365 79.8774463,72.6503758 89.3530486,72.6503758 C92.1373228,72.6503758 93.570688,72.0874533 94.8721232,71.5618745 L94.8721232,64.5080538 L88.307228,64.863511 L91.7868835,62.9824922 L101,62.9824922 L99.8730973,64.0737597 C99.5693833,64.3337829 99.5281552,64.4223014 99.4429503,64.7708432 C99.3975994,65.1691766 99.354997,66.4360981 99.354997,66.881457 L99.354997,72.2160818" id="Fill-6" fill="#FFFFFF"></path>
                                    <path d="M215.740483,69.9879547 L215.740483,81.8 L213.4,81.8 L213.4,51.7428456 L215.740483,51.7428456 L215.740483,55.1662086 C217.265156,52.9535974 220.051249,51.2 223.287065,51.2 C229.090969,51.2 233,55.6128537 233,62.5983832 C233,69.5371867 229.090969,74.042118 223.287065,74.042118 C220.232235,74.042118 217.495502,72.4630558 215.740483,69.9879547 L215.740483,69.9879547 L215.740483,69.9879547 Z M230.6,62.7784738 C230.6,57.4580335 227.851664,53.4 222.978427,53.4 C219.952092,53.4 217.057876,55.7998227 215.8,57.8927236 L215.8,67.6156165 C217.057876,69.7126838 219.952092,72.2 222.978427,72.2 C227.851664,72.2 230.6,68.1072468 230.6,62.7784738 L230.6,62.7784738 L230.6,62.7784738 Z" id="Fill-7" fill="#FFFFFF"></path>
                                    <polygon id="Fill-8" fill="#FFFFFF" points="236.2 43.4 238.6 43.4 238.6 73.6 236.2 73.6"></polygon>
                                    <path d="M264.692654,79.7202192 C265.193144,79.9442792 266.047405,80.0817394 266.58903,80.0817394 C268.020568,80.0817394 269.017434,79.4947846 269.912831,77.4218858 L271.61998,73.5441355 L262.4,51.6 L265.010774,51.6 L272.919882,70.6162347 L280.752204,51.6 L283.4,51.6 L272.15475,78.1490499 C270.987855,80.8845065 269.151812,82.2 266.630167,82.2 C265.873262,82.2 264.875024,82.0652891 264.290891,81.8852163 L264.692654,79.7202192" id="Fill-9" fill="#FFFFFF"></path>
                                    <path d="M258.0875,73.5702024 C257.930294,72.8114923 257.811699,72.1426112 257.724822,71.584289 C257.653114,71.0273488 257.611744,70.4579707 257.611744,69.8789187 C256.805027,71.0660444 255.661833,72.0541641 254.201468,72.8322221 C252.739724,73.615808 251.351068,74 249.446664,74 C247.153381,74 245.373087,73.4347679 244.103025,72.2877197 C242.8371,71.1420536 242.2,69.5900836 242.2,67.626282 C242.2,65.6652443 243.122553,64.0731968 244.962144,62.8556674 C246.801735,61.63261 249.179137,61.0245363 252.121931,61.0245363 L257.611744,61.0245363 L257.611744,58.3061704 C257.611744,56.7403807 257.079448,55.5090314 256.016237,54.6162686 C254.948888,53.7221239 253.45129,53.2702146 251.509653,53.2702146 C249.734875,53.2702146 248.295196,53.6834283 247.198888,54.487744 C246.112233,55.3086435 245.564769,56.3257849 245.564769,57.5516063 L243.155649,57.5516063 L243.106005,57.4341375 C243.019128,55.7812826 243.773443,54.3315796 245.377224,53.0795005 C246.97411,51.8288035 249.066059,51.2 251.640658,51.2 C254.206984,51.2 256.283763,51.8191296 257.848932,53.0546248 C259.412722,54.2776821 260.197375,56.0452418 260.197375,58.3559219 L260.197375,69.1492302 C260.197375,69.9245242 260.234609,70.6735604 260.331139,71.4032489 C260.430427,72.1343193 260.589012,72.8640078 260.8,73.5702024 L258.0875,73.5702024 L258.0875,73.5702024 L258.0875,73.5702024 Z M249.72986,72 C251.727707,72 253.163402,71.5499305 254.630786,70.6595154 C256.088525,69.7746566 257.08056,68.6203118 257.6,67.2228739 L257.6,63 L252.088698,63 C249.98338,63 248.240431,63.4695169 246.869494,64.4168853 C245.495802,65.3614755 244.8,66.5047075 244.8,67.8340793 C244.8,69.0884396 245.240904,70.0913721 246.117201,70.8512116 C246.996254,71.6193857 248.197718,72 249.72986,72 L249.72986,72 L249.72986,72 Z" id="Fill-10" fill="#FFFFFF"></path>
                                    <path d="M68.6,23.0791898 C68.6,18.7711766 72.0401544,16 76.3179596,16 C79.1849846,16 81.0600548,17.272793 82.2283571,18.8314196 L80.1342303,19.9606548 C79.3406664,18.9339608 77.9505519,18.135421 76.3179596,18.135421 C73.4082255,18.135421 71.2465906,20.1862455 71.2465906,23.0791898 C71.2465906,25.9298359 73.4082255,28.0229587 76.3179596,28.0229587 C77.8182913,28.0229587 79.1408977,27.3872031 79.8022009,26.792464 L79.8022009,24.678833 L75.3921351,24.678833 L75.3921351,22.565202 L82.3606178,22.565202 L82.3606178,27.6743185 C80.9277941,29.1727022 78.854333,30.1776062 76.3179596,30.1776062 C72.0401544,30.1776062 68.6,27.3679766 68.6,23.0791898" id="Fill-1" fill="#FFFFFF"></path>
                                    <polyline id="Fill-2" fill="#FFFFFF" points="85.6 29.9606178 85.6 16.2 95.8162162 16.2 95.8162162 18.3265355 88.2158541 18.3265355 88.2158541 21.8733389 95.6597957 21.8733389 95.6597957 23.9985856 88.2158541 23.9985856 88.2158541 27.8353711 95.8162162 27.8353711 95.8162162 29.9606178 85.6 29.9606178"></polyline>
                                    <polyline id="Fill-3" fill="#FFFFFF" points="102.845785 29.9606178 102.845785 18.3265355 98.4 18.3265355 98.4 16.2 109.867181 16.2 109.867181 18.3265355 105.421397 18.3265355 105.421397 29.9606178 102.845785 29.9606178"></polyline>
                                    <polygon id="Fill-4" fill="#FFFFFF" points="119 16.2 121.501931 16.2 121.501931 29.9606178 119 29.9606178"></polygon>
                                    <polyline id="Fill-5" fill="#FFFFFF" points="128.64716 29.9606178 128.64716 18.3265355 124.2 18.3265355 124.2 16.2 135.667181 16.2 135.667181 18.3265355 131.222772 18.3265355 131.222772 29.9606178 128.64716 29.9606178"></polyline>
                                    <path d="M144.2,23.0894449 C144.2,18.9998249 147.346626,16 151.810736,16 C156.249751,16 159.420077,18.9998249 159.420077,23.0894449 C159.420077,27.1777813 156.249751,30.1776062 151.810736,30.1776062 C147.346626,30.1776062 144.2,27.1777813 144.2,23.0894449 L144.2,23.0894449 L144.2,23.0894449 Z M156.709653,22.984556 C156.709653,20.178425 154.781663,18.0849421 151.810731,18.0849421 C148.817638,18.0849421 146.910425,20.178425 146.910425,22.984556 C146.910425,25.7690915 148.817638,27.8841699 151.810731,27.8841699 C154.781663,27.8841699 156.709653,25.7690915 156.709653,22.984556 L156.709653,22.984556 L156.709653,22.984556 Z" id="Fill-6" fill="#FFFFFF"></path>
                                    <polyline id="Fill-7" fill="#FFFFFF" points="172.631427 29.9606178 164.973322 20.1205581 164.973322 29.9606178 162.4 29.9606178 162.4 16.2 165.040679 16.2 172.543451 25.7320342 172.543451 16.2 175.118147 16.2 175.118147 29.9606178 172.631427 29.9606178"></polyline>
                                </g>
                            </g>
                        </g>
                    </g>
                </g>
            </g>
        </g>
    </g>
</svg>