<?xml version="1.0" encoding="UTF-8" standalone="no"?>
<svg width="43px" height="40px" viewBox="0 0 43 40" version="1.1" xmlns="http://www.w3.org/2000/svg" xmlns:xlink="http://www.w3.org/1999/xlink">
    <!-- Generator: Sketch 39.1 (31720) - http://www.bohemiancoding.com/sketch -->
    <title>Hand up</title>
    <desc>Created with Sketch.</desc>
    <defs></defs>
    <g id="Page-1" stroke="none" stroke-width="1" fill="none" fill-rule="evenodd">
        <g id="Landing-page" transform="translate(-757.000000, -8134.000000)">
            <g id="Why-Gaius" transform="translate(80.000000, 8079.000000)">
                <g id="Group-7" transform="translate(659.000000, 0.000000)">
                    <g id="Hand-up" transform="translate(18.000000, 55.000000)">
                        <g id="Group-6" transform="translate(67.500000, 62.500000) rotate(-360.000000) translate(-67.500000, -62.500000) ">
                            <path d="M46.7868254,63.7733017 C46.7868254,63.7733017 65.3125,38.1491732 74.1308594,33.6096995 C82.9492187,29.0702259 82.95782,12.4405087 89.2480469,9.39917238 C95.5382737,6.36236861 95.9188183,21.504436 95.9188183,26.0439097 C95.9188183,30.5833834 94.2871094,33.6097006 91.7675781,38.1491743 C89.2480469,42.688648 84.846911,51.5399683 83.7185534,53.2442045 L122.710283,55.2974464 C122.710283,55.2974464 128.300781,57.3824162 128.300781,62.6537636 C128.300781,67.9205785 124.267269,70.2729683 123.138912,70.2729683 C122.006891,70.2729683 105.347848,70.5585185 105.347848,70.5585185 L115.382171,71.9726719 C115.382171,71.9726719 119.532914,74.2797363 119.532914,80.5618408 C119.532914,86.8439453 114.206188,87.3062647 114.206188,87.3062647 L103.985027,89.2054002 L110.956665,89.0059683 C110.953001,89.0059683 115.173351,90.1798969 115.173351,96.6614333 C115.173351,103.147502 110.172676,104.339561 107.271185,104.339561 C104.366031,104.339561 95.9188174,106.241278 95.9188174,106.241278 C95.9188174,106.241278 105.981634,107.439993 105.981634,113.119269 C105.981634,118.794013 102.754091,121.372857 98.8817736,121.372857 L64.4558785,121.372857 C64.4558785,121.372857 53.3415568,118.186652 48.1796875,113.119269 L25,113.119269 L25,63.7733017 L46.7868254,63.7733017 L46.7868254,63.7733017 Z M-1.42108547e-14,52 L25,52 L25,125 L-1.42108547e-14,125 L-1.42108547e-14,52 L-1.42108547e-14,52 Z" id="Combined-Shape" fill-opacity="0.1" fill="#000000"></path>
                            <path d="M53.2500905,57.3119898 C53.4547967,57.0319079 53.6939246,56.7066698 53.965192,56.340048 C54.7411544,55.2913235 55.6183565,54.1222367 56.5785144,52.8629933 C59.3212492,49.2659072 62.1773462,45.6692431 64.9993792,42.3157018 C66.324189,40.7413743 67.6124361,39.2559843 68.8549876,37.8743509 C73.4635476,32.7499434 77.2595533,29.2600807 79.8173977,27.9433656 C83.806477,25.8898861 86.1386225,22.1593558 88.7060646,15.367838 C88.9966658,14.5991262 89.9497043,12.0013293 89.9762637,11.9297608 C91.8608049,6.8515568 93.1473096,4.5975116 94.9009843,3.74960664 C96.4748212,2.98978795 97.6125689,4.30459289 98.477866,8.20528747 C99.1633616,11.2954504 99.4188183,15.12934 99.4188183,19.0439097 C99.4188183,22.6317631 98.6215158,24.7179733 95.4560481,30.4212395 C94.6481802,31.876786 93.6746168,33.7155983 92.1762631,36.5944053 C88.458218,43.7410194 87.9880227,44.6304571 87.4678423,45.4161213 C86.8272076,46.3837161 87.4808271,47.681106 88.6396751,47.7421291 L127.631404,49.7953711 L127.186126,49.7028857 C127.302733,49.7463741 127.549461,49.8550087 127.881253,50.0308918 C128.447101,50.3308481 129.014024,50.7026492 129.537787,51.144917 C130.972759,52.3566137 131.800781,53.8365522 131.800781,55.6537636 C131.800781,57.6281111 131.142911,59.2258304 130.04027,60.4215489 C129.61208,60.8858843 129.137515,61.2610885 128.684478,61.5166568 C128.378138,61.6894703 128.133856,61.7729683 128.138912,61.7729683 C127.645113,61.7729683 124.40704,61.8231121 119.248787,61.9084193 C119.02131,61.9121828 119.02131,61.9121828 118.794009,61.9159495 C116.909813,61.9471849 114.917605,61.9806509 112.943092,62.0141167 C111.825683,62.0330805 111.825683,62.0330805 111.040294,62.046467 C110.452346,62.056507 110.452346,62.056507 110.322141,62.0587388 C108.473695,62.0904228 108.307893,64.7858473 110.13852,65.0438405 L120.172842,66.4579939 L119.653442,66.2837609 C119.710719,66.3155964 119.866271,66.4188719 120.087954,66.5980063 C120.484247,66.9182383 120.886299,67.3242563 121.264374,67.820504 C122.366887,69.2676236 123.032914,71.1498516 123.032914,73.5618408 C123.032914,75.8087848 122.284113,77.1984289 121.029087,78.0474166 C120.588256,78.3456256 120.108677,78.5569277 119.62956,78.6926862 C119.352694,78.7711369 119.153582,78.8051913 119.076487,78.8118827 L108.71101,80.7306409 C106.891544,81.0687056 107.178068,83.757704 109.027919,83.7047868 L115.999556,83.5053549 C117.970354,83.4489779 117.928269,80.5059683 115.956665,80.5059683 L115.283669,83.3465195 C115.546282,83.4494664 115.566894,83.456869 115.59303,83.4670383 C115.682559,83.5018736 115.788443,83.55019 115.906927,83.613575 C116.266608,83.8059926 116.63331,84.07726 116.980195,84.4405072 C118.026916,85.5366025 118.673351,87.2066932 118.673351,89.6614333 C118.673351,94.050689 116.071204,95.8395611 112.271185,95.8395611 C111.116736,95.8395611 109.253993,96.0868009 106.815402,96.5217893 C106.301725,96.6134173 105.769528,96.7122888 105.222597,96.8173525 C104.129138,97.0274025 103.027526,97.2522129 101.971703,97.4770237 C101.602092,97.5557231 101.264439,97.6288373 100.96554,97.6945149 C100.785466,97.7340829 100.657806,97.7624972 100.589369,97.7779045 C98.9445981,98.148191 99.0672867,100.531324 100.741387,100.730748 C100.800955,100.737844 100.928853,100.755485 101.115033,100.785169 C101.434184,100.836053 101.792025,100.901983 102.17838,100.984349 C103.279467,101.219086 104.378656,101.536134 105.391563,101.942628 C108.030505,103.001674 109.481634,104.403024 109.481634,106.119269 C109.481634,110.577915 107.293687,112.872857 103.881774,112.872857 L69.4558785,112.872857 L69.8692416,112.930938 C69.7347869,112.892393 69.4717316,112.813295 69.0986292,112.695132 C68.4707815,112.496289 67.7696685,112.261286 67.0139308,111.99168 C64.8564097,111.221994 62.7000236,110.331834 60.6962954,109.336211 C57.9630483,107.978101 55.7429543,106.533621 54.2305057,105.048857 C53.9500393,104.773525 53.5727134,104.619269 53.1796875,104.619269 L30,104.619269 L31.5,106.119269 L31.5,56.7733017 L30,58.2733017 L51.7868254,58.2733017 C52.6152525,58.2733017 53.2868254,57.6017288 53.2868254,56.7733017 C53.2868254,55.9448746 52.6152525,55.2733017 51.7868254,55.2733017 L30,55.2733017 C29.1715729,55.2733017 28.5,55.9448746 28.5,56.7733017 L28.5,106.119269 C28.5,106.947696 29.1715729,107.619269 30,107.619269 L53.1796875,107.619269 L52.1288693,107.189681 C53.9031215,108.931456 56.3697982,110.536372 59.3613531,112.022832 C61.4819611,113.076531 63.7445066,114.010513 66.0059173,114.817261 C66.7968056,115.099407 67.5318455,115.345782 68.1928528,115.555126 C68.5930635,115.681875 68.8823746,115.768868 69.0425154,115.814777 C69.1769227,115.853308 69.3160572,115.872857 69.4558785,115.872857 L103.881774,115.872857 C108.983425,115.872857 112.481634,112.203579 112.481634,106.119269 C112.481634,102.866147 110.159207,100.623387 106.508889,99.1584619 C105.320555,98.6815665 104.061271,98.3183414 102.803885,98.0502832 C102.048205,97.8891823 101.453538,97.7943709 101.096248,97.7518093 L101.248266,100.704653 C101.311816,100.690346 101.434471,100.663045 101.609376,100.624613 C101.902108,100.560291 102.233429,100.488547 102.596472,100.411247 C103.633947,100.190342 104.71642,99.9694378 105.78854,99.763487 C106.322922,99.6608339 106.842163,99.5643695 107.342217,99.4751714 C109.607961,99.0710149 111.35177,98.8395611 112.271185,98.8395611 C117.540819,98.8395611 121.673351,95.9986104 121.673351,89.6614333 C121.673351,86.447332 120.738584,84.0323239 119.149818,82.3686159 C118.573685,81.7653061 117.951497,81.3050433 117.322055,80.9683126 C117.09476,80.8467174 116.879712,80.7485872 116.680866,80.6712178 C116.427119,80.5816517 115.956665,82.0059683 115.956665,82.0059683 L115.913773,80.5065816 L108.942135,80.7060135 L109.259044,83.6801594 L119.480204,81.781024 C120.233997,81.7226977 121.466505,81.3734647 122.710015,80.5322673 C124.784193,79.1291477 126.032914,76.8117383 126.032914,73.5618408 C126.032914,70.4769885 125.142413,67.9603836 123.650711,66.0024304 C122.735074,64.8005981 121.798429,64.0437252 121.1109,63.6615829 C120.94993,63.5721129 120.773861,63.5130504 120.5915,63.4873499 L110.557177,62.0731965 L110.373556,65.0582982 C110.503648,65.0560683 110.503648,65.0560683 111.091461,65.0460306 C111.876702,65.0326467 111.876702,65.0326467 112.993931,65.0136859 C114.968101,64.9802259 116.959951,64.946766 118.843735,64.9155373 C119.070978,64.9117716 119.070978,64.9117716 119.298395,64.9080091 C124.397837,64.8236746 127.672229,64.7729683 128.138912,64.7729683 C131.056182,64.7729683 134.800781,60.7122748 134.800781,55.6537636 C134.800781,52.858546 133.532367,50.591488 131.473277,48.8527824 C130.273927,47.8400458 129.081359,47.2078649 128.234439,46.8920071 C128.091577,46.8387266 127.941425,46.8075398 127.789161,46.7995218 L88.7974317,44.7462798 L89.9692645,47.0722876 C90.5847708,46.1426461 90.9442712,45.4626029 94.7294283,38.1869445 C96.3236549,35.1238892 97.2883292,33.3018662 98.0791081,31.8771091 C101.478328,25.7526891 102.418818,23.2918147 102.418818,19.0439097 C102.418818,14.9264221 102.151378,10.9126755 101.406669,7.55558651 C100.181275,2.03159968 97.6406657,-0.904380994 93.5958985,1.04835691 C90.8530327,2.3745373 89.3358686,5.03271366 87.1636899,10.8860038 C87.1326148,10.9697408 86.1842927,13.5546816 85.8998885,14.3070008 C83.5817496,20.4390501 81.5608371,23.671728 78.444321,25.2760335 C75.459399,26.8125977 71.47002,30.4802384 66.624368,35.8682761 C65.358683,37.2756323 64.0490698,38.7856581 62.7039707,40.3840963 C59.8477252,43.7782937 56.9627297,47.4113496 54.1928901,51.0439835 C53.223647,52.3151421 52.3378271,53.4957143 51.5535633,54.5556581 C51.2787516,54.9270702 51.0361554,55.2570255 50.8280447,55.5417655 C50.7026504,55.7133317 50.6162926,55.8321507 50.5712426,55.8944624 C50.0858731,56.5658103 50.2366383,57.503515 50.9079861,57.9888845 C51.5793339,58.474254 52.5170386,58.3234889 53.0024082,57.652141 C53.0444736,57.5939574 53.1277946,57.4793167 53.2500905,57.3119898 Z" id="Imported-Layers-3" fill="#FFFFFF"></path>
                            <path d="M30,46.5 L28.5,45 L28.5,118 L30,116.5 L5,116.5 L6.5,118 L6.5,45 L5,46.5 L30,46.5 Z M3.5,45 L3.5,118 C3.5,118.828427 4.17157288,119.5 5,119.5 L30,119.5 C30.8284271,119.5 31.5,118.828427 31.5,118 L31.5,45 C31.5,44.1715729 30.8284271,43.5 30,43.5 L5,43.5 C4.17157288,43.5 3.5,44.1715729 3.5,45 Z" id="Rectangle-2524" fill="#FFFFFF"></path>
                            <path d="M21,57 C21,54.8270792 19.477434,53 17.5,53 C15.522566,53 14,54.8270792 14,57 C14,59.1729208 15.522566,61 17.5,61 C19.477434,61 21,59.1729208 21,57 Z M16,57 C16,55.8592123 16.7160103,55 17.5,55 C18.2839897,55 19,55.8592123 19,57 C19,58.1407877 18.2839897,59 17.5,59 C16.7160103,59 16,58.1407877 16,57 Z" id="Oval-1852" fill="#FFFFFF"></path>
                        </g>
                    </g>
                </g>
            </g>
        </g>
    </g>
</svg>