<?xml version="1.0" encoding="UTF-8" standalone="no"?>
<svg width="60px" height="60px" viewBox="0 0 60 60" version="1.1" xmlns="http://www.w3.org/2000/svg" xmlns:xlink="http://www.w3.org/1999/xlink">
    <!-- Generator: Sketch 39.1 (31720) - http://www.bohemiancoding.com/sketch -->
    <title>Page 1</title>
    <desc>Created with Sketch.</desc>
    <defs></defs>
    <g id="Page-1" stroke="none" stroke-width="1" fill="none" fill-rule="evenodd">
        <g id="Landing-page" transform="translate(-205.000000, -3222.000000)" fill="#9E0043">
            <g id="Icons-Red" transform="translate(107.000000, 3057.000000)">
                <path d="M139.25,172.5 C138.213125,172.5 137.375,173.34 137.375,174.375 C137.375,175.41 138.213125,176.25 139.25,176.25 C143.38625,176.25 146.75,179.61375 146.75,183.75 C146.75,184.785 147.588125,185.625 148.625,185.625 C149.661875,185.625 150.5,184.785 150.5,183.75 C150.5,177.545625 145.454375,172.5 139.25,172.5 M128,221.04 C111.546875,212.874375 101.75,198.991875 101.75,183.75 C101.75,175.479375 108.479375,168.75 116.75,168.75 C119.77625,168.75 122.706875,169.68375 125.19125,171.38625 C122.279375,174.691875 120.5,179.011875 120.5,183.75 C120.5,184.785 121.338125,185.625 122.375,185.625 C123.411875,185.625 124.25,184.785 124.25,183.75 C124.25,179.285625 126.2225,175.280625 129.3275,172.531875 C129.61625,172.275 129.914375,172.033125 130.22,171.800625 C130.2875,171.751875 130.356875,171.6975 130.42625,171.646875 C130.724375,171.429375 131.03,171.22125 131.343125,171.028125 C131.429375,170.97375 131.515625,170.919375 131.60375,170.86875 C131.905625,170.686875 132.215,170.518125 132.528125,170.35875 C132.636875,170.304375 132.7475,170.25375 132.858125,170.199375 C133.158125,170.056875 133.461875,169.921875 133.77125,169.801875 C133.908125,169.745625 134.04875,169.69875 134.1875,169.648125 C134.478125,169.543125 134.770625,169.441875 135.066875,169.355625 C135.245,169.305 135.425,169.261875 135.605,169.216875 C135.87125,169.149375 136.14125,169.08 136.413125,169.0275 C136.65875,168.980625 136.91,168.94875 137.16125,168.913125 C137.375,168.88125 137.58875,168.845625 137.804375,168.823125 C138.280625,168.778125 138.7625,168.75 139.25,168.75 C147.520625,168.75 154.25,175.479375 154.25,183.75 C154.25,198.991875 144.455,212.874375 128,221.04 M139.25,165 C138.670625,165 138.095,165.035625 137.52125,165.088125 C137.31125,165.106875 137.103125,165.136875 136.895,165.165 C136.544375,165.208125 136.195625,165.260625 135.84875,165.324375 C135.595625,165.37125 135.344375,165.42375 135.095,165.48 C134.808125,165.545625 134.52125,165.6225 134.23625,165.70125 C133.96625,165.77625 133.69625,165.849375 133.43,165.935625 C133.19,166.014375 132.955625,166.11 132.7175,166.198125 C132.09125,166.4325 131.48,166.695 130.889375,166.993125 C130.769375,167.05125 130.649375,167.101875 130.533125,167.16375 C130.22,167.32875 129.918125,167.5125 129.61625,167.694375 C129.449375,167.79375 129.2825,167.89125 129.119375,167.998125 C128.825,168.185625 128.54375,168.38625 128.2625,168.58875 C128.17625,168.650625 128.08625,168.706875 128,168.770625 C124.758125,166.329375 120.820625,165 116.75,165 C106.41125,165 98,173.409375 98,183.75 C98,200.720625 108.9125,216.07125 127.19,224.814375 C127.446875,224.938125 127.7225,225 128,225 C128.275625,225 128.553125,224.938125 128.81,224.814375 C147.0875,216.07125 158,200.720625 158,183.75 C158,173.409375 149.58875,165 139.25,165" id="Page-1"></path>
            </g>
        </g>
    </g>
</svg>