<?xml version="1.0" encoding="UTF-8" standalone="no"?>
<svg width="59px" height="59px" viewBox="0 0 59 59" version="1.1" xmlns="http://www.w3.org/2000/svg" xmlns:xlink="http://www.w3.org/1999/xlink">
    <!-- Generator: Sketch 39.1 (31720) - http://www.bohemiancoding.com/sketch -->
    <title>Fill 1</title>
    <desc>Created with Sketch.</desc>
    <defs></defs>
    <g id="Page-1" stroke="none" stroke-width="1" fill="none" fill-rule="evenodd">
        <g id="Landing-page" transform="translate(-937.000000, -3212.000000)" fill="#9E0043">
            <g id="Icons-Red" transform="translate(107.000000, 3057.000000)">
                <g id="Page-1" transform="translate(830.000000, 155.000000)">
                    <path d="M32.7245455,27.2463636 C32.7245455,29.2536364 31.0936364,30.8863636 29.0881818,30.8863636 C27.0827273,30.8863636 25.4518182,29.2536364 25.4518182,27.2463636 C25.4518182,25.2390909 27.0827273,23.6063636 29.0881818,23.6063636 C31.0936364,23.6063636 32.7245455,25.2390909 32.7245455,27.2463636 L32.7245455,27.2463636 Z M21.8154545,27.2463636 C21.8154545,31.2609091 25.0772727,34.5263636 29.0881818,34.5263636 C33.0990909,34.5263636 36.3609091,31.2609091 36.3609091,27.2463636 C36.3609091,23.2318182 33.0990909,19.9663636 29.0881818,19.9663636 C25.0772727,19.9663636 21.8154545,23.2318182 21.8154545,27.2463636 L21.8154545,27.2463636 Z M54.01,30.3536364 C53.3227273,31.0390909 52.1263636,31.0390909 51.4390909,30.3536364 L31.6590909,10.5536364 L32.9445455,9.26636364 C33.3972727,8.81363636 33.7336364,8.29 33.9936364,7.74272727 L54.01,27.7790909 C54.7190909,28.49 54.7190909,29.6427273 54.01,30.3536364 L54.01,30.3536364 Z M47.27,54.5463636 L39.9972727,54.5463636 L39.9972727,41.8063636 C39.9972727,39.7990909 38.3663636,38.1663636 36.3609091,38.1663636 L21.8154545,38.1663636 C19.81,38.1663636 18.1790909,39.7990909 18.1790909,41.8063636 L18.1790909,54.5463636 L10.9063636,54.5463636 L10.9063636,31.3263636 L29.0881818,13.1263636 L47.27,31.3263636 L47.27,54.5463636 Z M6.73727273,30.3536364 C6.05,31.0390909 4.85363636,31.0390909 4.16636364,30.3536364 C3.45727273,29.6427273 3.45727273,28.49 4.16636364,27.7790909 L24.1827273,7.74272727 C24.4427273,8.29 24.7790909,8.81363636 25.2318182,9.26636364 L26.5172727,10.5536364 L6.73727273,30.3536364 Z M27.8027273,4.11909091 C28.1463636,3.77727273 28.6027273,3.58636364 29.0881818,3.58636364 C29.5736364,3.58636364 30.03,3.77727273 30.3736364,4.11909091 C31.0827273,4.83 31.0827273,5.98454545 30.3736364,6.69363636 L29.0881818,7.97909091 L27.8027273,6.69363636 C27.0936364,5.98454545 27.0936364,4.83 27.8027273,4.11909091 L27.8027273,4.11909091 Z M56.5809091,25.2063636 L32.9445455,1.54636364 C30.8827273,-0.515454545 27.2936364,-0.515454545 25.2318182,1.54636364 L1.59545455,25.2063636 C-0.531818182,27.3354545 -0.531818182,30.7972727 1.59545455,32.9263636 C2.62636364,33.9572727 3.99545455,34.5263636 5.45181818,34.5263636 C6.08454545,34.5263636 6.69181818,34.4009091 7.27,34.1954545 L7.27,54.5463636 C7.27,56.5518182 8.90090909,58.1863636 10.9063636,58.1863636 L18.1790909,58.1863636 C20.1845455,58.1863636 21.8154545,56.5518182 21.8154545,54.5463636 L21.8154545,41.8063636 L36.3609091,41.8063636 L36.3609091,54.5463636 C36.3609091,56.5518182 37.9918182,58.1863636 39.9972727,58.1863636 L47.27,58.1863636 C49.2754545,58.1863636 50.9063636,56.5518182 50.9063636,54.5463636 L50.9063636,34.1954545 C51.4845455,34.4009091 52.0918182,34.5263636 52.7245455,34.5263636 C54.1809091,34.5263636 55.55,33.9572727 56.5809091,32.9263636 C58.7081818,30.7972727 58.7081818,27.3354545 56.5809091,25.2063636 L56.5809091,25.2063636 Z" id="Fill-1"></path>
                </g>
            </g>
        </g>
    </g>
</svg>