<?xml version="1.0" encoding="UTF-8" standalone="no"?>
<svg width="29px" height="60px" viewBox="0 0 29 60" version="1.1" xmlns="http://www.w3.org/2000/svg" xmlns:xlink="http://www.w3.org/1999/xlink">
    <!-- Generator: Sketch 39.1 (31720) - http://www.bohemiancoding.com/sketch -->
    <title>Fill 1</title>
    <desc>Created with Sketch.</desc>
    <defs></defs>
    <g id="Page-1" stroke="none" stroke-width="1" fill="none" fill-rule="evenodd">
        <g id="Landing-page" transform="translate(-709.000000, -3568.000000)" fill="#9E0043">
            <g id="Icons-Red" transform="translate(107.000000, 3057.000000)">
                <path d="M624.60125,557.396875 C623.4725,558.91 621.955625,560.08 620.15375,560.846875 C616.66625,562.18 613.1825,561.769375 610.30625,559.93 C608.654375,558.896875 607.409375,557.505625 606.625625,555.8425 C606.125,554.704375 605.87375,553.48375 605.87375,552.2125 C605.87375,551.659375 606.06125,551.2375 606.475625,550.849375 C606.925625,550.433125 607.428125,550.238125 608.0525,550.238125 C608.675,550.238125 609.171875,550.429375 609.618125,550.84 C610.038125,551.235625 610.2275,551.6575 610.2275,552.2125 C610.2275,553.27375 610.56125,554.3125 611.31875,555.4375 C611.984375,556.27 612.8225,556.9 613.88,557.340625 C615.678125,558.000625 617.75,557.839375 619.394375,556.7875 C620.320625,556.15375 621.02,555.356875 621.501875,554.355625 C621.8,553.669375 621.951875,552.92875 621.951875,552.1525 C621.951875,551.30125 621.768125,550.49875 621.47375,549.915625 C621.155,549.094375 620.680625,548.29375 620,547.43125 C619.42625,546.735625 618.708125,545.978125 617.87,545.18125 C617.03,544.3825 615.9575,543.47125 614.631875,542.438125 L612.16625,540.3925 C611.3675,539.72125 610.619375,539.005 609.880625,538.200625 C608.346875,536.670625 607.229375,535.099375 606.56375,533.531875 C606.025625,532.245625 605.75,530.985625 605.75,529.7875 C605.75,528.83125 605.901875,527.90875 606.20375,527.0425 C606.51125,526.1425 606.940625,525.29125 607.409375,524.605 C608.676875,522.986875 610.22,521.8225 612.055625,521.119375 C613.235,520.62625 614.560625,520.375 615.993125,520.375 C618.138125,520.375 620.09375,520.924375 621.794375,521.99875 C623.41625,523.039375 624.66875,524.44 625.484375,526.080625 C625.986875,527.2375 626.24375,528.4825 626.24375,529.7875 C626.24375,530.303125 626.05625,530.70625 625.64,531.094375 C624.73625,531.92875 623.38625,531.919375 622.499375,531.098125 C622.0775,530.70625 621.89,530.303125 621.89,529.7875 C621.89,528.690625 621.55625,527.63125 620.795,526.495 C620.125625,525.66625 619.265,525.03625 618.23375,524.625625 C616.521875,523.943125 614.459375,524.0875 612.779375,525.175 C611.823125,525.7825 611.105,526.5925 610.638125,527.595625 C610.325,528.278125 610.165625,529.013125 610.165625,529.7875 C610.165625,530.64625 610.349375,531.454375 610.64375,532.01875 C610.964375,532.85125 611.46125,533.678125 612.1325,534.503125 C612.695,535.24375 613.401875,535.995625 614.298125,536.809375 C615.15875,537.5875 616.229375,538.495 617.590625,539.584375 C618.194375,540.0625 618.74,540.495625 619.326875,540.971875 C619.960625,541.4875 620.590625,542.05 621.24125,542.69125 C621.869375,543.274375 622.4225,543.844375 622.889375,544.391875 C623.3675,544.950625 623.81,545.49625 624.185,545.98375 C624.815,546.859375 625.270625,547.67875 625.5725,548.51125 C626.103125,549.773125 626.37125,551.02 626.37125,552.2125 C626.37125,554.066875 625.775,555.810625 624.60125,557.396875 M629.0675,547.14625 C628.679375,546.0775 628.0625,544.950625 627.194375,543.746875 C626.744375,543.16 626.260625,542.56375 625.74125,541.958125 C625.1825,541.301875 624.52625,540.623125 623.8325,539.981875 C623.140625,539.2975 622.416875,538.650625 621.689375,538.06 C621.093125,537.578125 620.53625,537.13375 619.86875,536.603125 C618.6425,535.620625 617.62625,534.761875 616.81625,534.030625 C616.105625,533.385625 615.531875,532.78 615.078125,532.185625 C614.620625,531.619375 614.3225,531.1375 614.07125,530.505625 C613.9625,530.291875 613.915625,530.070625 613.915625,529.7875 C613.915625,529.55875 613.956875,529.3525 614.039375,529.174375 C614.204375,528.82375 614.435,528.566875 614.8025,528.3325 C615.505625,527.876875 616.248125,527.87125 616.848125,528.11125 C617.271875,528.278125 617.615,528.5275 617.770625,528.705625 C618.025625,529.09 618.14,529.42375 618.14,529.7875 C618.14,531.34375 618.764375,532.748125 619.95125,533.846875 C622.22,535.94875 625.90625,535.954375 628.188125,533.843125 C629.369375,532.748125 629.99375,531.34375 629.99375,529.7875 C629.99375,527.965 629.63375,526.211875 628.881875,524.5 C627.725,522.158125 626.020625,520.253125 623.80625,518.835625 C622.023125,517.706875 620.0525,517.016875 617.93375,516.7525 L617.93375,512.875 C617.93375,511.84 617.095625,511 616.05875,511 C615.02375,511 614.18375,511.84 614.18375,512.875 L614.18375,516.743125 C612.9275,516.893125 611.740625,517.1875 610.65875,517.639375 C608.234375,518.5675 606.149375,520.133125 604.390625,522.385 C603.659375,523.44625 603.07625,524.603125 602.66,525.818125 C602.22125,527.07625 602,528.413125 602,529.7875 C602,531.484375 602.37125,533.231875 603.11,534.990625 C603.96875,537.011875 605.35625,538.98625 607.173125,540.791875 C607.9625,541.65625 608.8325,542.48875 609.76625,543.270625 L612.27875,545.3575 C613.55,546.349375 614.5325,547.181875 615.284375,547.9 C616.00625,548.584375 616.63625,549.248125 617.0825,549.78625 C617.504375,550.3225 617.796875,550.804375 618.0425,551.42125 C618.15125,551.63875 618.201875,551.876875 618.201875,552.1525 C618.201875,552.413125 618.155,552.641875 618.09125,552.791875 C617.924375,553.13875 617.6675,553.425625 617.3225,553.66 C616.975625,553.883125 616.604375,553.9825 616.124375,553.9825 C615.78875,553.9825 615.468125,553.928125 615.24875,553.849375 C614.85125,553.684375 614.51375,553.43125 614.343125,553.226875 C614.015,552.735625 613.9775,552.413125 613.9775,552.2125 C613.9775,550.620625 613.353125,549.195625 612.16625,548.09125 C609.895625,545.99125 606.21125,545.98375 603.918125,548.10625 C602.744375,549.20875 602.12375,550.63 602.12375,552.2125 C602.12375,554.006875 602.48375,555.735625 603.213125,557.395 C604.326875,559.765 606.04625,561.685 608.3,563.096875 C610.113125,564.255625 612.0875,564.968125 614.18375,565.241875 L614.18375,569.125 C614.18375,570.161875 615.02375,571 616.05875,571 C617.095625,571 617.93375,570.161875 617.93375,569.125 L617.93375,565.24375 C619.13,565.088125 620.335625,564.791875 621.558125,564.323125 C624.0425,563.265625 626.07875,561.68875 627.610625,559.631875 C629.2775,557.38375 630.12125,554.888125 630.12125,552.2125 C630.12125,550.519375 629.755625,548.785 629.0675,547.14625" id="Fill-1"></path>
            </g>
        </g>
    </g>
</svg>