<?xml version="1.0" encoding="UTF-8" standalone="no"?>
<svg width="90px" height="40px" viewBox="0 0 90 40" version="1.1" xmlns="http://www.w3.org/2000/svg" xmlns:xlink="http://www.w3.org/1999/xlink">
    <!-- Generator: Sketch 39.1 (31720) - http://www.bohemiancoding.com/sketch -->
    <title>Group 5</title>
    <desc>Created with Sketch.</desc>
    <defs></defs>
    <g id="Page-1" stroke="none" stroke-width="1" fill="none" fill-rule="evenodd">
        <g id="Landing-page" transform="translate(-190.000000, -3578.000000)" fill="#9E0043">
            <g id="Icons-Red" transform="translate(107.000000, 3057.000000)">
                <g id="Group-5" transform="translate(83.000000, 521.000000)">
                    <path d="M72.4963675,18.7304117 C72.4963675,20.1103039 71.3752051,21.2327162 69.9965628,21.2327162 C68.6179205,21.2327162 67.4967581,20.1103039 67.4967581,18.7304117 C67.4967581,17.3505195 68.6179205,16.2281072 69.9965628,16.2281072 C71.3752051,16.2281072 72.4963675,17.3505195 72.4963675,18.7304117 L72.4963675,18.7304117 Z M64.9969534,18.7304117 C64.9969534,21.4901961 67.2392782,23.7350207 69.9965628,23.7350207 C72.7538474,23.7350207 74.9961722,21.4901961 74.9961722,18.7304117 C74.9961722,15.9706273 72.7538474,13.7258027 69.9965628,13.7258027 C67.2392782,13.7258027 64.9969534,15.9706273 64.9969534,18.7304117 L64.9969534,18.7304117 Z M87.1289743,20.8664948 C86.6565112,21.337708 85.8340755,21.337708 85.3616124,20.8664948 L71.7639247,7.2550582 L72.6476057,6.37012733 C72.9588313,6.05890165 73.1900633,5.69892977 73.3687993,5.32270916 L87.1289743,19.0966331 C87.6164362,19.5853449 87.6164362,20.377783 87.1289743,20.8664948 L87.1289743,20.8664948 Z M82.4955863,37.4976955 L77.4959769,37.4976955 L77.4959769,28.7396297 C77.4959769,27.3597375 76.3748145,26.2373252 74.9961722,26.2373252 L64.9969534,26.2373252 C63.6183111,26.2373252 62.4971487,27.3597375 62.4971487,28.7396297 L62.4971487,37.4976955 L57.4975393,37.4976955 L57.4975393,21.5351926 L69.9965628,9.02367003 L82.4955863,21.5351926 L82.4955863,37.4976955 Z M54.6315132,20.8664948 C54.1590501,21.337708 53.3366143,21.337708 52.8641512,20.8664948 C52.3766893,20.377783 52.3766893,19.5853449 52.8641512,19.0966331 L66.6243262,5.32270916 C66.8030623,5.69892977 67.0342942,6.05890165 67.3455199,6.37012733 L68.2292008,7.2550582 L54.6315132,20.8664948 Z M69.1128818,2.83165378 C69.3491134,2.59667213 69.6628388,2.46543239 69.9965628,2.46543239 C70.3302867,2.46543239 70.6440122,2.59667213 70.8802437,2.83165378 C71.3677056,3.3203656 71.3677056,4.11405359 70.8802437,4.60151551 L69.9965628,5.48519647 L69.1128818,4.60151551 C68.6254199,4.11405359 68.6254199,3.3203656 69.1128818,2.83165378 L69.1128818,2.83165378 Z M88.8963362,17.3280212 L72.6476057,1.06304195 C71.2302164,-0.354347317 68.7629091,-0.354347317 67.3455199,1.06304195 L51.0967893,17.3280212 C49.6344036,18.7916569 49.6344036,21.171471 51.0967893,22.6351066 C51.8054839,23.3438013 52.7466604,23.7350207 53.7478322,23.7350207 C54.1827982,23.7350207 54.6002656,23.6487774 54.9977346,23.5075385 L54.9977346,37.4976955 C54.9977346,38.8763378 56.118897,40 57.4975393,40 L62.4971487,40 C63.875791,40 64.9969534,38.8763378 64.9969534,37.4976955 L64.9969534,28.7396297 L74.9961722,28.7396297 L74.9961722,37.4976955 C74.9961722,38.8763378 76.1173346,40 77.4959769,40 L82.4955863,40 C83.8742286,40 84.995391,38.8763378 84.995391,37.4976955 L84.995391,23.5075385 C85.3928599,23.6487774 85.8103273,23.7350207 86.2452933,23.7350207 C87.2464651,23.7350207 88.1876416,23.3438013 88.8963362,22.6351066 C90.358722,21.171471 90.358722,18.7916569 88.8963362,17.3280212 L88.8963362,17.3280212 Z" id="Fill-1"></path>
                    <path d="M22.4963675,18.7304117 C22.4963675,20.1103039 21.3752051,21.2327162 19.9965628,21.2327162 C18.6179205,21.2327162 17.4967581,20.1103039 17.4967581,18.7304117 C17.4967581,17.3505195 18.6179205,16.2281072 19.9965628,16.2281072 C21.3752051,16.2281072 22.4963675,17.3505195 22.4963675,18.7304117 L22.4963675,18.7304117 Z M14.9969534,18.7304117 C14.9969534,21.4901961 17.2392782,23.7350207 19.9965628,23.7350207 C22.7538474,23.7350207 24.9961722,21.4901961 24.9961722,18.7304117 C24.9961722,15.9706273 22.7538474,13.7258027 19.9965628,13.7258027 C17.2392782,13.7258027 14.9969534,15.9706273 14.9969534,18.7304117 L14.9969534,18.7304117 Z M37.1289743,20.8664948 C36.6565112,21.337708 35.8340755,21.337708 35.3616124,20.8664948 L21.7639247,7.2550582 L22.6476057,6.37012733 C22.9588313,6.05890165 23.1900633,5.69892977 23.3687993,5.32270916 L37.1289743,19.0966331 C37.6164362,19.5853449 37.6164362,20.377783 37.1289743,20.8664948 L37.1289743,20.8664948 Z M32.4955863,37.4976955 L27.4959769,37.4976955 L27.4959769,28.7396297 C27.4959769,27.3597375 26.3748145,26.2373252 24.9961722,26.2373252 L14.9969534,26.2373252 C13.6183111,26.2373252 12.4971487,27.3597375 12.4971487,28.7396297 L12.4971487,37.4976955 L7.49753925,37.4976955 L7.49753925,21.5351926 L19.9965628,9.02367003 L32.4955863,21.5351926 L32.4955863,37.4976955 Z M4.63151316,20.8664948 C4.15905007,21.337708 3.33661433,21.337708 2.86415124,20.8664948 C2.37668932,20.377783 2.37668932,19.5853449 2.86415124,19.0966331 L16.6243262,5.32270916 C16.8030623,5.69892977 17.0342942,6.05890165 17.3455199,6.37012733 L18.2292008,7.2550582 L4.63151316,20.8664948 Z M19.1128818,2.83165378 C19.3491134,2.59667213 19.6628388,2.46543239 19.9965628,2.46543239 C20.3302867,2.46543239 20.6440122,2.59667213 20.8802437,2.83165378 C21.3677056,3.3203656 21.3677056,4.11405359 20.8802437,4.60151551 L19.9965628,5.48519647 L19.1128818,4.60151551 C18.6254199,4.11405359 18.6254199,3.3203656 19.1128818,2.83165378 L19.1128818,2.83165378 Z M38.8963362,17.3280212 L22.6476057,1.06304195 C21.2302164,-0.354347317 18.7629091,-0.354347317 17.3455199,1.06304195 L1.09678931,17.3280212 C-0.365596438,18.7916569 -0.365596438,21.171471 1.09678931,22.6351066 C1.80548395,23.3438013 2.74666042,23.7350207 3.7478322,23.7350207 C4.18279822,23.7350207 4.6002656,23.6487774 4.99773455,23.5075385 L4.99773455,37.4976955 C4.99773455,38.8763378 6.11889696,40 7.49753925,40 L12.4971487,40 C13.875791,40 14.9969534,38.8763378 14.9969534,37.4976955 L14.9969534,28.7396297 L24.9961722,28.7396297 L24.9961722,37.4976955 C24.9961722,38.8763378 26.1173346,40 27.4959769,40 L32.4955863,40 C33.8742286,40 34.995391,38.8763378 34.995391,37.4976955 L34.995391,23.5075385 C35.3928599,23.6487774 35.8103273,23.7350207 36.2452933,23.7350207 C37.2464651,23.7350207 38.1876416,23.3438013 38.8963362,22.6351066 C40.358722,21.171471 40.358722,18.7916569 38.8963362,17.3280212 L38.8963362,17.3280212 Z" id="Fill-1-Copy"></path>
                </g>
            </g>
        </g>
    </g>
</svg>