<?xml version="1.0" encoding="UTF-8" standalone="no"?>
<svg width="60px" height="60px" viewBox="0 0 60 60" version="1.1" xmlns="http://www.w3.org/2000/svg" xmlns:xlink="http://www.w3.org/1999/xlink">
    <!-- Generator: Sketch 39.1 (31720) - http://www.bohemiancoding.com/sketch -->
    <title>Fill 1</title>
    <desc>Created with Sketch.</desc>
    <defs></defs>
    <g id="Page-1" stroke="none" stroke-width="1" fill="none" fill-rule="evenodd">
        <g id="Landing-page" transform="translate(-693.000000, -3212.000000)" fill="#9E0043">
            <g id="Icons-Red" transform="translate(107.000000, 3057.000000)">
                <g id="Page-1" transform="translate(586.000000, 155.000000)">
                    <path d="M50.9143594,55.106381 L32.8543594,45.257006 L55.4574844,9.564506 L50.9143594,55.106381 Z M24.3737344,51.641381 L24.3737344,41.955131 L44.8149844,19.361381 L24.3737344,51.641381 Z M21.6662344,39.356381 L7.82498439,39.356381 L45.5687344,12.937631 L21.6662344,39.356381 Z M59.9649844,1.884506 C59.9649844,1.815131 59.9649844,1.749506 59.9574844,1.683881 C59.9499844,1.618256 59.9518594,1.550756 59.9406094,1.487006 C59.9312344,1.449506 59.9106094,1.415756 59.9031094,1.382006 C59.8806094,1.312631 59.8599844,1.243256 59.8318594,1.177631 C59.8149844,1.138256 59.8093594,1.097006 59.7924844,1.057631 C59.7624844,1.001381 59.7231094,0.948881004 59.6874844,0.892631004 C59.6537344,0.838256004 59.6181094,0.785756004 59.5787344,0.737006004 C59.5224844,0.665756004 59.4681094,0.594506004 59.4006094,0.530756004 C59.3874844,0.515756004 59.3799844,0.497006004 59.3668594,0.482006004 C59.3368594,0.455756004 59.3012344,0.452006004 59.2712344,0.427631004 C59.2412344,0.399506004 59.2074844,0.375131004 59.1737344,0.350756004 C59.1512344,0.332006004 59.1381094,0.305756004 59.1118594,0.290756004 C59.1043594,0.285131004 59.0949844,0.285131004 59.0874844,0.281381004 C59.0762344,0.272006004 59.0687344,0.260756004 59.0556094,0.255131004 C58.9843594,0.212006004 58.9037344,0.195131004 58.8287344,0.163256004 C58.7687344,0.138881004 58.7106094,0.110756004 58.6487344,0.0920060042 C58.5924844,0.0713810042 58.5381094,0.0582560042 58.4781094,0.0470060042 C58.4106094,0.0320060042 58.3468594,0.0320060042 58.2774844,0.0245060042 C58.1931094,0.0170060042 58.1106094,-0.00174399578 58.0262344,0.000131004224 C58.0018594,0.00388100422 57.9812344,0.0132560042 57.9587344,0.0151310042 C57.9137344,0.0170060042 57.8706094,0.0320060042 57.8237344,0.0395060042 C57.7543594,0.0507560042 57.6887344,0.0582560042 57.6212344,0.0751310042 C57.5443594,0.0976310042 57.4712344,0.122006004 57.3981094,0.153881004 C57.3399844,0.178256004 57.2856094,0.208256004 57.2274844,0.240131004 C57.1787344,0.266381004 57.1262344,0.285131004 57.0756094,0.315131004 C57.0624844,0.324506004 57.0474844,0.328256004 57.0362344,0.335756004 L57.0343594,0.335756004 L0.801234387,39.695756 C0.128109387,40.164506 -0.158765613,41.015756 0.0868593867,41.795756 C0.332484387,42.573881 1.05623439,43.106381 1.87373439,43.106381 L20.6237344,43.106381 L20.6237344,58.106381 C20.6237344,58.177631 20.6556094,58.235756 20.6631094,58.301381 C20.6781094,58.430756 20.7006094,58.552631 20.7381094,58.676381 C20.7774844,58.790756 20.8243594,58.893881 20.8806094,58.998881 C20.9387344,59.102006 21.0006094,59.197631 21.0774844,59.287631 C21.1599844,59.388881 21.2518594,59.473256 21.3531094,59.552006 C21.4074844,59.597006 21.4374844,59.655131 21.4956094,59.690756 C21.5537344,59.728256 21.6174844,59.743256 21.6756094,59.771381 C21.7374844,59.801381 21.7918594,59.827631 21.8537344,59.852006 C22.0656094,59.928881 22.2793594,59.983256 22.4987344,59.983256 L22.5024844,59.983256 C22.7256094,59.981381 22.9412344,59.928881 23.1493594,59.850131 C23.1943594,59.833256 23.2374844,59.820131 23.2824844,59.799506 C23.4718594,59.713256 23.6481094,59.598881 23.8018594,59.448881 C23.8281094,59.424506 23.8468594,59.394506 23.8693594,59.368256 C23.9443594,59.283881 24.0212344,59.207006 24.0849844,59.109506 L30.8612344,48.405131 C30.9024844,48.433256 30.9324844,48.478256 30.9756094,48.502631 L51.6006094,59.752631 C52.1537344,60.050756 52.8193594,60.062006 53.3781094,59.763881 C53.9312344,59.471381 54.3043594,58.918256 54.3662344,58.292006 L59.9724844,2.060756 C59.9799844,2.000756 59.9649844,1.942631 59.9649844,1.884506 L59.9649844,1.884506 Z" id="Fill-1"></path>
                </g>
            </g>
        </g>
    </g>
</svg>