<?xml version="1.0" encoding="UTF-8" standalone="no"?>
<svg width="70px" height="60px" viewBox="0 0 70 60" version="1.1" xmlns="http://www.w3.org/2000/svg" xmlns:xlink="http://www.w3.org/1999/xlink">
    <!-- Generator: Sketch 39.1 (31720) - http://www.bohemiancoding.com/sketch -->
    <title>Icon Copy 2</title>
    <desc>Created with Sketch.</desc>
    <defs></defs>
    <g id="Page-1" stroke="none" stroke-width="1" fill="none" fill-rule="evenodd">
        <g id="Landing-page" transform="translate(-229.000000, -2491.000000)" fill="#F5AA02">
            <g id="Icons-Yellow" transform="translate(110.000000, 2116.000000)">
                <g id="Icon/kostenrisiko" transform="translate(119.000000, 375.000000)">
                    <path d="M50.4244898,60 L43.077551,60 C42.4004082,60 41.8530612,59.4526531 41.8530612,58.7755102 L41.8530612,52.1302041 C39.1836735,52.5930612 36.3783673,52.7485714 33.6710204,52.5955102 C32.3338776,52.6665306 30.9661224,52.6726531 29.6081633,52.6138776 L29.6081633,58.7755102 C29.6081633,59.4526531 29.0595918,60 28.3836735,60 L21.0367347,60 C20.3595918,60 19.8122449,59.4526531 19.8122449,58.7755102 L19.8122449,50.9902041 C8.05346939,47.4795918 0.220408163,38.8897959 0.220408163,29.3877551 C0.220408163,28.7106122 0.767755102,28.1632653 1.44489796,28.1632653 L9.39795918,28.1632653 C10.1302041,25.6187755 11.522449,23.1893878 13.4804082,21.0391837 L10.0542857,17.3546939 C9.72612245,17.0020408 9.6355102,16.4902041 9.82163265,16.0457143 C10.0089796,15.602449 10.4387755,15.3085714 10.92,15.2963265 L22.0836735,15.0159184 C26.2053061,13.202449 30.9171429,12.244898 35.7306122,12.244898 C48.6379592,12.244898 59.5763265,18.9795918 62.1220408,28.3677551 C62.4514286,28.5881633 62.6693878,28.9616327 62.6693878,29.3877551 C62.6693878,29.9204082 62.644898,30.4506122 62.5983673,30.9697959 C62.644898,31.4546939 62.6693878,31.9518367 62.6693878,32.4489796 C62.6693878,38.9142857 58.564898,44.9681633 51.6489796,48.7616327 L51.6489796,58.7755102 C51.6489796,59.4526531 51.1004082,60 50.4244898,60 L50.4244898,60 L50.4244898,60 Z M44.3020408,57.5510204 L49.2,57.5510204 L49.2,48.0269388 C49.2,47.5677551 49.4559184,47.1477551 49.8636735,46.9383673 C56.3485714,43.5991837 60.2204082,38.1844898 60.2204082,32.4489796 C60.2204082,31.9959184 60.1971429,31.5477551 60.1506122,31.1032653 C60.1408163,31.0212245 60.1408163,30.9379592 60.1493878,30.8546939 C60.1714286,30.6379592 60.1861224,30.4212245 60.1983673,30.2032653 C60.062449,30.0502041 59.9632653,29.8616327 59.9167347,29.6510204 C58.0432653,21.1236735 47.6461224,14.6938776 35.7306122,14.6938776 C31.1730612,14.6938776 26.7220408,15.6122449 22.8612245,17.3510204 C22.7130612,17.4183673 22.5526531,17.4538776 22.3897959,17.4587755 L13.6983673,17.6779592 L16.0628571,20.22 C16.5146939,20.704898 16.497551,21.4616327 16.0236735,21.9269388 C13.7032653,24.2044898 12.1555102,26.8738776 11.5457143,29.6510204 C11.4220408,30.2118367 10.924898,30.6122449 10.3493878,30.6122449 L2.71959184,30.6122449 C3.39061224,38.7465306 10.7106122,45.9918367 21.357551,48.8840816 C21.8902041,49.0285714 22.2612245,49.5122449 22.2612245,50.0657143 L22.2612245,57.5510204 L27.1591837,57.5510204 L27.1591837,51.3146939 C27.1591837,50.9742857 27.3012245,50.6485714 27.5497959,50.4171429 C27.7995918,50.1857143 28.1363265,50.0706122 28.4742857,50.0938776 C30.1702041,50.2212245 31.9187755,50.2383673 33.6073469,50.1453061 C33.6514286,50.1428571 33.6991837,50.1440816 33.7457143,50.1465306 C36.7579592,50.3228571 39.8902041,50.0889796 42.8155102,49.4473469 C43.1742857,49.3640816 43.5538776,49.4559184 43.8453061,49.6885714 C44.1330612,49.9212245 44.3020408,50.2726531 44.3020408,50.642449 L44.3020408,57.5510204 L44.3020408,57.5510204 L44.3020408,57.5510204 Z" id="Fill-799"></path>
                    <path d="M48.9795918,16.5306122 C48.302449,16.5306122 47.755102,15.9832653 47.755102,15.3061224 C47.755102,8.21632653 41.9877551,2.44897959 34.8979592,2.44897959 C27.8081633,2.44897959 22.0408163,8.21632653 22.0408163,15.3061224 C22.0408163,15.9832653 21.4934694,16.5306122 20.8163265,16.5306122 C20.1391837,16.5306122 19.5918367,15.9832653 19.5918367,15.3061224 C19.5918367,6.86571429 26.457551,0 34.8979592,0 C43.3383673,0 50.2040816,6.86571429 50.2040816,15.3061224 C50.2040816,15.9832653 49.6567347,16.5306122 48.9795918,16.5306122" id="Fill-800"></path>
                    <path d="M61.4216327,30.9808163 C60.8559184,30.9808163 60.3489796,30.5865306 60.2265306,30.0122449 C60.0844898,29.3510204 60.5069388,28.6995918 61.1669388,28.5587755 C61.2465306,28.5416327 69.0036735,26.8163265 67.9763265,21.9771429 C67.5391837,19.9212245 66.2742857,19.2134694 65.2897959,18.9844898 C64.0138776,18.6881633 62.8689796,19.1093878 62.5346939,19.5318367 C62.4538776,19.6359184 62.4244898,19.7057143 62.5187755,19.8906122 C63.3746939,21.604898 64.2465306,21.4102041 64.4914286,21.3061224 C65.102449,21.0538776 65.8236735,21.3257143 66.0942857,21.9269388 C66.3661224,22.5293878 66.1310204,23.2310204 65.5359184,23.5212245 C64.442449,24.0563265 61.9444898,24.2167347 60.3281633,20.9865306 C59.8212245,19.9714286 59.9228571,18.8877551 60.6134694,18.0146939 C61.6481633,16.7032653 63.8008163,16.1191837 65.8469388,16.6004082 C68.1820408,17.1453061 69.8302041,18.9195918 70.3726531,21.4677551 C71.0216327,24.5302041 69.6514286,27.1653061 66.4089796,29.0853061 C64.1608163,30.417551 61.7767347,30.9330612 61.6763265,30.9538776 C61.5918367,30.9722449 61.504898,30.9808163 61.4216327,30.9808163" id="Fill-801"></path>
                    <path d="M18.3673469,30.6122449 C17.0179592,30.6122449 15.9183673,29.5126531 15.9183673,28.1632653 C15.9183673,26.8126531 17.0179592,25.7142857 18.3673469,25.7142857 C19.7167347,25.7142857 20.8163265,26.8126531 20.8163265,28.1632653 C20.8163265,29.5126531 19.7167347,30.6122449 18.3673469,30.6122449" id="Fill-802"></path>
                </g>
            </g>
        </g>
    </g>
</svg>