<?xml version="1.0" encoding="UTF-8" standalone="no"?>
<svg width="60px" height="64px" viewBox="0 0 60 64" version="1.1" xmlns="http://www.w3.org/2000/svg" xmlns:xlink="http://www.w3.org/1999/xlink">
    <!-- Generator: Sketch 39.1 (31720) - http://www.bohemiancoding.com/sketch -->
    <title>Page 1</title>
    <desc>Created with Sketch.</desc>
    <defs></defs>
    <g id="Page-1" stroke="none" stroke-width="1" fill="none" fill-rule="evenodd">
        <g id="Landing-page" transform="translate(-205.000000, -3394.000000)" fill="#9E0043">
            <g id="Icons-Red" transform="translate(107.000000, 3057.000000)">
                <path d="M154,395 L102,395 C100.896,395 100,394.104 100,393 C100,391.896 100.896,391 102,391 L154,391 C155.104,391 156,391.896 156,393 C156,394.104 155.104,395 154,395 M154,387 L102,387 C98.692,387 96,389.692 96,393 C96,396.308 98.692,399 102,399 L154,399 C157.308,399 160,396.308 160,393 C160,389.692 157.308,387 154,387 M154,379 L102,379 C100.896,379 100,378.104 100,377 C100,375.896 100.896,375 102,375 L154,375 C155.104,375 156,375.896 156,377 C156,378.104 155.104,379 154,379 M154,371 L102,371 C98.692,371 96,373.692 96,377 C96,380.308 98.692,383 102,383 L154,383 C157.308,383 160,380.308 160,377 C160,373.692 157.308,371 154,371 M102,343 L154,343 C155.104,343 156,343.898 156,345 C156,346.104 155.104,347 154,347 L102,347 C100.896,347 100,346.104 100,345 C100,343.898 100.896,343 102,343 M102,351 L154,351 C157.308,351 160,348.308 160,345 C160,341.692 157.308,339 154,339 L102,339 C98.692,339 96,341.692 96,345 C96,348.308 98.692,351 102,351 M154,363 L102,363 C100.896,363 100,362.104 100,361 C100,359.898 100.896,359 102,359 L154,359 C155.104,359 156,359.898 156,361 C156,362.104 155.104,363 154,363 M154,355 L102,355 C98.692,355 96,357.692 96,361 C96,364.308 98.692,367 102,367 L154,367 C157.308,367 160,364.308 160,361 C160,357.692 157.308,355 154,355" id="Page-1" transform="translate(128.000000, 369.000000) rotate(-270.000000) translate(-128.000000, -369.000000) "></path>
            </g>
        </g>
    </g>
</svg>