<?xml version="1.0" encoding="UTF-8" standalone="no"?>
<svg width="65px" height="60px" viewBox="0 0 65 60" version="1.1" xmlns="http://www.w3.org/2000/svg" xmlns:xlink="http://www.w3.org/1999/xlink">
    <!-- Generator: Sketch 39.1 (31720) - http://www.bohemiancoding.com/sketch -->
    <title>Icon Copy</title>
    <desc>Created with Sketch.</desc>
    <defs></defs>
    <g id="Page-1" stroke="none" stroke-width="1" fill="none" fill-rule="evenodd">
        <g id="Landing-page" transform="translate(-903.000000, -2257.000000)" fill="#F5AA02">
            <g id="Icons-Yellow" transform="translate(110.000000, 2116.000000)">
                <g id="Icon/A-Z" transform="translate(793.000000, 141.000000)">
                    <path d="M32.5,60 C20.24375,60 9.33625,52.6675 4.71,41.32125 C4.45,40.68125 4.75625,39.95125 5.395,39.69125 C6.035,39.4275 6.765,39.73625 7.025,40.37625 C11.26625,50.77875 21.265,57.5 32.5,57.5 C47.66375,57.5 60,45.16375 60,30 C60,29.30875 60.56,28.75 61.25,28.75 C61.94,28.75 62.5,29.30875 62.5,30 C62.5,46.54125 49.04125,60 32.5,60 L32.5,60 L32.5,60 Z M3.75,31.25 C3.06,31.25 2.5,30.69125 2.5,30 C2.5,13.45875 15.95875,0 32.5,0 C44.84625,0 55.78375,7.40625 60.3675,18.86875 C60.62375,19.50875 60.31125,20.23625 59.67,20.4925 C59.03,20.75125 58.3025,20.43875 58.045,19.79625 C53.84375,9.29 43.8175,2.5 32.5,2.5 C17.33625,2.5 5,14.83625 5,30 C5,30.69125 4.44,31.25 3.75,31.25 L3.75,31.25 L3.75,31.25 Z" id="Fill-154"></path>
                    <path d="M59.59125,21.8625 C59.42125,21.8625 59.24875,21.82875 59.08375,21.75375 L49.9475,17.68625 C49.3175,17.40625 49.03375,16.6675 49.31375,16.0375 C49.595,15.40625 50.33375,15.11875 50.96375,15.40375 L58.95875,18.9625 L62.5175,10.96875 C62.7975,10.3375 63.535,10.0525 64.1675,10.33625 C64.7975,10.61625 65.08125,11.355 64.80125,11.985 L60.73375,21.12 C60.52625,21.58625 60.07,21.8625 59.59125,21.8625" id="Fill-155"></path>
                    <path d="M1.39875,49.72 C1.22875,49.72 1.05625,49.68625 0.89,49.6125 C0.26,49.33125 -0.02375,48.5925 0.2575,47.9625 L4.325,38.8275 C4.60625,38.19625 5.34125,37.9075 5.975,38.19375 L15.11,42.26125 C15.74125,42.54125 16.025,43.28 15.74375,43.91 C15.46375,44.5425 14.72375,44.8275 14.09375,44.54375 L6.1,40.985 L2.54125,48.97875 C2.33375,49.445 1.87625,49.72 1.39875,49.72" id="Fill-156"></path>
                </g>
            </g>
        </g>
    </g>
</svg>