<?xml version="1.0" encoding="UTF-8" standalone="no"?>
<svg width="64px" height="60px" viewBox="0 0 64 60" version="1.1" xmlns="http://www.w3.org/2000/svg" xmlns:xlink="http://www.w3.org/1999/xlink">
    <!-- Generator: Sketch 39.1 (31720) - http://www.bohemiancoding.com/sketch -->
    <title>Icon/Rocket</title>
    <desc>Created with Sketch.</desc>
    <defs></defs>
    <g id="Page-1" stroke="none" stroke-width="1" fill="none" fill-rule="evenodd">
        <g id="Landing-page" transform="translate(-904.000000, -2491.000000)" fill="#F5AA02">
            <g id="Icons-Yellow" transform="translate(110.000000, 2116.000000)">
                <g id="Icon/Rocket" transform="translate(794.000000, 375.000000)">
                    <path d="M23.214,30.166 C27.439,32.196 30.096,36.483 30.013,41.194 C30.01,41.361 30.004,41.529 29.995,41.696 C31.567,39.862 32.436,37.503 32.393,35.015 C32.383,34.457 32.328,33.899 32.226,33.355 C32.132,32.848 32.438,32.353 32.934,32.211 C37.062,31.027 40.858,28.786 43.912,25.732 C50.032,19.612 52.603,10.979 50.853,2.527 C49.155,2.177 47.417,2 45.679,2 C38.869,2 32.464,4.652 27.648,9.468 C24.592,12.525 22.352,16.321 21.169,20.446 C21.028,20.942 20.527,21.248 20.027,21.154 C19.481,21.053 18.922,20.997 18.365,20.988 L18.185,20.986 C15.769,20.986 13.477,21.854 11.688,23.386 C11.854,23.376 12.021,23.37 12.187,23.367 L12.402,23.365 C17.019,23.365 21.221,26.022 23.214,30.166 M28.492,45.348 C28.28,45.348 28.068,45.281 27.89,45.146 C27.55,44.89 27.41,44.448 27.539,44.043 C27.837,43.111 27.997,42.141 28.013,41.159 C28.084,37.125 25.745,33.465 22.056,31.834 C21.829,31.733 21.647,31.551 21.545,31.323 C19.946,27.704 16.356,25.365 12.402,25.365 L12.222,25.367 C11.236,25.384 10.266,25.543 9.338,25.841 C8.933,25.97 8.491,25.83 8.235,25.491 C7.978,25.152 7.965,24.688 8.201,24.334 C10.435,20.985 14.167,18.986 18.185,18.986 L18.4,18.988 C18.767,18.994 19.136,19.017 19.502,19.057 C20.831,14.931 23.147,11.142 26.234,8.054 C31.428,2.86 38.333,0 45.679,0 C47.779,0 49.878,0.239 51.918,0.713 C52.29,0.8 52.58,1.09 52.667,1.461 C54.83,10.784 52.085,20.386 45.326,27.146 C42.241,30.232 38.452,32.548 34.324,33.878 C34.364,34.244 34.386,34.613 34.393,34.981 C34.464,39.086 32.465,42.899 29.046,45.18 C28.878,45.292 28.685,45.348 28.492,45.348" id="Fill-1"></path>
                    <path d="M42.851,8.029 C42.184,8.029 41.556,8.289 41.083,8.761 C40.611,9.233 40.351,9.861 40.351,10.529 C40.351,11.197 40.611,11.824 41.083,12.297 C42.03,13.242 43.676,13.241 44.619,12.297 C45.091,11.824 45.351,11.197 45.351,10.529 C45.351,9.861 45.091,9.233 44.619,8.761 C44.146,8.289 43.519,8.029 42.851,8.029 M42.851,15.029 C41.65,15.029 40.52,14.561 39.669,13.711 C38.819,12.861 38.351,11.731 38.351,10.529 C38.351,9.326 38.819,8.197 39.669,7.347 C40.519,6.497 41.65,6.029 42.851,6.029 C44.053,6.029 45.183,6.497 46.033,7.347 C46.883,8.197 47.351,9.326 47.351,10.529 C47.351,11.731 46.883,12.861 46.033,13.711 C45.183,14.561 44.053,15.029 42.851,15.029" id="Fill-3"></path>
                    <path d="M32.952,15.928 C31.75,15.928 30.62,16.396 29.77,17.246 C28.919,18.096 28.452,19.226 28.452,20.428 C28.452,21.63 28.919,22.76 29.77,23.61 C30.62,24.46 31.75,24.928 32.952,24.928 C34.154,24.928 35.284,24.46 36.134,23.61 C37.888,21.856 37.888,19 36.134,17.246 C35.284,16.396 34.154,15.928 32.952,15.928 M32.952,26.928 C31.215,26.928 29.583,26.252 28.356,25.024 C27.128,23.797 26.452,22.164 26.452,20.428 C26.452,18.692 27.128,17.059 28.356,15.832 C29.583,14.604 31.215,13.928 32.952,13.928 C34.688,13.928 36.321,14.604 37.548,15.832 C40.082,18.366 40.082,22.49 37.548,25.024 C36.321,26.252 34.688,26.928 32.952,26.928" id="Fill-5"></path>
                    <path d="M14.893,33.986 C13.691,33.986 12.561,34.454 11.711,35.304 C10.483,36.532 9.094,41.45 8.305,45.074 C11.929,44.285 16.847,42.896 18.076,41.668 C19.829,39.914 19.829,37.058 18.076,35.304 C17.225,34.454 16.095,33.986 14.893,33.986 M7.021,47.359 C6.758,47.359 6.503,47.255 6.314,47.066 C6.079,46.832 5.977,46.496 6.039,46.171 C6.233,45.156 7.997,36.189 10.297,33.89 C11.525,32.662 13.157,31.986 14.893,31.986 C16.629,31.986 18.262,32.662 19.49,33.89 C22.024,36.424 22.024,40.548 19.49,43.082 C17.19,45.382 8.223,47.147 7.208,47.341 C7.146,47.353 7.083,47.359 7.021,47.359" id="Fill-7"></path>
                    <polygon id="Fill-9" points="1.945 49.32 0 48.851 2.47 38.6 4.414 39.069"></polygon>
                    <polygon id="Fill-11" points="13.116 50.614 12.925 48.624 19.169 48.029 19.36 50.019"></polygon>
                </g>
            </g>
        </g>
    </g>
</svg>