<?xml version="1.0" encoding="UTF-8" standalone="no"?>
<svg width="61px" height="60px" viewBox="0 0 61 60" version="1.1" xmlns="http://www.w3.org/2000/svg" xmlns:xlink="http://www.w3.org/1999/xlink">
    <!-- Generator: Sketch 39.1 (31720) - http://www.bohemiancoding.com/sketch -->
    <title>Fill 1</title>
    <desc>Created with Sketch.</desc>
    <defs></defs>
    <g id="Page-1" stroke="none" stroke-width="1" fill="none" fill-rule="evenodd">
        <g id="Landing-page" transform="translate(-449.000000, -3222.000000)" fill="#9E0043">
            <g id="Icons-Red" transform="translate(107.000000, 3057.000000)">
                <path d="M396.90845,220.122385 L383.858346,205.733328 C387.644545,203.989313 392.257745,204.715048 395.297581,207.777388 C398.614959,211.111643 399.171918,216.19554 396.90845,220.122385 L396.90845,220.122385 Z M347.1309,220.122385 C344.869307,216.19554 345.424391,211.111643 348.739894,207.777388 C351.785356,204.715048 356.39668,203.989313 360.181004,205.733328 L347.1309,220.122385 Z M360.994878,192.392554 L347.412192,176.236978 C346.347031,175.166191 345.760067,173.74285 345.760067,172.229496 C345.760067,171.408121 345.94572,170.620502 346.272019,169.896642 L367.46836,193.272062 C365.347413,194.387857 362.68826,194.087811 360.994878,192.392554 L360.994878,192.392554 Z M397.76733,169.896642 C398.095505,170.620502 398.279283,171.408121 398.279283,172.229496 C398.279283,173.74285 397.692319,175.166191 396.520266,176.353246 L383.151363,192.274411 C381.371718,194.065308 378.697563,194.380356 376.572866,193.270187 L397.76733,169.896642 Z M381.232947,202.836013 L376.075915,197.150151 C377.06044,197.493328 378.08622,197.697734 379.123252,197.697734 C381.561122,197.697734 384.01587,196.746965 385.917408,194.832299 L399.286311,178.909259 C401.058455,177.125863 402.035478,174.753628 402.035478,172.229496 C402.035478,169.703487 401.058455,167.331253 399.286311,165.545982 C399.275059,165.53473 399.260057,165.532855 399.248805,165.523478 C399.237553,165.512227 399.233803,165.495349 399.222551,165.485973 C399.136288,165.407211 399.033147,165.373456 398.935633,165.313447 C398.830617,165.247812 398.734977,165.165299 398.620585,165.122168 C398.502442,165.077161 398.380548,165.071535 398.26053,165.052782 C398.142387,165.032154 398.031746,164.996524 397.915478,165.000274 C397.789834,165.002149 397.669816,165.043406 397.546047,165.071535 C397.435405,165.097789 397.322888,165.107165 397.215997,165.152172 C397.095979,165.20468 396.996588,165.296569 396.885947,165.373456 C396.801559,165.433465 396.705919,165.469095 396.629033,165.545982 C396.615906,165.555358 396.615906,165.570361 396.604654,165.581612 C396.593402,165.592864 396.5784,165.596615 396.567148,165.609742 L372.02155,192.677597 L347.474077,165.609742 C347.462825,165.596615 347.447823,165.592864 347.436571,165.581612 C347.423444,165.570361 347.421569,165.555358 347.412192,165.545982 C347.331555,165.463469 347.226539,165.425964 347.136526,165.362204 C347.03151,165.289068 346.941496,165.20468 346.825228,165.154047 C346.708961,165.103415 346.583317,165.092163 346.459548,165.067784 C346.347031,165.043406 346.24014,165.002149 346.127623,165.000274 C346.003854,164.996524 345.880085,165.034029 345.760067,165.056533 C345.645674,165.075285 345.531282,165.079036 345.42064,165.122168 C345.304373,165.165299 345.206858,165.247812 345.098091,165.317197 C345.004327,165.377206 344.903062,165.409086 344.818674,165.485973 C344.807422,165.495349 344.803672,165.512227 344.79242,165.523478 C344.781168,165.532855 344.766166,165.53473 344.754914,165.545982 C342.97902,167.331253 342.001997,169.703487 342.001997,172.229496 C342.001997,174.753628 342.97902,177.125863 344.649898,178.792991 L358.230708,194.948567 C360.062861,196.791971 362.468851,197.712736 364.872966,197.712736 C365.92125,197.712736 366.960157,197.504579 367.961559,197.153901 L362.808278,202.836013 C357.446839,199.779299 350.532666,200.626928 346.084491,205.103232 C340.844946,210.372781 340.616162,218.83594 345.572538,224.37553 C345.591291,224.396158 345.623171,224.40366 345.641924,224.426163 C345.668178,224.450542 345.675679,224.482421 345.700058,224.5068 C345.806949,224.604315 345.930718,224.654948 346.052611,224.724333 C346.123872,224.765589 346.183881,224.821848 346.257017,224.849977 C346.487677,224.943741 346.725838,225 346.96775,225 C347.205911,225 347.444072,224.945617 347.670982,224.853728 C347.747868,224.823723 347.809753,224.765589 347.882889,224.722458 C347.999156,224.656823 348.12105,224.608066 348.224191,224.514301 C348.248569,224.491798 348.257946,224.459918 348.280449,224.437415 C348.302953,224.414911 348.334832,224.40741 348.35546,224.383031 L372.02155,198.288448 L395.682014,224.383031 C395.704518,224.40741 395.736397,224.414911 395.758901,224.437415 C395.781404,224.459918 395.790781,224.491798 395.815159,224.514301 C395.920175,224.609941 396.042069,224.658698 396.160212,224.726208 C396.231472,224.765589 396.293357,224.823723 396.370243,224.853728 C396.595278,224.945617 396.833439,225 397.0716,225 C397.315387,225 397.553548,224.943741 397.782333,224.849977 C397.855469,224.821848 397.915478,224.765589 397.986739,224.724333 C398.106757,224.654948 398.234276,224.604315 398.337417,224.5068 C398.361796,224.482421 398.373047,224.450542 398.395551,224.426163 C398.418054,224.40366 398.446183,224.396158 398.468687,224.37553 C403.423188,218.83594 403.198154,210.372781 397.954859,205.103232 C393.510435,200.626928 386.59251,199.779299 381.232947,202.836013 L381.232947,202.836013 Z" id="Fill-1"></path>
            </g>
        </g>
    </g>
</svg>