<?xml version="1.0" encoding="UTF-8" standalone="no"?>
<svg width="60px" height="60px" viewBox="0 0 60 60" version="1.1" xmlns="http://www.w3.org/2000/svg" xmlns:xlink="http://www.w3.org/1999/xlink">
    <!-- Generator: Sketch 39.1 (31720) - http://www.bohemiancoding.com/sketch -->
    <title>Page 1</title>
    <desc>Created with Sketch.</desc>
    <defs></defs>
    <g id="Page-1" stroke="none" stroke-width="1" fill="none" fill-rule="evenodd">
        <g id="Landing-page" transform="translate(-937.000000, -3400.000000)" fill="#9E0043">
            <g id="Icons-Red" transform="translate(107.000000, 3057.000000)">
                <path d="M859.999319,376.510923 C858.061087,376.510923 856.488737,374.938573 856.488737,373.000341 C856.488737,371.062109 858.061087,369.489758 859.999319,369.489758 C861.937551,369.489758 863.509902,371.062109 863.509902,373.000341 C863.509902,374.938573 861.937551,376.510923 859.999319,376.510923 M859.999319,364.102863 C855.094636,364.102863 851.103717,368.095658 851.103717,373.000341 C851.103717,377.905024 855.094636,381.895943 859.999319,381.895943 C864.904002,381.895943 868.896797,377.905024 868.896797,373.000341 C868.896797,368.095658 864.904002,364.102863 859.999319,364.102863 M859.999319,385.528486 C853.090733,385.528486 847.471175,379.908927 847.471175,373.000341 C847.471175,366.091755 853.090733,360.47032 859.999319,360.47032 C866.907905,360.47032 872.527464,366.091755 872.527464,373.000341 C872.527464,379.908927 866.907905,385.528486 859.999319,385.528486 M859.999319,356.717693 C851.023036,356.717693 843.718548,364.022181 843.718548,373.000341 C843.718548,381.976624 851.023036,389.281112 859.999319,389.281112 C868.975603,389.281112 876.280091,381.976624 876.280091,373.000341 C876.280091,364.022181 868.975603,356.717693 859.999319,356.717693 M884.241289,385.222646 C880.860172,383.715967 876.704138,384.453358 874.081051,387.082073 C871.377284,389.785841 870.713069,393.857441 872.219749,397.24231 C871.020784,397.846483 869.778665,398.362469 868.500895,398.780887 C867.174342,395.322842 863.826999,392.911779 859.999319,392.911779 C856.17164,392.911779 852.824297,395.322842 851.499619,398.780887 C850.22185,398.362469 848.977854,397.846483 847.77889,397.24231 C849.289322,393.859317 848.626984,389.785841 845.919463,387.080197 C844.204513,385.365246 841.924792,384.421461 839.498719,384.421461 C838.209691,384.421461 836.930046,384.699155 835.75735,385.222646 C835.151301,384.021806 834.635314,382.77781 834.216897,381.500041 C837.676818,380.175363 840.087881,376.826144 840.087881,373.000341 C840.087881,369.172661 837.676818,365.825318 834.216897,364.498765 C834.635314,363.222872 835.151301,361.978876 835.75735,360.778035 C836.930046,361.303403 838.211568,361.581097 839.500595,361.581097 C841.926668,361.581097 844.206389,360.635435 845.92134,358.920485 C848.62886,356.214841 849.291199,352.141365 847.77889,348.756495 C848.977854,348.152322 850.219974,347.638212 851.499619,347.217918 C852.824297,350.675964 856.17164,353.087026 859.999319,353.087026 C863.826999,353.087026 867.174342,350.675964 868.500895,347.217918 C869.778665,347.638212 871.020784,348.152322 872.219749,348.756495 C870.709316,352.141365 871.373531,356.214841 874.081051,358.920485 C875.796002,360.635435 878.075723,361.579221 880.49992,361.579221 C881.788947,361.579221 883.068593,361.301527 884.241289,360.778035 C884.847338,361.978876 885.363324,363.220995 885.781742,364.498765 C882.323696,365.825318 879.910757,369.172661 879.910757,373.000341 C879.910757,376.826144 882.323696,380.175363 885.781742,381.500041 C885.363324,382.77781 884.847338,384.021806 884.241289,385.222646 M888.363549,378.308431 C885.684174,377.961313 883.663384,375.681593 883.663384,373.000341 C883.663384,370.319089 885.684174,368.035615 888.363549,367.69225 C888.896422,367.622827 889.373006,367.328245 889.675092,366.885435 C889.979055,366.440749 890.074747,365.889113 889.941529,365.369374 C889.213519,362.502367 888.080226,359.76295 886.567917,357.224298 C886.293975,356.762724 885.836155,356.439999 885.307035,356.338678 C884.776038,356.239233 884.233783,356.368699 883.80786,356.697054 C881.740163,358.295673 878.582327,358.115546 876.734159,356.265501 C874.835329,354.370425 874.651451,351.328921 876.302607,349.189924 C876.629085,348.767753 876.762303,348.221746 876.660982,347.694502 C876.559661,347.165381 876.238812,346.705685 875.777239,346.431743 C873.244216,344.923187 870.504798,343.789893 867.632162,343.058131 C867.108671,342.926789 866.558911,343.022481 866.116101,343.324568 C865.671415,343.626654 865.376833,344.105114 865.30741,344.636111 C864.964045,347.31361 862.680571,349.3344 859.999319,349.3344 C857.316191,349.3344 855.03647,347.31361 854.693105,344.637987 C854.623681,344.105114 854.330976,343.626654 853.88629,343.324568 C853.441604,343.022481 852.891844,342.928666 852.370229,343.058131 C849.495717,343.789893 846.754423,344.923187 844.2214,346.431743 C843.759827,346.705685 843.438977,347.165381 843.337656,347.694502 C843.236335,348.221746 843.369553,348.767753 843.697908,349.189924 C845.347188,351.328921 845.165185,354.370425 843.268232,356.267378 C841.420064,358.11367 838.262228,358.297549 836.190778,356.697054 C835.764855,356.370575 835.220724,356.242986 834.691604,356.338678 C834.162483,356.439999 833.704663,356.762724 833.430721,357.224298 C831.916536,359.766702 830.783243,362.507996 830.05711,365.37125 C829.925768,365.890989 830.023336,366.442625 830.325422,366.885435 C830.627509,367.328245 831.105969,367.622827 831.636966,367.69225 C834.316341,368.035615 836.335254,370.319089 836.335254,373.000341 C836.335254,375.681593 834.316341,377.961313 831.636966,378.308431 C831.105969,378.375979 830.627509,378.668684 830.325422,379.11337 C830.023336,379.558056 829.925768,380.109692 830.05711,380.629431 C830.783243,383.494562 831.918413,386.235856 833.430721,388.776384 C833.704663,389.237957 834.162483,389.560683 834.691604,389.662004 C835.216972,389.757696 835.764855,389.630107 836.188902,389.303628 C838.267857,387.705009 841.42194,387.888888 843.266356,389.733304 C845.163309,391.630257 845.347188,394.671761 843.697908,396.808882 C843.369553,397.234805 843.238211,397.780812 843.339532,398.308056 C843.440853,398.8353 843.763579,399.294997 844.223276,399.568939 C846.758175,401.077495 849.499469,402.210788 852.370229,402.94255 C852.52221,402.980077 852.677944,402.99884 852.831802,402.99884 C853.203312,402.99884 853.571069,402.890014 853.88629,402.674238 C854.330976,402.372151 854.623681,401.893691 854.693105,401.362694 C855.03647,398.683319 857.316191,396.664406 859.999319,396.664406 C862.680571,396.664406 864.964045,398.683319 865.30741,401.362694 C865.376833,401.895567 865.671415,402.374027 866.116101,402.674238 C866.558911,402.9782 867.108671,403.073892 867.632162,402.94255 C870.501045,402.210788 873.240463,401.077495 875.775362,399.568939 C876.235059,399.294997 876.557785,398.8353 876.659106,398.308056 C876.760427,397.780812 876.629085,397.236681 876.302607,396.810758 C874.653327,394.671761 874.839082,391.630257 876.734159,389.73518 C878.584204,387.885135 881.738286,387.706885 883.809736,389.303628 C884.233783,389.631983 884.779791,389.761449 885.307035,389.662004 C885.836155,389.560683 886.293975,389.237957 886.567917,388.776384 C888.080226,386.237732 889.213519,383.496438 889.941529,380.629431 C890.074747,380.109692 889.979055,379.558056 889.675092,379.115246 C889.373006,378.668684 888.896422,378.375979 888.363549,378.308431" id="Page-1"></path>
            </g>
        </g>
    </g>
</svg>