<?xml version="1.0" encoding="UTF-8" standalone="no"?>
<svg width="78px" height="64px" viewBox="0 0 78 64" version="1.1" xmlns="http://www.w3.org/2000/svg" xmlns:xlink="http://www.w3.org/1999/xlink">
    <!-- Generator: Sketch 39.1 (31720) - http://www.bohemiancoding.com/sketch -->
    <title>Browsersettings</title>
    <desc>Created with Sketch.</desc>
    <defs>
        <path d="M30.4351929,44.425613 L29.4956318,45.3651741 C28.6348959,46.2259098 27.2443308,46.2308731 26.376294,45.3628364 C25.5142671,44.5008095 25.5139147,43.1035403 26.3739563,42.2434987 L27.3135175,41.3039375 C26.5462634,40.145504 25.9917621,38.8338704 25.7057257,37.4247492 L24.377965,37.4247492 C23.1607007,37.4247492 22.173913,36.4449806 22.173913,35.2173913 C22.173913,33.9983013 23.1616823,33.0100334 24.377965,33.0100334 L25.7057257,33.0100334 C25.9917621,31.6009122 26.5462634,30.2892787 27.3135175,29.1308451 L26.3739563,28.191284 C25.5132206,27.3305481 25.5082573,25.939983 26.376294,25.0719462 C27.2383209,24.2099193 28.6355901,24.2095668 29.4956318,25.0696085 L30.4351929,26.0091697 C31.5936265,25.2419156 32.90526,24.6874143 34.3143813,24.4013778 L34.3143813,23.0736172 C34.3143813,21.8563529 35.2941498,20.8695652 36.5217391,20.8695652 C37.7408292,20.8695652 38.729097,21.8573345 38.729097,23.0736172 L38.729097,24.4013778 C40.1382183,24.6874143 41.4498518,25.2419156 42.6082853,26.0091697 L43.5478465,25.0696085 C44.4085823,24.2088728 45.7991474,24.2039095 46.6671843,25.0719462 C47.5292112,25.9339731 47.5295636,27.3312423 46.6695219,28.191284 L45.7299608,29.1308451 C46.4972148,30.2892787 47.0517162,31.6009122 47.3377526,33.0100334 L48.6655132,33.0100334 C49.8827776,33.0100334 50.8695652,33.989802 50.8695652,35.2173913 C50.8695652,36.4364813 49.8817959,37.4247492 48.6655132,37.4247492 L47.3377526,37.4247492 C47.0517162,38.8338704 46.4972148,40.145504 45.7299608,41.3039375 L46.6695219,42.2434987 C47.5302577,43.1042345 47.535221,44.4947996 46.6671843,45.3628364 C45.8051573,46.2248633 44.4078882,46.2252158 43.5478465,45.3651741 L42.6082853,44.425613 C41.4498518,45.192867 40.1382183,45.7473683 38.729097,46.0334048 L38.729097,47.3611654 C38.729097,48.5784297 37.7493284,49.5652174 36.5217391,49.5652174 C35.3026491,49.5652174 34.3143813,48.5774481 34.3143813,47.3611654 L34.3143813,46.0334048 C32.90526,45.7473683 31.5936265,45.192867 30.4351929,44.425613 L30.4351929,44.425613 L30.4351929,44.425613 Z M36.5217391,38.528428 C38.3503743,38.528428 39.8327759,37.0460264 39.8327759,35.2173913 C39.8327759,33.3887562 38.3503743,31.9063546 36.5217391,31.9063546 C34.693104,31.9063546 33.2107024,33.3887562 33.2107024,35.2173913 C33.2107024,37.0460264 34.693104,38.528428 36.5217391,38.528428 L36.5217391,38.528428 Z" id="path-1"></path>
        <mask id="mask-2" maskContentUnits="userSpaceOnUse" maskUnits="objectBoundingBox" x="0" y="0" width="28.6956522" height="28.6956522" fill="white">
            <use xlink:href="#path-1"></use>
        </mask>
    </defs>
    <g id="Page-1" stroke="none" stroke-width="1" fill="none" fill-rule="evenodd">
        <g id="Landing-page" transform="translate(-927.000000, -3566.000000)" stroke="#9E0043">
            <g id="Icons-Red" transform="translate(107.000000, 3057.000000)">
                <g id="Browsersettings" transform="translate(822.000000, 511.000000)">
                    <rect id="Rectangle-435" stroke-width="4" x="0" y="10.4347826" width="73.0434783" height="49.5652174"></rect>
                    <rect id="Rectangle-436" stroke-width="4" x="0" y="0" width="73.0434783" height="10.4347826"></rect>
                    <circle id="Oval-475" fill="#9E0043" cx="5.2173913" cy="5.2173913" r="1.30434783"></circle>
                    <ellipse id="Oval-476" fill="#9E0043" cx="11.7391304" cy="5.2173913" rx="1.30434783" ry="1.30434783"></ellipse>
                    <ellipse id="Oval-477" fill="#9E0043" cx="18.2608696" cy="5.2173913" rx="1.30434783" ry="1.30434783"></ellipse>
                    <use id="Rectangle-355" mask="url(#mask-2)" stroke-width="8" transform="translate(36.521739, 35.217391) rotate(-45.000000) translate(-36.521739, -35.217391) " xlink:href="#path-1"></use>
                </g>
            </g>
        </g>
    </g>
</svg>