<?xml version="1.0" encoding="UTF-8" standalone="no"?>
<svg width="60px" height="60px" viewBox="0 0 60 60" version="1.1" xmlns="http://www.w3.org/2000/svg" xmlns:xlink="http://www.w3.org/1999/xlink">
    <!-- Generator: Sketch 39.1 (31720) - http://www.bohemiancoding.com/sketch -->
    <title>Page 1</title>
    <desc>Created with Sketch.</desc>
    <defs></defs>
    <g id="Page-1" stroke="none" stroke-width="1" fill="none" fill-rule="evenodd">
        <g id="Landing-page" transform="translate(-698.000000, -3395.000000)" fill="#9E0043">
            <g id="Icons-Red" transform="translate(107.000000, 3057.000000)">
                <path d="M628.8,362 L632.4,362 C633.3954,362 634.2,361.1936 634.2,360.2 L634.2,356.6 C634.2,355.6064 633.3954,354.8 632.4,354.8 L628.8,354.8 C627.8046,354.8 627,355.6064 627,356.6 L627,360.2 C627,361.1936 627.8046,362 628.8,362 L628.8,362 Z M609.685714,379.2 C610.526743,379.2 610.839771,379.42 611.463943,379.862 C612.2616,380.426 613.351543,381.2 615.3372,381.2 C617.320971,381.2 618.4128,380.426 619.210457,379.864 C619.834629,379.42 620.147657,379.2 620.990571,379.2 C621.837257,379.2 622.150286,379.422 622.778229,379.864 C623.575886,380.428 624.667714,381.2 626.651486,381.2 C628.637143,381.2 629.728971,380.428 630.526629,379.864 C631.154571,379.422 631.4676,379.2 632.314286,379.2 C633.3552,379.2 634.2,378.304 634.2,377.2 C634.2,376.094 633.3552,375.2 632.314286,375.2 C630.326743,375.2 629.234914,375.974 628.437257,376.536 C627.8112,376.98 627.496286,377.2 626.651486,377.2 C625.808571,377.2 625.493657,376.98 624.869486,376.536 C624.069943,375.974 622.978114,375.2 620.990571,375.2 C619.0068,375.2 617.914971,375.974 617.117314,376.536 C616.493143,376.98 616.180114,377.2 615.3372,377.2 C614.494286,377.2 614.181257,376.98 613.557086,376.536 C612.759429,375.974 611.669486,375.2 609.685714,375.2 C608.6448,375.2 607.8,376.094 607.8,377.2 C607.8,378.304 608.6448,379.2 609.685714,379.2 L609.685714,379.2 Z M609.685714,372 C610.526743,372 610.839771,372.22 611.463943,372.662 C612.2616,373.226 613.351543,374 615.3372,374 C617.320971,374 618.4128,373.226 619.210457,372.664 C619.834629,372.22 620.147657,372 620.990571,372 C621.837257,372 622.150286,372.222 622.778229,372.666 C623.575886,373.228 624.667714,374 626.651486,374 C628.637143,374 629.728971,373.228 630.526629,372.666 C631.154571,372.222 631.4676,372 632.314286,372 C633.3552,372 634.2,371.106 634.2,370 C634.2,368.894 633.3552,368 632.314286,368 C630.326743,368 629.234914,368.774 628.437257,369.336 C627.8112,369.78 627.496286,370 626.651486,370 C625.808571,370 625.493657,369.78 624.869486,369.336 C624.069943,368.774 622.978114,368 620.990571,368 C619.0068,368 617.914971,368.774 617.117314,369.336 C616.493143,369.78 616.180114,370 615.3372,370 C614.494286,370 614.181257,369.78 613.557086,369.336 C612.759429,368.774 611.669486,368 609.685714,368 C608.6448,368 607.8,368.894 607.8,370 C607.8,371.106 608.6448,372 609.685714,372 L609.685714,372 Z M604.2,384.8 L637.8,384.8 L637.8,351.2 L604.2,351.2 L604.2,384.8 Z M639.545455,347.6 L602.454545,347.6 C601.430836,347.6 600.6,348.430836 600.6,349.454545 L600.6,386.545455 C600.6,387.571018 601.430836,388.4 602.454545,388.4 L639.545455,388.4 C640.569164,388.4 641.4,387.571018 641.4,386.545455 L641.4,349.454545 C641.4,348.430836 640.569164,347.6 639.545455,347.6 L639.545455,347.6 Z M647.4,343.485714 C647.4,343.6724 646.954971,343.977886 646.372286,344.355029 C645.278571,345.067829 643.628571,346.138914 643.628571,348.388571 C643.628571,350.636343 645.278571,351.709314 646.372286,352.420229 C646.954971,352.801143 647.4,353.104743 647.4,353.291429 C647.4,353.478114 646.954971,353.781714 646.372286,354.160743 C645.278571,354.871657 643.628571,355.942743 643.628571,358.194286 C643.628571,360.442057 645.278571,361.5188 646.372286,362.227829 C646.954971,362.606857 647.4,362.910457 647.4,363.097143 C647.4,363.283829 646.953086,363.589314 646.3704,363.968343 C645.278571,364.679257 643.628571,365.754114 643.628571,368 C643.628571,370.247771 645.278571,371.322629 646.372286,372.031657 C646.954971,372.410686 647.4,372.716171 647.4,372.904743 C647.4,373.089543 646.954971,373.393143 646.372286,373.772171 C645.280457,374.484971 643.628571,375.557943 643.628571,377.805714 C643.628571,380.055371 645.278571,381.128343 646.372286,381.837371 C646.954971,382.2164 647.4,382.52 647.4,382.708571 C647.4,382.897143 646.954971,383.202629 646.374171,383.577886 C645.346457,384.243543 643.628571,385.359886 643.628571,387.609543 C643.628571,389.864857 645.348343,390.9812 646.374171,391.644971 C646.954971,392.022114 647.4,392.325714 647.4,392.514286 L647.4,394.4 L645.514286,394.4 C645.3276,394.4 645.024,393.954971 644.644971,393.372286 C643.934057,392.278571 642.8592,390.628571 640.611429,390.628571 C638.363657,390.628571 637.290686,392.278571 636.579771,393.372286 C636.200743,393.954971 635.895257,394.4 635.708571,394.4 C635.521886,394.4 635.218286,393.954971 634.839257,393.372286 C634.128343,392.278571 633.055371,390.628571 630.805714,390.628571 C628.556057,390.628571 627.483086,392.278571 626.774057,393.372286 C626.395029,393.954971 626.091429,394.4 625.904743,394.4 C625.716171,394.4 625.410686,393.954971 625.031657,393.3704 C624.320743,392.278571 623.245886,390.628571 621,390.628571 C618.750343,390.628571 617.677371,392.278571 616.968343,393.372286 C616.589314,393.954971 616.283829,394.4 616.097143,394.4 C615.910457,394.4 615.606857,393.954971 615.227829,393.372286 C614.516914,392.278571 613.443943,390.628571 611.194286,390.628571 C608.944629,390.628571 607.873543,392.278571 607.162629,393.372286 C606.7836,393.954971 606.48,394.4 606.291429,394.4 C606.102857,394.4 605.799257,393.954971 605.422114,393.372286 C604.756457,392.346457 603.640114,390.628571 601.390457,390.628571 C599.137029,390.628571 598.020686,392.346457 597.355029,393.372286 C596.977886,393.954971 596.674286,394.4 596.485714,394.4 L594.6,394.4 L594.6,392.514286 C594.6,392.3276 595.045029,392.022114 595.627714,391.644971 C596.719543,390.932171 598.371429,389.8592 598.371429,387.609543 C598.371429,385.363657 596.719543,384.290686 595.627714,383.579771 C595.045029,383.202629 594.6,382.895257 594.6,382.708571 C594.6,382.521886 595.045029,382.218286 595.627714,381.839257 C596.719543,381.130229 598.371429,380.055371 598.371429,377.805714 C598.371429,375.557943 596.719543,374.484971 595.627714,373.774057 C595.045029,373.393143 594.6,373.089543 594.6,372.904743 C594.6,372.716171 595.046914,372.410686 595.6296,372.031657 C596.721429,371.320743 598.371429,370.245886 598.371429,368 C598.371429,365.752229 596.719543,364.677371 595.627714,363.966457 C595.045029,363.589314 594.6,363.285714 594.6,363.097143 C594.6,362.912343 595.045029,362.606857 595.627714,362.227829 C596.719543,361.5188 598.371429,360.442057 598.371429,358.194286 C598.371429,355.944629 596.719543,354.873543 595.627714,354.162629 C595.045029,353.7836 594.6,353.48 594.6,353.291429 C594.6,353.104743 595.045029,352.801143 595.625829,352.422114 C596.653543,351.756457 598.371429,350.640114 598.371429,348.388571 C598.371429,346.135143 596.651657,345.022571 595.625829,344.355029 C595.045029,343.977886 594.6,343.674286 594.6,343.485714 L594.6,341.6 L596.485714,341.6 C596.6724,341.6 596.977886,342.045029 597.355029,342.627714 C598.065943,343.721429 599.1408,345.371429 601.388571,345.371429 C603.636343,345.371429 604.7112,343.719543 605.422114,342.627714 C605.799257,342.043143 606.104743,341.6 606.289543,341.6 C606.478114,341.6 606.781714,342.045029 607.160743,342.627714 C607.871657,343.721429 608.946514,345.371429 611.196171,345.371429 C613.443943,345.371429 614.515029,343.721429 615.225943,342.627714 C615.604971,342.045029 615.908571,341.6 616.097143,341.6 C616.283829,341.6 616.5912,342.045029 616.970229,342.627714 C617.679257,343.721429 618.754114,345.371429 621,345.371429 C623.249657,345.371429 624.324514,343.719543 625.033543,342.627714 C625.412571,342.043143 625.716171,341.6 625.902857,341.6 C626.089543,341.6 626.395029,342.045029 626.772171,342.627714 C627.483086,343.721429 628.556057,345.371429 630.803829,345.371429 C633.053486,345.371429 634.126457,343.721429 634.837371,342.627714 C635.2164,342.045029 635.52,341.6 635.710457,341.6 C635.897143,341.6 636.198857,342.043143 636.576,342.623943 C637.243543,343.653543 638.358,345.371429 640.611429,345.371429 C642.862971,345.371429 643.979314,343.653543 644.646857,342.627714 C645.024,342.043143 645.3276,341.6 645.514286,341.6 L647.4,341.6 L647.4,343.485714 Z M648.271875,347.63375 C649.359375,346.926875 651,345.858125 651,343.625 L651,339.875 C651,338.838125 650.16,338 649.125,338 L645.375,338 C643.138125,338 642.07125,339.6425 641.36625,340.728125 C640.99125,341.3075 640.6875,341.75 640.5,341.75 C640.3125,341.75 640.010625,341.309375 639.63375,340.73 C638.971875,339.708125 637.865625,338 635.626875,338 C633.388125,338 632.32125,339.6425 631.614375,340.728125 C631.2375,341.3075 630.935625,341.75 630.748125,341.75 C630.564375,341.75 630.260625,341.3075 629.88375,340.728125 C629.17875,339.6425 628.11,338 625.875,338 C623.64,338 622.573125,339.6425 621.86625,340.728125 C621.49125,341.3075 621.1875,341.75 621,341.75 C620.814375,341.75 620.5125,341.3075 620.135625,340.728125 C619.42875,339.6425 618.36,338 616.125,338 C613.888125,338 612.82125,339.6425 612.114375,340.73 C611.7375,341.309375 611.435625,341.75 611.251875,341.75 C611.064375,341.75 610.760625,341.3075 610.38375,340.728125 C609.676875,339.640625 608.61,338 606.373125,338 C604.14,338 603.073125,339.640625 602.36625,340.72625 C601.989375,341.3075 601.685625,341.75 601.5,341.75 C601.3125,341.75 601.010625,341.3075 600.63375,340.728125 C599.926875,339.6425 598.86,338 596.625,338 L592.875,338 C591.84,338 591,338.838125 591,339.875 L591,343.625 C591,345.86375 592.708125,346.971875 593.73,347.63375 C594.3075,348.00875 594.75,348.3125 594.75,348.5 C594.75,348.6875 594.3075,348.989375 593.73,349.364375 C592.708125,350.02625 591,351.13625 591,353.375 C591,355.61375 592.6425,356.680625 593.73,357.3875 C594.3075,357.760625 594.75,358.064375 594.75,358.25 C594.75,358.435625 594.3075,358.74125 593.728125,359.11625 C592.640625,359.825 591,360.89 591,363.125 C591,365.361875 592.640625,366.42875 593.728125,367.13375 C594.3075,367.510625 594.75,367.814375 594.75,368 C594.75,368.185625 594.3075,368.489375 593.728125,368.864375 C592.640625,369.573125 591,370.64 591,372.876875 C591,375.111875 592.640625,376.176875 593.728125,376.88375 C594.3075,377.2625 594.75,377.564375 594.75,377.75 C594.75,377.9375 594.3075,378.24125 593.728125,378.61625 C592.640625,379.323125 591,380.388125 591,382.625 C591,384.86 592.640625,385.92875 593.728125,386.635625 C594.3075,387.0125 594.75,387.314375 594.75,387.498125 C594.75,387.6875 594.3075,387.989375 593.728125,388.36625 C592.640625,389.073125 591,390.141875 591,392.375 L591,396.125 C591,397.16 591.84,398 592.875,398 L596.625,398 C598.86375,398 599.971875,396.291875 600.635625,395.271875 C601.010625,394.6925 601.3125,394.25 601.501875,394.25 C601.6875,394.25 601.989375,394.6925 602.364375,395.27 C603.02625,396.29 604.134375,398 606.375,398 C608.61375,398 609.67875,396.3575 610.385625,395.27 C610.7625,394.6925 611.064375,394.25 611.25,394.25 C611.4375,394.25 611.739375,394.6925 612.11625,395.27375 C612.823125,396.3575 613.89,398 616.125,398 C618.361875,398 619.42875,396.3575 620.135625,395.271875 C620.510625,394.6925 620.814375,394.25 621,394.25 C621.185625,394.25 621.489375,394.6925 621.86625,395.27375 C622.573125,396.3575 623.641875,398 625.876875,398 C628.111875,398 629.17875,396.3575 629.885625,395.271875 C630.260625,394.6925 630.564375,394.25 630.75,394.25 C630.9375,394.25 631.239375,394.6925 631.61625,395.27375 C632.323125,396.3575 633.39,398 635.625,398 C637.86,398 638.926875,396.3575 639.63375,395.27375 C640.010625,394.6925 640.314375,394.25 640.5,394.25 C640.685625,394.25 640.99125,394.6925 641.368125,395.27375 C642.073125,396.359375 643.141875,398 645.375,398 L649.125,398 C650.16,398 651,397.16 651,396.125 L651,392.375 C651,390.13625 649.291875,389.028125 648.27,388.36625 C647.6925,387.989375 647.25,387.6875 647.25,387.498125 C647.25,387.3125 647.6925,387.0125 648.27,386.6375 C649.291875,385.97375 651,384.86375 651,382.625 C651,380.38625 649.3575,379.32125 648.27,378.6125 C647.6925,378.2375 647.25,377.9375 647.25,377.75 C647.25,377.564375 647.6925,377.260625 648.271875,376.881875 C649.3575,376.176875 651,375.11 651,372.876875 C651,370.638125 649.3575,369.57125 648.271875,368.864375 C647.6925,368.489375 647.25,368.1875 647.25,368 C647.25,367.814375 647.6925,367.5125 648.271875,367.13375 C649.3575,366.426875 651,365.36 651,363.125 C651,360.888125 649.3575,359.823125 648.271875,359.11625 C647.6925,358.74125 647.25,358.435625 647.25,358.25 C647.25,358.0625 647.6925,357.760625 648.271875,357.38375 C649.3575,356.676875 651,355.61 651,353.375 C651,351.14 649.3575,350.073125 648.271875,349.36625 C647.6925,348.989375 647.25,348.685625 647.25,348.5 C647.25,348.314375 647.6925,348.010625 648.271875,347.63375 L648.271875,347.63375 Z" id="Page-1"></path>
            </g>
        </g>
    </g>
</svg>