<?xml version="1.0" encoding="UTF-8" standalone="no"?>
<svg width="40px" height="40px" viewBox="0 0 40 40" version="1.1" xmlns="http://www.w3.org/2000/svg" xmlns:xlink="http://www.w3.org/1999/xlink">
    <!-- Generator: Sketch 39.1 (31720) - http://www.bohemiancoding.com/sketch -->
    <title>Group 10</title>
    <desc>Created with Sketch.</desc>
    <defs>
        <circle id="path-1" cx="20" cy="20" r="20"></circle>
        <mask id="mask-2" maskContentUnits="userSpaceOnUse" maskUnits="objectBoundingBox" x="0" y="0" width="40" height="40" fill="white">
            <use xlink:href="#path-1"></use>
        </mask>
    </defs>
    <g id="Symbols" stroke="none" stroke-width="1" fill="none" fill-rule="evenodd">
        <g id="Footer" transform="translate(-647.000000, -540.000000)">
            <g id="Copyright-…" transform="translate(0.000000, 520.000000)">
                <g id="Group-5" transform="translate(60.000000, 20.000000)">
                    <g id="Group" transform="translate(467.000000, 0.000000)">
                        <g id="Group-10" transform="translate(120.000000, 0.000000)">
                            <path d="M28.4592636,13.8060391 C28.4592636,13.8060391 30.2177373,13.6650241 30.9234167,13.1305405 C30.9234167,13.1305405 30.7542826,13.7458305 28.6382854,15.6925762 C28.6382854,15.6925762 29.3507301,26.1968697 18.4949258,28.7694683 C18.4949258,28.7694683 12.9894821,29.963078 9,26.918317 C9,26.918317 13.1763102,27.6725093 15.5259725,25.0349488 C15.5259725,25.0349488 12.4950902,25.0661094 11.5364904,21.9278665 C11.5364904,21.9278665 12.6808775,22.1787358 13.3610566,21.8650172 C13.3610566,21.8650172 9.92789546,21.1425136 9.98982454,17.3446165 C9.98982454,17.3446165 10.91772,18.0354313 11.7524616,17.9097326 C11.7524616,17.9097326 8.66017065,15.2410114 10.5773702,11.9147487 C10.5773702,11.9147487 14.7208944,16.8872422 19.8563248,16.5920086 C19.7668139,16.2360383 19.7184155,15.8631673 19.7184155,15.4776208 C19.7184155,13.0053699 21.6944217,11 24.1315134,11 C25.3628093,11 26.476492,11.5123015 27.2774068,12.3377935 C27.8644321,12.3478283 29.0717891,12.241671 30.2775848,11.365477 C30.2775848,11.3660051 30.3467997,12.3235336 28.4592636,13.8060391 L28.4592636,13.8060391 L28.4592636,13.8060391 Z" id="Shape" fill="#939DA7"></path>
                            <use id="Oval-Copy" stroke="#939DA7" mask="url(#mask-2)" stroke-width="2" xlink:href="#path-1"></use>
                        </g>
                    </g>
                </g>
            </g>
        </g>
    </g>
</svg>