<?xml version="1.0" encoding="UTF-8" standalone="no"?>
<svg width="40px" height="40px" viewBox="0 0 40 40" version="1.1" xmlns="http://www.w3.org/2000/svg" xmlns:xlink="http://www.w3.org/1999/xlink">
    <!-- Generator: Sketch 39.1 (31720) - http://www.bohemiancoding.com/sketch -->
    <title>Group 12</title>
    <desc>Created with Sketch.</desc>
    <defs>
        <circle id="path-1" cx="20" cy="20" r="20"></circle>
        <mask id="mask-2" maskContentUnits="userSpaceOnUse" maskUnits="objectBoundingBox" x="0" y="0" width="40" height="40" fill="white">
            <use xlink:href="#path-1"></use>
        </mask>
    </defs>
    <g id="Symbols" stroke="none" stroke-width="1" fill="none" fill-rule="evenodd">
        <g id="Footer" transform="translate(-527.000000, -540.000000)">
            <g id="Copyright-…" transform="translate(0.000000, 520.000000)">
                <g id="Group-5" transform="translate(60.000000, 20.000000)">
                    <g id="Group" transform="translate(467.000000, 0.000000)">
                        <g id="Group-12">
                            <path d="M30.3571429,24.1290323 C30.3571429,26.2580645 28.6528239,28 26.5697675,28 L13.7873754,28 C11.7043189,28 10,26.2580645 10,24.1290323 L10,16.8709677 C10,14.7419355 11.7043189,13 13.7873754,13 L26.5697675,13 C28.6528239,13 30.3571429,14.7419355 30.3571429,16.8709677 L30.3571429,24.1290323 L30.3571429,24.1290323 Z M17.5,17.2857143 L23.9285714,21.0362716 L17.5,24.7857143 L17.5,17.2857143 L17.5,17.2857143 Z" id="Shape" fill="#939DA7"></path>
                            <use id="Oval" stroke="#939DA7" mask="url(#mask-2)" stroke-width="2" xlink:href="#path-1"></use>
                        </g>
                    </g>
                </g>
            </g>
        </g>
    </g>
</svg>