<?xml version="1.0" encoding="UTF-8" standalone="no"?>
<svg width="149px" height="44px" viewBox="0 0 149 44" version="1.1" xmlns="http://www.w3.org/2000/svg" xmlns:xlink="http://www.w3.org/1999/xlink">
    <!-- Generator: Sketch 40 (33762) - http://www.bohemiancoding.com/sketch -->
    <title>gaius-logo</title>
    <desc>Created with Sketch.</desc>
    <defs>
        <linearGradient x1="35.6862704%" y1="20.3813758%" x2="75.9451684%" y2="76.614118%" id="linearGradient-1">
            <stop stop-color="#000000" offset="0%"></stop>
            <stop stop-color="#000000" stop-opacity="0" offset="100%"></stop>
        </linearGradient>
        <linearGradient x1="0%" y1="36.6965452%" x2="72.5044359%" y2="103.452091%" id="linearGradient-2">
            <stop stop-color="#000000" stop-opacity="0.2" offset="0%"></stop>
            <stop stop-color="#000000" stop-opacity="0" offset="100%"></stop>
        </linearGradient>
        <linearGradient x1="35.6862704%" y1="20.3813758%" x2="94.3687989%" y2="100%" id="linearGradient-3">
            <stop stop-color="#000000" offset="0%"></stop>
            <stop stop-color="#000000" stop-opacity="0" offset="100%"></stop>
        </linearGradient>
    </defs>
    <g id="Symbols" stroke="none" stroke-width="1" fill="none" fill-rule="evenodd">
        <g id="gaius-logo">
            <g transform="translate(-3.000000, -4.000000)" id="Page-1">
                <g transform="translate(0.901132, 0.532836)">
                    <path d="M135.975251,23.6040333 C134.873142,22.5831643 133.462166,21.9654313 131.742707,21.7500679 C130.667422,21.6155615 129.592904,21.4948506 128.518003,21.3871689 C126.905842,21.011624 126.09957,20.3532708 126.09957,19.4121094 C126.09957,17.8804228 127.107027,17.1147711 129.122707,17.1147711 C130.734867,17.1147711 132.656277,17.7462996 134.886937,19.0089735 L137.063565,15.5830845 C134.37612,14.0513979 131.728912,13.285363 129.122707,13.285363 C126.892047,13.285363 125.064906,13.809593 123.640901,14.8576698 C122.108831,15.9862204 121.34318,17.4914656 121.34318,19.3722557 C121.34318,20.9307669 121.947884,22.2340609 123.156908,23.2821377 C124.258251,24.2229159 125.642019,24.8138243 127.308595,25.0556292 L130.815341,25.539239 C132.266554,25.7277779 132.991969,26.5608744 132.991969,28.0385285 C132.991969,28.7375018 132.66969,29.328027 132.024749,29.81202 C131.379808,30.2956298 130.533299,30.5378179 129.485606,30.5378179 C127.147264,30.5378179 124.943812,29.7855786 122.874866,28.2803334 L120.778713,31.8273164 C123.277619,33.520334 126.072363,34.3668428 129.162944,34.3668428 C131.473694,34.3668428 133.449137,33.8161714 135.088122,32.7144454 C136.888055,31.5322454 137.78898,29.9331141 137.78898,27.9174344 C137.789363,26.1975922 137.184659,24.7597918 135.975251,23.6040333 L135.975251,23.6040333 Z M112.798384,29.4889748 C111.831164,30.1879481 110.648198,30.5370515 109.251401,30.5370515 C108.203324,30.5370515 107.356816,30.1940794 106.711875,29.5089016 C106.066551,28.8237238 105.744272,27.876431 105.744272,26.6670233 L105.744272,13.4861646 L100.947644,13.4861646 L100.947644,27.1103961 C100.947644,29.3410561 101.713679,31.1551677 103.244982,32.5519647 C104.588513,33.7885804 106.160437,34.4063134 107.961519,34.4063134 C110.890003,34.4063134 113.564036,33.6142202 115.983235,32.028118 C116.708649,31.5441249 117.245908,31.1685801 117.595395,30.8995673 L117.595395,13.4865478 L112.798384,13.4865478 L112.798384,29.4889748 L112.798384,29.4889748 Z M91.3543885,9.21414999 L96.1107794,9.21414999 L96.1107794,5.34412173 L91.3543885,5.34412173 L91.3543885,9.21414999 Z M91.3543885,34.0441808 L96.1107794,34.0441808 L96.1107794,13.4060739 L91.3543885,13.4060739 L91.3543885,34.0441808 Z M81.962701,27.7959571 C81.962701,29.6238643 80.7398809,30.5370515 78.2946239,30.5370515 C77.3005796,30.5370515 76.4943077,30.3354836 75.8761915,29.9323476 C75.1772182,29.4759456 74.828498,28.8440339 74.828498,28.0381453 C74.828498,26.3451277 76.0375226,25.4986189 78.4563381,25.4986189 L81.962701,25.4986189 L81.962701,27.7959571 Z M78.0934391,13.2849798 C76.9913299,13.2849798 75.7957176,13.4865478 74.5062192,13.8896837 C73.0550065,14.3468521 71.8459819,14.951556 70.878379,15.7034122 L73.2163375,18.6863115 C74.8549394,17.6382347 76.547957,17.1140047 78.2950071,17.1140047 C80.7402641,17.1140047 81.9630842,18.13564 81.9630842,20.1773779 L81.9630842,21.6688275 L77.9324913,21.6688275 C75.2718709,21.6688275 73.2021587,22.4214501 71.7248878,23.9263121 C70.5691293,25.1092784 69.9916333,26.4393971 69.9916333,27.916668 C69.9916333,29.9323476 70.7174312,31.5111689 72.1682607,32.6527487 C73.6194734,33.7950949 75.5136758,34.3660764 77.8520174,34.3660764 C81.5331236,34.3660764 84.0860624,33.4260646 85.5104504,31.5445081 C86.3431637,30.4699899 86.7600952,29.1532836 86.7600952,27.5943892 L86.7600952,20.3789459 C86.759712,15.6501461 83.8706989,13.2849798 78.0934391,13.2849798 L78.0934391,13.2849798 Z M62.1316323,29.4487378 C61.109997,30.2550097 60.1163359,30.6581456 59.148733,30.6581456 C56.4076386,30.6581456 55.037283,28.4278689 55.037283,23.9669323 C55.037283,19.479171 56.2999569,17.235482 58.826071,17.235482 C60.0887448,17.235482 61.1904709,17.5849686 62.1312491,18.2831755 L62.1312491,29.4487378 L62.1316323,29.4487378 Z M59.18897,13.3658369 C55.9102333,13.3658369 53.5055964,14.4679462 51.9739099,16.671015 C50.7104696,18.4717144 50.0793243,20.9035591 50.0793243,23.9669323 C50.0793243,26.9494483 50.8453592,29.4222964 52.3770458,31.3835603 C54.0156477,33.4528892 56.1524214,34.4871705 58.7862172,34.4871705 C59.7802615,34.4871705 60.8953999,34.1376838 62.1316323,33.4394769 L62.1316323,34.8504527 C62.1316323,35.6831659 61.7821457,36.5296748 61.0835555,37.3899791 C60.3845822,38.249517 59.5652813,38.6794776 58.624503,38.6794776 L56.2060707,38.6794776 L56.2060707,42.5495058 L58.7049769,42.5495058 C61.0693768,42.5495058 63.0314072,41.7899855 64.5899184,40.2720944 C66.1480464,38.7534369 66.9278769,36.9466062 66.9278769,34.8508359 L66.9278769,16.7120184 C66.0139233,15.959779 64.8719603,15.2477766 63.5016047,14.5756279 C61.8357949,13.7689728 60.3983777,13.3658369 59.18897,13.3658369 L59.18897,13.3658369 Z" id="Fill-2" fill="#000000"></path>
                    <path d="M147.763911,45.6485175 L147.763911,38.6641492 L147.008606,38.6641492 L147.008606,46.3049546 L150.829201,46.3049546 L150.829201,45.6481343 L147.763911,45.6481343 L147.763911,45.6485175 Z M140.812882,43.6014147 L142.477159,39.3868815 L144.12994,43.6014147 L140.812882,43.6014147 Z M142.105063,38.6645324 L138.974245,46.3053378 L139.707707,46.3053378 L140.528924,44.258235 L144.382475,44.258235 L145.203692,46.3053378 L145.991953,46.3053378 L142.959619,38.6645324 L142.105063,38.6645324 Z M135.329161,42.8242667 L137.102652,42.8242667 L137.102652,45.5063469 C136.741669,45.7251593 135.953408,45.7799582 135.482444,45.7799582 C133.467914,45.7799582 132.384199,44.4119018 132.384199,42.4847435 C132.384199,40.5909243 133.50087,39.1895288 135.482444,39.1895288 C136.149994,39.1895288 136.850501,39.2661706 137.441792,39.5945808 L137.529547,38.8940746 C137.014897,38.6311932 136.062623,38.5330917 135.482444,38.5330917 C133.117661,38.5330917 131.628894,40.1644127 131.628894,42.4847435 C131.628894,44.8495266 133.073975,46.4363953 135.482444,46.4363953 C136.325121,46.4363953 137.080809,46.3049546 137.857957,45.9658146 L137.857957,42.1670632 L135.328777,42.1670632 L135.328777,42.8242667 L135.329161,42.8242667 Z M127.152246,42.7039391 L129.987226,42.7039391 L129.987226,42.0471187 L127.152246,42.0471187 L127.152246,39.3213527 L130.140893,39.3213527 L130.140893,38.6645324 L126.396558,38.6645324 L126.396558,46.3053378 L130.271567,46.3053378 L130.271567,45.6485175 L127.151863,45.6485175 L127.151863,42.7039391 L127.152246,42.7039391 Z M122.226477,38.6645324 L121.470788,38.6645324 L121.470788,46.3053378 L125.291766,46.3053378 L125.291766,45.6485175 L122.226477,45.6485175 L122.226477,38.6645324 L122.226477,38.6645324 Z M118.625078,46.3053378 L119.51144,46.3053378 L119.51144,45.3860193 L118.625078,45.3860193 L118.625078,46.3053378 Z" id="Fill-4" fill="#000000"></path>
                    <g id="gaius.-ogo" transform="translate(0.098868, 0.467164)">
                        <g id="Group-2-Copy" transform="translate(24.500000, 24.500000) rotate(-340.000000) translate(-24.500000, -24.500000) translate(6.000000, 6.000000)">
                            <path d="M18.0988679,36.4671638 C28.0399934,36.4671638 36.0988679,28.4082893 36.0988679,18.4671638 C36.0988679,8.52603828 28.0399934,0.467163774 18.0988679,0.467163774 C17.9353327,9.26549173 18.0742406,27.1762589 18.0988679,36.4671638 Z" id="Oval" fill="#9E0043"></path>
                            <path d="M18.0988679,36.4671638 C18.0988679,18.4671638 18.0988679,9.94946427 18.0988679,0.467163774 C8.15774244,0.467163774 0.0988679366,8.52603828 0.0988679366,18.4671638 C0.0988679366,28.4082893 8.15774244,36.4671638 18.0988679,36.4671638 Z" id="Oval" fill="#FDAF03"></path>
                            <path d="M18.0988679,14.813861 C18.0988679,20.4729545 18.0988679,27.2183209 18.0988679,36.4671638 C16.652347,36.4671638 15.2456786,36.2965348 13.8978919,35.974306 L6.75675106,16.3541829 L16.2529464,12.8978504 L18.0988679,17.969478 L18.0988679,14.813861 Z" id="Combined-Shape" fill-opacity="0.2" fill="url(#linearGradient-1)"></path>
                            <path d="M18.4408881,29.058242 C18.4408881,23.8467646 18.4408881,19.5550675 18.4408881,15.7535537 L18.4408881,18.9091707 L16.5949666,13.837543 L7.09877121,17.2938755 L9.22364722,23.1319243 C11.6456212,26.1721004 15.0636671,28.5370825 18.4408881,29.058242 L18.4408881,29.058242 Z" id="Combined-Shape"></path>
                            <path d="M18.0988679,24.4671638 C18.0988679,12.4671638 18.0988679,7.87622208 18.0988679,0.467163774 C11.4714509,0.467163774 6.09886794,5.83974678 6.09886794,12.4671638 C6.09886794,19.0945808 11.4714509,24.4671638 18.0988679,24.4671638 Z" id="Oval-2" fill="#D02027"></path>
                            <polygon id="Triangle" fill="url(#linearGradient-2)" points="18.1168685 0.469899787 23.4174773 15.0758567 18.1142958 12.4721296"></polygon>
                            <path d="M32.593449,29.1418762 L29.5559695,20.7964701 L21.3301804,27.8989242 L18.6008744,36.4602985 C24.3400326,36.3031428 29.4082962,33.4595966 32.593449,29.1418762 Z" id="Combined-Shape" fill-opacity="0.3" fill="url(#linearGradient-3)"></path>
                            <path d="M30.0988679,36.4671638 C30.0988679,24.4671638 30.0988679,19.8762221 30.0988679,12.4671638 C23.4714509,12.4671638 18.0988679,17.8397468 18.0988679,24.4671638 C18.0988679,31.0945808 23.4714509,36.4671638 30.0988679,36.4671638 Z" id="Oval-2-Copy" fill="#FEE704" transform="translate(24.098868, 24.467164) rotate(-180.000000) translate(-24.098868, -24.467164) "></path>
                        </g>
                    </g>
                </g>
            </g>
        </g>
    </g>
</svg>